<svg width="135" height="50" viewBox="0 0 135 50" fill="none" xmlns="http://www.w3.org/2000/svg">
<g clip-path="url(#clip0_32_3537)">
<path d="M29.843 26.4301H34.8363V3.95266H29.843V26.4349V26.4301ZM14.863 3.66131C14.863 3.66131 14.7656 3.66131 14.6535 3.66131C14.5415 3.66131 14.4538 3.66131 14.444 3.66131C14.4489 3.66131 14.4538 3.66131 14.4538 3.66131C12.5149 3.67102 11.0681 4.5305 10.0743 6.69132C8.69564 9.68248 2.40161 26.4398 2.40161 26.4398H7.56544C7.56544 26.4398 8.4959 23.7497 9.62123 20.608C11.224 20.9528 12.9339 21.1421 14.7169 21.1324C16.495 21.1227 18.2 20.9236 19.7979 20.5594C20.9475 23.6963 21.9657 26.4349 21.9657 26.4349H27.0759C27.0759 26.4349 20.6504 9.63392 19.2474 6.65733C18.2438 4.51107 16.7873 3.65645 14.8581 3.66131M14.6876 16.8253C13.3187 16.8253 12.1934 16.6602 11.1509 16.3495C12.4029 12.8727 13.5331 9.72618 13.6743 9.33772C14.0154 8.41512 14.2687 8.10921 14.6681 8.10435C15.0676 8.10435 15.3112 8.41027 15.6668 9.33286C15.8129 9.71647 16.9675 12.8533 18.239 16.3252C17.1867 16.6408 16.0565 16.8156 14.6828 16.8253M54.4491 6.65247C53.4456 4.50622 51.989 3.6516 50.0598 3.65646C50.0452 3.6516 49.9624 3.65646 49.8504 3.65646C49.7383 3.65646 49.6506 3.65646 49.6409 3.65646C49.6458 3.65646 49.6506 3.65646 49.6506 3.65646C47.7166 3.66617 46.2649 4.52564 45.2711 6.68646C43.8925 9.67763 37.5985 26.4349 37.5985 26.4349H42.7623C42.7623 26.4349 43.6927 23.7448 44.8229 20.6031C46.4257 20.9479 48.1356 21.1373 49.9186 21.1276C51.6967 21.1178 53.4017 20.9188 54.9996 20.5546C56.1493 23.6914 57.1674 26.4301 57.1674 26.4301H62.2777C62.2777 26.4301 55.8472 9.62907 54.4491 6.65247ZM49.8845 16.8253C48.5156 16.8253 47.3902 16.6602 46.3477 16.3495C47.5997 12.8727 48.7299 9.72618 48.8712 9.33772C49.2122 8.41512 49.4655 8.10921 49.8699 8.10435C50.2693 8.10435 50.5178 8.41027 50.8685 9.33286C51.0195 9.71647 52.1692 12.8533 53.4456 16.3252C52.3933 16.6408 51.2631 16.8156 49.8893 16.8253" fill="#D31145"/>
<path d="M83.0498 17.2522C83.0498 17.7038 81.6858 23.1568 81.6858 23.6084C81.6858 24.06 81.905 24.2057 81.905 24.2057C81.905 24.2057 82.2022 25.9198 79.971 26.4685C79.971 26.4685 78.0322 26.415 78.1247 24.4824C78.3001 22.8412 78.5632 17.9806 81.2035 14.9942C81.9976 15.1108 83.0547 15.9897 83.0547 17.2522M112.674 15.1642C113.136 15.1642 114.169 14.3776 114.169 13.722C114.169 13.4258 113.049 11.0125 111.529 11.0125C111.09 11.0125 110.472 11.5564 110.472 12.0079C110.472 12.7509 111.11 15.1691 112.674 15.1691M83.6637 13.4404C84.1265 13.4404 84.979 13.1296 84.979 12.4741C84.979 12.1827 83.7757 9.31298 82.2607 9.31298C81.8222 9.31298 81.2035 9.85197 81.2035 10.3084C81.2035 11.0513 81.3692 13.4404 83.6637 13.4404ZM88.3598 0.266656C87.7363 -0.432577 79.7275 -1.33575 72.8294 20.3502C72.7807 20.5007 72.5663 20.4861 72.5371 20.3308C71.4556 14.5718 71.9281 8.04562 71.7917 7.00163C71.4507 4.38922 69.2293 5.22441 69.2293 5.22441C68.2306 7.29783 68.8688 24.0503 70.5397 26.2305C71.5384 26.6578 74.3931 26.5073 75.0021 25.8324C75.0021 25.8324 79.0016 4.65143 88.3598 0.2618M131.298 15.7615C131.093 15.7615 130.971 16.0188 130.971 16.0188C128.55 20.3745 126.358 23.8415 124.497 23.9823C124.097 24.0066 123.888 23.7541 123.81 23.3316L123.8 23.3656C123.571 21.6904 125.15 17.5532 125.038 16.3781C124.999 15.9411 124.775 15.9897 124.497 15.8149C124.404 15.8877 124.307 15.9897 124.2 16.1208C124.156 16.1742 124.083 16.1936 124.019 16.1693C122.899 15.7615 121.506 15.4798 120.668 15.3633C121.525 12.9597 123.318 7.91451 123.318 7.46293C123.318 6.33638 122.49 5.95278 121.082 5.57403C118.822 9.54606 117.38 14.9554 117.282 15.3584C116.551 16.014 115.446 15.4118 115.226 16.6938C115.777 17.2716 116.805 17.7523 116.805 18.2039C116.805 18.6555 116.035 20.4716 116.327 26.4587C116.727 26.6093 118.354 24.8806 118.403 24.361C118.856 19.7044 120.035 18.034 120.035 18.034C120.035 18.034 121.881 18.0922 122.992 17.8737C123.026 17.8689 123.05 17.9029 123.035 17.932C122.772 18.4613 121.184 21.7195 121.174 23.2345C121.16 25.1914 121.803 26.2937 123.435 26.4442C123.761 26.483 124.107 26.4879 124.477 26.449C126.012 26.25 127.829 25.4585 129.344 23.691C129.441 23.5793 129.622 23.6764 129.583 23.8221C127.186 32.3342 122.563 34.4659 120.619 34.9321C120.687 35.5245 124.049 35.3545 126.402 33.3734C129.125 31.0815 131.132 27.5756 131.936 24.8223C132.194 23.9483 132.442 23.0548 132.632 22.1322C132.973 20.4861 133.178 18.7818 133.207 17.0774C133.212 16.7909 131.634 15.7615 131.298 15.7615ZM115.29 25.3128C115.26 25.3128 115.231 25.3128 115.202 25.3128C112.693 25.3128 115.64 16.4995 112.109 16.9754C111.514 17.058 110.598 17.5241 110.296 17.6843C110.233 17.7183 110.179 17.7718 110.14 17.8349C109.838 18.3399 108.323 20.7969 105.756 23.5259C105.547 23.7492 105.167 23.6715 105.074 23.3753C103.788 19.2382 109.454 7.06961 109.536 6.80254C109.965 5.43321 108.085 4.78253 107.149 4.68056C105.098 7.56975 101.654 16.752 102 24.0551C102 24.1523 101.951 24.2348 101.864 24.2736C101.284 24.5116 99.1892 25.2739 99.4377 23.5647C99.501 23.118 100.495 20.4958 100.495 20.0443C100.495 19.7529 99.2428 18.0582 98.2929 18.0582C97.908 18.0582 94.3469 22.5401 93.1534 23.5793C92.9488 23.7589 92.6322 23.6861 92.5201 23.4385C91.8722 22.0254 93.436 18.1311 97.8934 16.6549C97.9373 16.6404 98.8677 15.7663 99.0382 15.5235C99.1064 15.4216 99.1259 15.2953 99.0918 15.1739C99.0382 14.97 98.7703 14.8291 98.7557 14.8243C96.2809 13.6832 90.7615 13.8434 89.8213 13.7123C90.5179 10.5609 92.6809 5.51576 92.7393 5.02532C92.8319 4.26782 92.0866 3.52974 90.552 3.117C88.0724 7.46778 86.0264 13.2267 85.9192 13.6735C85.5051 14.1008 84.8913 13.9308 84.5064 15.1399C84.5064 15.6886 85.3979 16.2956 85.3979 16.7909C85.3979 17.2862 84.5552 19.918 84.8767 26.4685C86.0994 26.5413 87.4196 24.6136 87.5024 24.0503C88.2819 19.01 89.0467 16.6598 89.0467 16.6598C90.9661 16.6501 92.5932 16.5238 93.9377 16.3442C93.9865 16.3393 94.0108 16.3976 93.9767 16.4267C91.6091 18.4224 89.3536 20.3599 89.4072 24.0988C89.4267 25.609 91.0343 26.4685 91.9599 26.4685C93.5529 26.4685 95.1848 25.0506 95.9594 24.1765C96.1056 24.0114 96.3784 24.0891 96.4125 24.3028C96.6463 25.7401 97.8447 26.4685 98.9993 26.4685C100.061 26.4685 101.635 25.4682 102.234 25.1428C102.288 25.1137 102.351 25.1283 102.39 25.172C102.789 25.6236 103.593 26.4733 104.363 26.4733C106.662 26.4733 108.996 23.1374 110.296 21.0737C110.408 20.894 110.686 20.9377 110.73 21.1465C111.232 23.351 111.207 26.4733 113.434 26.4733C114.038 26.4733 114.798 26.3179 115.46 26.0849C115.923 25.9246 115.762 25.2594 115.28 25.3031" fill="#D31145"/>
<path d="M0 36.8896H2.51371L4.83744 46.3439H4.95922L7.44371 36.8896H9.73333L12.2227 46.3487H12.3347L14.6585 36.8896H17.1722L13.5283 49.7575H11.2191L8.63723 40.7306H8.53493L5.94327 49.7575H3.63417L0 36.8896Z" fill="#333D47"/>
<path d="M18.6141 36.8896H23.4564C26.4183 36.8896 28.0065 38.5503 28.0065 41.0025C28.0065 42.7506 27.2075 44.0422 25.6876 44.654L28.479 49.7575H25.8679L23.3347 45.0474H20.9525V49.7575H18.6141V36.8896ZM23.1106 43.1099C24.8448 43.1099 25.6243 42.3767 25.6243 41.0074C25.6243 39.638 24.8448 38.8417 23.0959 38.8417H20.9525V43.1148H23.1057L23.1106 43.1099Z" fill="#333D47"/>
<path d="M29.1464 49.7526L33.6915 36.8848H36.5803L41.1303 49.7526H38.6361L37.5644 46.5818H32.7123L31.6455 49.7526H29.1512H29.1464ZM36.9311 44.7123L35.1871 39.5312H35.0848L33.3408 44.7123H36.9311Z" fill="#333D47"/>
<path d="M42.6503 36.8896H47.4926C50.4593 36.8896 52.0426 38.6911 52.0426 41.1481C52.0426 43.6052 50.4399 45.4067 47.4585 45.4067H44.9886V49.7526H42.6503V36.8848V36.8896ZM47.1418 43.4886C48.881 43.4886 49.6555 42.5126 49.6555 41.1433C49.6555 39.774 48.881 38.8319 47.1272 38.8319H44.9837V43.4886H47.137H47.1418Z" fill="#333D47"/>
<path d="M53.8889 36.8896H58.7312C61.698 36.8896 63.2812 38.6911 63.2812 41.1481C63.2812 43.6052 61.6785 45.4067 58.6971 45.4067H56.2273V49.7526H53.8889V36.8848V36.8896ZM58.3853 43.4886C60.1245 43.4886 60.8991 42.5126 60.8991 41.1433C60.8991 39.774 60.1245 38.8319 58.3707 38.8319H56.2273V43.4886H58.3805H58.3853Z" fill="#333D47"/>
<path d="M65.1324 36.8896H73.5261V38.8416H67.4708V42.3329H73.0925V44.285H67.4708V47.7957H73.5797V49.7477H65.1324V36.8799V36.8896Z" fill="#333D47"/>
<path d="M75.7378 49.7526V36.8848H80.2001C84.0438 36.8848 86.3772 39.2981 86.3772 43.3041C86.3772 47.3101 84.0438 49.7477 80.1124 49.7477H75.7378V49.7526ZM80.0004 47.7374C82.6895 47.7374 84.0584 46.2661 84.0584 43.309C84.0584 40.3518 82.6895 38.9048 80.0686 38.9048H78.0761V47.7374H80.0004Z" fill="#333D47"/>
<path d="M92.5202 48.0725L97.002 43.6926C98.2735 42.4058 98.9312 41.6386 98.9312 40.5655C98.9312 39.3515 98.0153 38.6037 96.7877 38.6037C95.56 38.6037 94.6686 39.4292 94.6686 40.7403H92.4423C92.4423 38.2978 94.2593 36.7148 96.8169 36.7148C99.3745 36.7148 101.172 38.293 101.172 40.4489C101.172 41.9008 100.48 43.0711 97.9715 45.4698L95.7452 47.7229V47.8103H101.367V49.7575H92.5153V48.0725H92.5202Z" fill="#333D47"/>
<path d="M103.169 43.3332C103.174 39.1281 105.04 36.71 108.143 36.71C111.246 36.71 113.117 39.133 113.117 43.3332C113.117 47.5335 111.256 50.0051 108.143 50.0002C105.03 50.0002 103.169 47.5481 103.169 43.3332ZM110.754 43.3332C110.75 40.2692 109.746 38.6523 108.138 38.6523C106.531 38.6523 105.537 40.2692 105.527 43.3332C105.522 46.4264 106.531 48.0336 108.138 48.0336C109.746 48.0336 110.754 46.4264 110.754 43.3332Z" fill="#333D47"/>
<path d="M115.027 48.0725L119.508 43.6926C120.78 42.4058 121.438 41.6386 121.438 40.5655C121.438 39.3515 120.522 38.6037 119.294 38.6037C118.067 38.6037 117.175 39.4292 117.175 40.7403H114.949C114.949 38.2978 116.766 36.7148 119.323 36.7148C121.881 36.7148 123.679 38.293 123.679 40.4489C123.679 41.9008 122.987 43.0711 120.478 45.4698L118.252 47.7229V47.8103H123.873V49.7575H115.022V48.0725H115.027Z" fill="#333D47"/>
<path d="M125.91 46.2565H128.18C128.263 47.3102 129.203 48.0483 130.367 48.0483C131.746 48.0483 132.744 47.0237 132.735 45.5864C132.74 44.1296 131.721 43.0857 130.304 43.0808C129.529 43.0759 128.711 43.3964 128.272 43.8723L126.163 43.5275L126.835 36.8945H134.323V38.8417H128.769L128.399 42.2553H128.477C128.954 41.692 129.885 41.2744 130.927 41.2744C133.271 41.2744 135 43.0565 135 45.533C135 48.0094 133.095 49.9372 130.367 49.9372C127.844 49.9372 125.973 48.3979 125.91 46.2613V46.2565Z" fill="#333D47"/>
</g>
<defs>
<clipPath id="clip0_32_3537">
<rect width="135" height="50" fill="white"/>
</clipPath>
</defs>
</svg>
