<svg width="727" height="265" viewBox="0 0 727 265" fill="none" xmlns="http://www.w3.org/2000/svg">
<path d="M135.3 130.921H159.9V19.6214H135.3V130.921ZM61.4 18.1214C61.3 18.1214 60.9 18.1214 60.4 18.1214C59.8 18.1214 59.4 18.1214 59.4 18.1214H59.5C49.9 18.1214 42.8 22.4214 37.9 33.1214C31.1 47.9214 0 130.921 0 130.921H25.5C25.5 130.921 30.1 117.621 35.7 102.021C43.6 103.721 52.1 104.621 60.9 104.621C69.7 104.521 78.1 103.621 86 101.821C91.7 117.321 96.7 130.921 96.7 130.921H121.7C121.7 130.921 90 47.7213 83.1 33.0213C78.1 22.3213 70.9 18.1214 61.4 18.1214ZM60.5 83.3214C53.8 83.3214 48.2 82.5213 43 80.9213C49.2 63.7213 54.8 48.1214 55.5 46.2214C57.2 41.6214 58.4 40.1214 60.4 40.1214C62.4 40.1214 63.6 41.6214 65.3 46.2214C66 48.1214 71.7 63.6214 78 80.8214C72.9 82.4214 67.3 83.3214 60.5 83.3214ZM256.8 33.0213C251.8 22.4213 244.7 18.1214 235.1 18.2214C235 18.2214 234.6 18.2214 234.1 18.2214C233.5 18.2214 233.1 18.2214 233.1 18.2214C223.5 18.2214 216.4 22.5214 211.5 33.2214C204.7 48.0214 173.6 131.021 173.6 131.021H199.1C199.1 131.021 203.7 117.721 209.3 102.121C217.2 103.821 225.6 104.721 234.5 104.721C243.3 104.621 251.7 103.721 259.6 101.921C265.3 117.421 270.3 131.021 270.3 131.021H295.5C295.4 130.921 263.7 47.7213 256.8 33.0213ZM234.2 83.3214C227.4 83.3214 221.9 82.5213 216.7 80.9213C222.9 63.7213 228.5 48.1214 229.2 46.2214C230.9 41.6214 232.1 40.1214 234.1 40.1214C236.1 40.1214 237.3 41.6214 239 46.2214C239.7 48.1214 245.4 63.6214 251.7 80.8214C246.6 82.4214 241 83.3214 234.2 83.3214Z" fill="#D31145"/>
<path d="M397.9 85.4213C397.9 87.6213 391.2 114.621 391.2 116.921C391.2 119.121 392.3 119.921 392.3 119.921C392.3 119.921 393.8 128.421 382.7 131.121C382.7 131.121 373.1 130.821 373.6 121.321C374.5 113.221 375.8 89.1214 388.8 74.3214C392.7 74.8214 397.9 79.2214 397.9 85.4213ZM544.2 75.1214C546.5 75.1214 551.6 71.2214 551.6 68.0214C551.6 66.5214 546.1 54.6214 538.6 54.6214C536.4 54.6214 533.4 57.3214 533.4 59.5214C533.3 63.2214 536.5 75.1214 544.2 75.1214ZM401 66.6214C403.3 66.6214 407.5 65.1214 407.5 61.8214C407.5 60.4214 401.6 46.1214 394.1 46.1214C391.9 46.1214 388.9 48.8214 388.9 51.0214C388.9 54.7214 389.7 66.6214 401 66.6214ZM424.2 1.32135C421.1 -2.17865 381.6 -6.57863 347.5 100.821C347.3 101.521 346.2 101.521 346.1 100.721C340.8 72.2214 343.1 39.9214 342.4 34.7214C340.7 21.8214 329.8 25.9213 329.8 25.9213C324.9 36.2213 328 119.121 336.3 129.921C341.2 132.021 355.3 131.321 358.3 127.921C358.2 128.021 378 23.1214 424.2 1.32135ZM636.1 78.1214C635.1 78.1214 634.5 79.4213 634.5 79.4213C622.6 101.021 611.7 118.121 602.5 118.821C600.5 118.921 599.5 117.721 599.1 115.621L599 115.821C597.9 107.521 605.7 87.0214 605.1 81.2214C604.9 79.0214 603.8 79.3214 602.4 78.4213C602 78.8214 601.5 79.3214 600.9 79.9213C600.7 80.2214 600.3 80.3214 600 80.1214C594.5 78.1214 587.6 76.7214 583.5 76.1214C587.7 64.2214 596.6 39.2214 596.6 37.0214C596.6 31.4214 592.5 29.5214 585.6 27.6214C574.4 47.3214 567.3 74.1214 566.8 76.1214C563.2 79.4214 557.7 76.4214 556.7 82.7214C559.4 85.6214 564.5 87.9214 564.5 90.2214C564.5 92.4214 560.7 101.421 562.2 131.121C564.2 131.921 572.2 123.321 572.4 120.721C574.6 97.6214 580.5 89.4213 580.5 89.4213C580.5 89.4213 589.6 89.7214 595.1 88.6214C595.3 88.6214 595.4 88.7214 595.3 88.9213C594 91.5213 586.2 107.721 586.1 115.221C586 124.921 589.2 130.421 597.3 131.121C598.9 131.321 600.6 131.321 602.4 131.121C610 130.121 618.9 126.221 626.4 117.421C626.9 116.821 627.8 117.321 627.6 118.021C615.8 160.221 593 170.721 583.4 173.021C583.7 175.921 600.3 175.121 611.9 165.321C625.3 153.921 635.3 136.621 639.2 123.021C640.5 118.721 641.7 114.221 642.6 109.721C644.3 101.621 645.3 93.1214 645.4 84.7214C645.6 83.2214 637.8 78.1214 636.1 78.1214ZM557.1 125.421C556.9 125.421 556.8 125.421 556.7 125.421C544.3 125.421 558.9 81.8214 541.4 84.1214C538.5 84.5214 533.9 86.8214 532.5 87.6214C532.2 87.8214 531.9 88.0214 531.7 88.3214C530.2 90.8214 522.7 103.021 510.1 116.521C509.1 117.621 507.2 117.221 506.7 115.821C500.3 95.3214 528.3 35.0214 528.7 33.7214C530.8 26.9214 521.5 23.7214 516.9 23.2214C506.8 37.5214 489.8 83.0214 491.5 119.221C491.5 119.721 491.3 120.121 490.8 120.321C487.9 121.521 477.6 125.221 478.8 116.821C479.1 114.621 484 101.621 484 99.4213C484 97.9213 477.8 89.6214 473.1 89.6214C471.2 89.6214 453.6 111.821 447.7 117.021C446.7 117.921 445.1 117.521 444.6 116.321C441.4 109.321 449.1 90.0214 471.1 82.7214C471.3 82.6214 475.9 78.3214 476.7 77.1214C477 76.6214 477.1 76.0213 477 75.4213C476.7 74.4213 475.4 73.7214 475.3 73.7214C463.1 68.0214 435.8 68.8214 431.2 68.2214C434.6 52.6214 445.3 27.6214 445.6 25.2214C446 21.4214 442.4 17.8214 434.8 15.8214C422.6 37.3214 412.5 65.9214 411.9 68.1214C409.9 70.2214 406.8 69.4213 404.9 75.4213C404.9 78.1213 409.3 81.1214 409.3 83.6214C409.3 86.0214 405.1 99.1213 406.7 131.521C412.7 131.921 419.2 122.321 419.7 119.521C423.6 94.5214 427.3 82.9213 427.3 82.9213C436.8 82.9213 444.8 82.2214 451.5 81.3214C451.7 81.3214 451.9 81.6214 451.7 81.7214C440 91.6214 428.9 101.221 429.1 119.721C429.2 127.221 437.1 131.421 441.7 131.421C449.6 131.421 457.6 124.421 461.4 120.021C462.1 119.221 463.5 119.621 463.6 120.621C464.8 127.721 470.7 131.321 476.4 131.321C481.6 131.321 489.4 126.321 492.4 124.721C492.7 124.621 493 124.621 493.2 124.821C495.2 127.021 499.1 131.221 502.9 131.221C514.3 131.221 525.8 114.721 532.2 104.521C532.8 103.621 534.1 103.821 534.4 104.921C536.9 115.821 536.8 131.321 547.8 131.321C550.8 131.321 554.5 130.521 557.8 129.421C560.3 128.521 559.5 125.121 557.1 125.421Z" fill="#D31145"/>
<path d="M63.2949 243.833L45.314 180.122H57.7264L69.2056 226.941H69.7967L82.0536 180.122H93.3461L105.634 226.972H106.194L117.673 180.122H130.086L112.105 243.833H100.719L87.9643 199.129H87.4665L74.6808 243.833H63.2949ZM138.088 243.833V180.122H161.98C166.875 180.122 170.981 180.972 174.299 182.673C177.638 184.373 180.158 186.758 181.859 189.828C183.58 192.876 184.441 196.433 184.441 200.498C184.441 204.584 183.57 208.13 181.828 211.137C180.106 214.124 177.566 216.436 174.206 218.075C170.846 219.692 166.719 220.501 161.825 220.501H144.808V210.92H160.269C163.131 210.92 165.475 210.526 167.3 209.738C169.125 208.929 170.473 207.757 171.344 206.222C172.236 204.667 172.682 202.759 172.682 200.498C172.682 198.238 172.236 196.309 171.344 194.712C170.452 193.094 169.094 191.871 167.269 191.041C165.444 190.191 163.09 189.766 160.207 189.766H149.63V243.833H138.088ZM171.002 214.964L186.774 243.833H173.895L158.403 214.964H171.002ZM203.246 243.833H190.927L213.356 180.122H227.604L250.065 243.833H237.746L220.729 193.188H220.231L203.246 243.833ZM203.65 218.852H237.248V228.123H203.65V218.852ZM258.456 243.833V180.122H282.348C287.243 180.122 291.349 181.034 294.667 182.859C298.006 184.684 300.526 187.194 302.227 190.388C303.948 193.561 304.809 197.17 304.809 201.214C304.809 205.299 303.948 208.929 302.227 212.102C300.505 215.275 297.965 217.774 294.605 219.599C291.245 221.403 287.108 222.305 282.193 222.305H266.358V212.817H280.637C283.499 212.817 285.843 212.32 287.668 211.324C289.493 210.329 290.841 208.96 291.712 207.218C292.604 205.476 293.05 203.474 293.05 201.214C293.05 198.953 292.604 196.962 291.712 195.241C290.841 193.519 289.482 192.182 287.637 191.228C285.812 190.253 283.458 189.766 280.575 189.766H269.998V243.833H258.456ZM314.834 243.833V180.122H338.725C343.62 180.122 347.726 181.034 351.044 182.859C354.383 184.684 356.903 187.194 358.604 190.388C360.325 193.561 361.186 197.17 361.186 201.214C361.186 205.299 360.325 208.929 358.604 212.102C356.882 215.275 354.342 217.774 350.982 219.599C347.622 221.403 343.485 222.305 338.57 222.305H322.735V212.817H337.014C339.876 212.817 342.22 212.32 344.045 211.324C345.87 210.329 347.218 208.96 348.089 207.218C348.981 205.476 349.427 203.474 349.427 201.214C349.427 198.953 348.981 196.962 348.089 195.241C347.218 193.519 345.859 192.182 344.014 191.228C342.189 190.253 339.835 189.766 336.952 189.766H326.375V243.833H314.834ZM371.211 243.833V180.122H412.648V189.797H382.752V207.093H410.501V216.768H382.752V234.158H412.897V243.833H371.211ZM446.012 243.833H424.422V180.122H446.447C452.773 180.122 458.207 181.397 462.748 183.948C467.311 186.478 470.816 190.118 473.263 194.867C475.711 199.617 476.934 205.299 476.934 211.915C476.934 218.552 475.7 224.255 473.232 229.025C470.785 233.795 467.249 237.456 462.624 240.006C458.02 242.557 452.483 243.833 446.012 243.833ZM435.964 233.847H445.452C449.89 233.847 453.592 233.038 456.558 231.42C459.524 229.782 461.753 227.345 463.246 224.11C464.739 220.854 465.486 216.789 465.486 211.915C465.486 207.041 464.739 202.997 463.246 199.783C461.753 196.547 459.544 194.131 456.62 192.534C453.717 190.917 450.108 190.108 445.794 190.108H435.964V233.847ZM509.007 243.833V235.496L531.126 213.813C533.241 211.677 535.004 209.779 536.414 208.12C537.825 206.461 538.882 204.853 539.587 203.298C540.293 201.743 540.645 200.083 540.645 198.321C540.645 196.309 540.189 194.587 539.276 193.156C538.364 191.705 537.109 190.585 535.512 189.797C533.915 189.009 532.101 188.615 530.068 188.615C527.973 188.615 526.138 189.05 524.562 189.921C522.986 190.771 521.762 191.985 520.891 193.561C520.041 195.137 519.616 197.014 519.616 199.192H508.634C508.634 195.147 509.557 191.632 511.403 188.646C513.249 185.659 515.789 183.347 519.024 181.708C522.281 180.07 526.014 179.251 530.224 179.251C534.496 179.251 538.25 180.049 541.485 181.646C544.72 183.243 547.23 185.431 549.013 188.21C550.818 190.989 551.72 194.162 551.72 197.729C551.72 200.114 551.264 202.458 550.351 204.76C549.439 207.062 547.831 209.613 545.529 212.413C543.248 215.213 540.044 218.604 535.917 222.585L524.935 233.754V234.189H552.684V243.833H509.007ZM586.966 245.046C581.844 245.046 577.447 243.75 573.776 241.157C570.126 238.544 567.316 234.78 565.346 229.865C563.396 224.929 562.421 218.987 562.421 212.04C562.442 205.092 563.427 199.181 565.377 194.308C567.347 189.413 570.157 185.68 573.807 183.108C577.478 180.537 581.864 179.251 586.966 179.251C592.068 179.251 596.454 180.537 600.125 183.108C603.796 185.68 606.606 189.413 608.556 194.308C610.526 199.202 611.511 205.113 611.511 212.04C611.511 219.008 610.526 224.96 608.556 229.896C606.606 234.811 603.796 238.565 600.125 241.157C596.475 243.75 592.089 245.046 586.966 245.046ZM586.966 235.309C590.948 235.309 594.09 233.349 596.392 229.429C598.715 225.489 599.876 219.692 599.876 212.04C599.876 206.979 599.348 202.728 598.29 199.285C597.232 195.842 595.739 193.25 593.81 191.508C591.881 189.745 589.6 188.863 586.966 188.863C583.005 188.863 579.873 190.834 577.571 194.774C575.269 198.694 574.108 204.449 574.087 212.04C574.066 217.121 574.575 221.393 575.611 224.856C576.669 228.32 578.162 230.933 580.091 232.696C582.02 234.438 584.312 235.309 586.966 235.309ZM621.847 243.833V235.496L643.965 213.813C646.081 211.677 647.844 209.779 649.254 208.12C650.664 206.461 651.722 204.853 652.427 203.298C653.132 201.743 653.485 200.083 653.485 198.321C653.485 196.309 653.029 194.587 652.116 193.156C651.203 191.705 649.949 190.585 648.352 189.797C646.755 189.009 644.94 188.615 642.908 188.615C640.813 188.615 638.978 189.05 637.401 189.921C635.825 190.771 634.602 191.985 633.731 193.561C632.88 195.137 632.455 197.014 632.455 199.192H621.474C621.474 195.147 622.397 191.632 624.242 188.646C626.088 185.659 628.629 183.347 631.864 181.708C635.12 180.07 638.853 179.251 643.063 179.251C647.336 179.251 651.089 180.049 654.325 181.646C657.56 183.243 660.069 185.431 661.853 188.21C663.657 190.989 664.56 194.162 664.56 197.729C664.56 200.114 664.103 202.458 663.191 204.76C662.278 207.062 660.671 209.613 658.369 212.413C656.088 215.213 652.883 218.604 648.756 222.585L637.775 233.754V234.189H665.524V243.833H621.847ZM698.406 244.704C694.258 244.704 690.546 243.926 687.269 242.371C683.992 240.795 681.389 238.638 679.461 235.9C677.553 233.162 676.536 230.031 676.412 226.505H687.611C687.819 229.118 688.949 231.254 691.002 232.914C693.055 234.552 695.523 235.371 698.406 235.371C700.667 235.371 702.678 234.853 704.441 233.816C706.204 232.779 707.593 231.337 708.61 229.492C709.626 227.646 710.124 225.541 710.103 223.177C710.124 220.771 709.616 218.635 708.579 216.768C707.542 214.902 706.121 213.439 704.317 212.382C702.512 211.303 700.438 210.764 698.095 210.764C696.187 210.743 694.31 211.096 692.464 211.822C690.618 212.548 689.156 213.502 688.078 214.684L677.656 212.973L680.985 180.122H717.942V189.766H690.535L688.7 206.658H689.073C690.255 205.268 691.925 204.117 694.082 203.205C696.239 202.271 698.603 201.805 701.175 201.805C705.032 201.805 708.475 202.717 711.503 204.542C714.531 206.347 716.916 208.835 718.658 212.008C720.4 215.182 721.271 218.811 721.271 222.897C721.271 227.107 720.296 230.86 718.347 234.158C716.418 237.435 713.732 240.017 710.29 241.904C706.868 243.771 702.906 244.704 698.406 244.704Z" fill="#333D47"/>
</svg>
