<svg width="157" height="157" viewBox="0 0 157 157" fill="none" xmlns="http://www.w3.org/2000/svg">
<path d="M144.46 15.3116C139.06 9.51157 132.36 5.11152 124.86 2.51152C117.36 0.011519 109.36 -0.688469 101.56 0.711531C96.6602 1.61153 91.9602 3.21157 87.4602 5.31157L77.7602 12.0115C74.8602 15.1115 72.1602 18.3116 69.7602 21.8116C65.6602 28.3116 63.1602 35.7115 62.4602 43.4115C62.3602 44.8115 62.1602 45.5116 60.4602 45.1116C49.1602 41.8116 36.9602 42.9116 26.3602 48.1116C26.0602 48.2116 25.7602 48.3116 25.4602 48.3116L15.7602 55.0115C15.5602 55.3115 15.2602 55.7115 15.0602 56.0115C10.2602 60.4115 6.46022 65.7116 3.86022 71.6116C1.26022 77.5116 -0.0397987 84.0115 0.0602013 90.5115C-0.339799 97.9115 1.26021 105.212 4.66021 111.712C8.06021 118.212 13.1602 123.712 19.3602 127.612C25.9602 131.612 32.8602 134.912 40.1602 137.512C58.4602 144.012 77.3602 148.912 96.4602 152.212C103.56 153.512 110.56 154.712 117.76 155.712C117.76 155.712 138.76 160.212 144.66 141.812C148.76 123.912 151.86 105.912 154.06 87.7115C156.06 73.0115 156.56 58.1115 155.46 43.2115C155.16 32.9115 151.26 23.0116 144.46 15.3116Z" fill="#FFA9C4"/>
<path d="M96.6602 85.6116L105.16 39.1116C105.26 37.4116 105.96 35.8116 106.96 34.5116C107.96 33.2116 109.36 32.2116 110.96 31.7116C112.26 31.2116 113.76 31.1116 115.16 31.3116C116.56 31.5116 117.86 32.1116 118.96 32.9116C120.06 33.7116 120.96 34.9116 121.56 36.1116C122.16 37.4116 122.46 38.8116 122.36 40.2116C122.26 41.0116 122.16 41.7116 122.06 42.5116C118.36 63.0116 114.66 83.5116 110.96 104.012L110.46 106.812C109.86 109.712 109.36 112.612 108.76 115.512C108.66 116.712 108.26 117.812 107.66 118.912C107.06 119.912 106.26 120.812 105.26 121.512C104.26 122.212 103.16 122.712 101.96 122.912C100.76 123.112 99.5602 123.112 98.3602 122.812C86.2602 120.712 74.1602 118.512 62.0602 116.212C60.9602 116.112 59.8602 115.712 58.8602 115.112C57.8602 114.512 56.9602 113.712 56.3602 112.812C55.6602 111.912 55.1602 110.812 54.9602 109.712C54.6602 108.612 54.6602 107.412 54.8602 106.312C55.0602 105.212 55.4602 104.112 56.0602 103.112C56.6602 102.112 57.4602 101.312 58.4602 100.712C59.4602 100.112 60.4602 99.6116 61.6602 99.4116C62.7602 99.2116 63.9602 99.2116 65.0602 99.5116C73.7602 101.012 82.3602 102.612 90.9602 104.212C92.9602 104.612 93.8602 104.312 94.1602 102.112C94.7602 96.4116 96.3602 91.1116 96.6602 85.6116Z" fill="white"/>
</svg>
