<svg width="725" height="954" viewBox="0 0 725 954" fill="none" xmlns="http://www.w3.org/2000/svg">
<path d="M710.99 14.2534H14.39V941.353H710.99V14.2534Z" stroke="#D31145" stroke-width="2" stroke-miterlimit="10"/>
<path d="M25.8968 17.0503C27.4071 10.6543 23.4463 4.24491 17.0503 2.73462C10.6542 1.22433 4.24491 5.18504 2.73462 11.5811C1.22433 17.9771 5.18499 24.3865 11.581 25.8968C17.9771 27.4071 24.3865 23.4464 25.8968 17.0503Z" fill="#D31145"/>
<path d="M722.725 16.2086C723.778 9.72123 719.372 3.6086 712.885 2.55574C706.397 1.50288 700.285 5.90847 699.232 12.3959C698.179 18.8833 702.584 24.9958 709.072 26.0487C715.559 27.1016 721.672 22.696 722.725 16.2086Z" fill="#D31145"/>
<path d="M14.39 953.353C20.9622 953.353 26.29 948.026 26.29 941.453C26.29 934.881 20.9622 929.553 14.39 929.553C7.81781 929.553 2.49001 934.881 2.49001 941.453C2.49001 948.026 7.81781 953.353 14.39 953.353Z" fill="#D31145"/>
<path d="M710.99 953.353C717.562 953.353 722.89 948.026 722.89 941.453C722.89 934.881 717.562 929.553 710.99 929.553C704.418 929.553 699.09 934.881 699.09 941.453C699.09 948.026 704.418 953.353 710.99 953.353Z" fill="#D31145"/>
</svg>
