<svg width="1080" height="1834" viewBox="0 0 1080 1834" fill="none" xmlns="http://www.w3.org/2000/svg">
<path d="M1436.1 4.45888C1310.2 1.85888 1184.2 -1.84112 1058.3 1.05888C968.1 3.05888 877 9.55888 788.5 27.4589C738 37.7589 690.1 54.6589 643.5 76.6589C626.7 84.5589 610.5 93.8589 595.5 104.859C572.6 121.759 548.9 138.959 530.6 161.059C518 176.259 505.3 191.959 494.8 208.759C483.5 227.059 475.7 247.859 468.1 267.759C464.2 277.959 461.3 288.559 459.4 299.359C455.4 321.459 452 344.059 451.4 366.559C451.1 378.059 451.7 389.559 453 401.059C455.6 423.859 458.4 446.859 463.4 469.259C468.7 492.759 476.3 515.759 485.1 538.259C526.8 644.159 585.8 741.359 634.7 843.859C640.8 856.659 646.7 869.659 652.3 882.759C647.8 872.059 643.2 861.259 638.7 850.559C653.9 886.959 667.4 924.859 672.9 964.059C671.3 952.059 669.7 940.159 668.1 928.159C670.6 947.859 671 967.659 668.5 987.459C670.1 975.459 671.7 963.559 673.3 951.559C671 967.859 666.8 983.659 660.5 998.859C665 988.159 669.6 977.359 674.1 966.659C668.1 980.459 660.6 993.259 651.5 1005.26C658.5 996.159 665.6 987.059 672.6 977.959C661.1 992.759 647.8 1005.76 633 1017.16C642.1 1010.16 651.2 1003.06 660.3 996.059C633.3 1016.56 603.2 1032.56 572.1 1045.86C582.8 1041.36 593.6 1036.76 604.3 1032.26C512.8 1070.86 413.7 1087.76 317.1 1108.86C268.1 1119.56 219.1 1131.26 171.5 1147.26C138.3 1158.36 105.8 1171.96 73.8002 1186.26C53.7002 1195.26 34.0002 1205.26 15.3002 1216.96C-9.3998 1232.46 -32.6998 1250.36 -54.6998 1269.46C-67.9998 1280.96 -80.3998 1293.66 -91.3998 1307.46C-108.1 1328.26 -125 1349.36 -137.9 1372.76C-151 1396.46 -161.5 1421.96 -170.4 1447.56C-184.6 1488.26 -190.3 1532.76 -192.7 1575.56C-194.6 1609.36 -192.5 1643.16 -188.1 1676.66C-181.4 1728.06 -172.8 1778.46 -159.8 1828.76C-149.5 1868.66 -137.5 1908.06 -125.2 1947.36C-114.8 1980.46 -93.4998 2010.26 -63.1998 2028.06C-47.6998 2037.96 -30.9998 2043.26 -12.9998 2044.06C4.90019 2048.06 22.9002 2047.26 40.8002 2041.66C73.5002 2031.06 105 2010.86 121.5 1979.66C138.1 1948.16 146.1 1910.56 135.1 1875.66C111.2 1799.46 88.2002 1722.36 77.3002 1643.16C78.9002 1655.16 80.5002 1667.06 82.1002 1679.06C76.2002 1635.26 74.2002 1590.76 79.9002 1546.86C78.3002 1558.86 76.7002 1570.76 75.1002 1582.76C78.8002 1555.26 85.7002 1528.26 96.4002 1502.56C91.9002 1513.26 87.3002 1524.06 82.8002 1534.76C92.0002 1513.26 103.7 1493.06 118 1474.56C111 1483.66 103.9 1492.76 96.9002 1501.86C112.5 1481.86 130.7 1464.26 150.7 1448.66C141.6 1455.66 132.5 1462.76 123.4 1469.76C153.5 1446.76 187 1429.26 221.8 1414.46C211.1 1418.96 200.3 1423.56 189.6 1428.06C274.5 1392.26 365.2 1374.46 454.9 1355.36C552.4 1334.56 649.2 1310.56 738.7 1265.16C757.3 1255.76 775.4 1245.06 792.2 1232.66C815.8 1215.36 840.1 1197.56 858.9 1174.76C876.1 1153.86 893.9 1132.16 905.3 1107.36C916.9 1081.96 928.5 1056.06 932.9 1028.26C937.3 1000.16 941.6 972.159 939.6 943.659C937.4 913.759 933.3 883.359 925.4 854.359C910.9 800.759 888 749.059 863.7 699.159C823 615.659 774.6 535.459 738.2 449.959C742.7 460.659 747.3 471.459 751.8 482.159C736.7 446.259 724.2 409.159 718.8 370.459C720.4 382.459 722 394.359 723.6 406.359C721 386.059 720.4 365.659 722.9 345.359C721.3 357.359 719.7 369.259 718.1 381.259C720.4 364.459 724.7 348.159 731.3 332.559C726.8 343.259 722.2 354.059 717.7 364.759C723.3 352.059 730.4 340.459 738.8 329.459C731.8 338.559 724.7 347.659 717.7 356.759C728.5 342.959 741.1 330.759 755 320.059C745.9 327.059 736.8 334.159 727.7 341.159C747.9 325.759 770.3 313.559 793.7 303.659C783 308.159 772.2 312.759 761.5 317.259C810.2 296.859 862.4 285.959 914.6 278.759C902.6 280.359 890.7 281.959 878.7 283.559C1013.8 265.359 1152 268.959 1287.9 271.359C1337.3 272.259 1386.8 273.359 1436.2 274.459C1470.4 275.159 1507.7 258.859 1531.7 234.959C1544.9 222.759 1554.2 208.259 1559.6 191.559C1568.1 175.459 1571.9 158.159 1571.2 139.559C1569.6 104.659 1558.2 68.4589 1531.7 44.0589C1504.8 19.4589 1472.9 5.25888 1436.1 4.45888Z" fill="#F9E1E8"/>
</svg>
