<svg width="317" height="286" viewBox="0 0 317 286" fill="none" xmlns="http://www.w3.org/2000/svg">
<path d="M21.7556 78.153C21.7556 78.153 59.6556 29.4529 93.9556 4.25293C93.9556 4.25293 95.0556 5.85295 100.556 5.65295C106.056 5.55295 113.156 7.35293 113.556 17.2529C113.956 27.1529 108.356 49.153 121.356 60.553C134.356 71.953 153.356 74.3529 170.056 70.7529C186.756 67.0529 198.256 63.4529 204.356 65.8529C210.456 68.2529 215.656 75.4529 218.056 89.8529H223.156C223.156 89.8529 244.156 198.053 302.256 227.953C302.256 227.953 321.356 237.453 315.556 258.453C315.556 258.453 319.656 263.253 311.156 272.153C302.656 281.053 275.256 291.853 227.356 281.953C179.356 272.153 149.556 251.753 124.456 217.453C99.3556 183.153 83.7556 185.353 76.8556 181.253C69.8556 177.153 23.1556 145.953 5.35559 121.853C5.35559 121.853 -8.6444 107.153 9.15559 89.453L21.7556 78.153Z" fill="#EEE8E0"/>
<path d="M76.3559 125.153C90.9558 134.453 104.756 143.253 116.056 151.953C117.756 74.3531 63.2559 31.353 63.2559 31.353C57.9559 36.653 52.8559 42.0531 48.2559 47.1531C98.8559 98.1531 76.3559 125.153 76.3559 125.153Z" fill="#D31145"/>
<path d="M100.555 5.6529C106.055 5.5529 113.155 7.35287 113.555 17.2529C113.955 27.1529 108.355 49.1529 121.355 60.5529C134.355 71.9529 153.355 74.3529 170.055 70.7529C186.755 67.0529 198.255 63.4528 204.355 65.8528C210.455 68.2528 215.655 75.4528 218.055 89.8528H223.155C223.155 89.8528 221.655 72.7528 217.155 61.8528C212.655 50.9529 198.955 54.0529 186.555 57.1529C174.155 60.2529 150.455 65.9529 132.355 57.1529C114.255 48.3529 123.555 22.8529 120.255 13.6529C116.855 4.4529 108.355 0.65292 100.455 0.0529203C92.555 -0.54708 94.055 4.1529 94.055 4.1529C94.055 4.1529 95.055 5.8529 100.555 5.6529Z" fill="#333D47"/>
<path d="M269.855 199.853C236.055 156.753 223.055 89.8529 223.055 89.8529H217.955C215.555 75.4529 210.355 68.2529 204.255 65.8529C199.155 63.8529 190.155 66.053 177.655 69.053C177.655 69.053 183.855 81.453 196.755 116.653C209.655 151.753 221.755 172.153 228.755 183.953C235.655 195.753 253.255 213.853 269.855 199.853Z" fill="#D31145"/>
<path d="M225.856 98.5528L210.156 100.953C207.456 101.353 204.856 99.4528 204.456 96.7528C204.056 94.0528 205.956 91.4528 208.656 91.0528L224.356 88.6528C227.056 88.2528 229.656 90.1528 230.056 92.8528C230.456 95.6528 228.556 98.1528 225.856 98.5528Z" fill="#F7C926"/>
<path d="M234.956 128.753L221.656 132.153C218.956 132.853 216.256 131.253 215.556 128.553C214.856 125.853 216.456 123.153 219.156 122.453L232.456 119.053C235.156 118.353 237.856 119.953 238.556 122.653C239.156 125.353 237.556 128.053 234.956 128.753Z" fill="#F7C926"/>
<path d="M246.455 157.353L234.256 160.453C231.556 161.153 228.855 159.553 228.155 156.853C227.455 154.153 229.056 151.453 231.756 150.753L243.955 147.653C246.655 146.953 249.355 148.553 250.055 151.253C250.755 153.953 249.155 156.753 246.455 157.353Z" fill="#F7C926"/>
<path d="M260.455 184.253L252.055 187.853C249.555 188.953 246.555 187.753 245.455 185.253C244.355 182.753 245.555 179.753 248.055 178.653L256.455 175.053C258.955 173.953 261.955 175.153 263.055 177.653C264.155 180.153 262.955 183.153 260.455 184.253Z" fill="#F7C926"/>
<path d="M221.256 89.1528L217.456 89.7528L221.256 89.1528Z" fill="#333D47"/>
<path d="M204.456 96.7527C204.056 94.0527 205.956 91.4527 208.656 91.0527L205.556 91.5527C202.856 91.9527 200.956 94.5527 201.356 97.2527C201.756 99.9527 204.356 101.853 207.056 101.453L210.156 100.953C207.356 101.353 204.856 99.4527 204.456 96.7527Z" fill="#333D47"/>
<path d="M221.555 132.153C218.855 132.853 216.155 131.253 215.455 128.553C214.755 125.853 216.355 123.153 219.055 122.453L216.055 123.253C213.355 123.953 211.755 126.653 212.455 129.353C213.155 132.053 215.855 133.653 218.555 132.953L231.855 129.553L221.555 132.153Z" fill="#333D47"/>
<path d="M234.256 160.553C231.556 161.253 228.855 159.653 228.155 156.953C227.455 154.253 229.056 151.553 231.756 150.853L228.756 151.653C226.056 152.353 224.455 155.053 225.155 157.753C225.855 160.453 228.556 162.053 231.256 161.353L243.455 158.253L234.256 160.553Z" fill="#333D47"/>
<path d="M245.456 185.253C244.356 182.753 245.556 179.753 248.056 178.653L253.656 176.253L245.256 179.853C242.756 180.953 241.556 183.853 242.656 186.453C243.756 188.953 246.656 190.153 249.256 189.053L252.156 187.853C249.456 188.953 246.556 187.753 245.456 185.253Z" fill="#333D47"/>
<path d="M5.25502 121.753C23.055 145.853 69.755 177.053 76.755 181.153C83.755 185.253 99.255 183.053 124.355 217.353C149.455 251.653 179.255 271.953 227.255 281.853C275.255 291.653 302.555 280.853 311.055 272.053C314.255 268.753 315.655 266.053 316.155 263.953C312.955 264.053 309.155 264.253 304.755 264.553C258.055 268.053 221.155 250.753 195.955 233.853C170.755 216.953 145.955 181.953 131.355 165.853C116.755 149.753 90.055 134.353 62.755 116.553C35.455 98.7529 21.655 78.1528 21.655 78.1528L9.055 89.4529C-8.745 107.053 5.25502 121.753 5.25502 121.753Z" fill="#FEEDD1"/>
<path d="M5.25547 121.753C23.0555 145.853 69.7555 177.053 76.7555 181.153C83.7555 185.253 99.2555 183.053 124.355 217.353C149.455 251.653 179.255 271.953 227.255 281.853C275.255 291.653 302.555 280.853 311.055 272.053C319.555 263.253 315.455 258.353 315.455 258.353C308.955 255.553 308.155 263.253 299.055 269.553C289.955 275.953 278.955 275.453 278.955 275.453C231.355 277.653 183.055 258.353 155.755 235.753C128.455 213.253 112.255 185.853 100.455 177.653C88.6555 169.353 42.9555 135.453 23.5555 117.653C4.15546 99.8531 8.95547 89.353 8.95547 89.353C-8.74453 107.053 5.25547 121.753 5.25547 121.753Z" fill="#333D47"/>
</svg>
