<svg width="372" height="187" viewBox="0 0 372 187" fill="none" xmlns="http://www.w3.org/2000/svg">
<path d="M3.2702 137.967C3.2702 137.967 2.07019 76.2673 13.5702 35.0673C13.5702 35.0673 15.5702 35.5674 19.9702 31.9674C24.4702 28.3674 31.4702 25.2673 38.4702 32.6673C45.3702 40.0673 55.4702 60.6674 73.7702 61.2674C92.0702 61.8674 109.47 51.6674 120.77 38.2674C132.07 24.8674 139.17 14.6673 145.77 12.6673C152.37 10.6673 161.47 12.9673 173.07 22.5673L177.27 19.3674C177.27 19.3674 266.87 89.6674 334.87 75.8674C334.87 75.8674 356.97 71.1674 366.27 90.9674C366.27 90.9674 372.87 92.0674 371.67 104.367C370.57 116.667 355.17 142.367 308.97 165.167C262.77 187.967 224.57 191.167 180.97 180.667C137.37 170.067 125.97 181.667 117.47 182.867C108.97 184.067 49.5702 189.667 18.7702 182.267C18.7702 182.267 -2.6298 179.767 0.2702 154.767L3.2702 137.967Z" fill="#EEE8E0"/>
<path d="M19.9702 31.8673C24.4702 28.2673 31.4702 25.1673 38.4702 32.5673C45.3702 39.9673 55.4702 60.5672 73.7702 61.1672C92.0702 61.7672 109.47 51.5672 120.77 38.1672C132.07 24.7672 139.17 14.5673 145.77 12.5673C152.37 10.5673 161.47 12.8673 173.07 22.4673L177.27 19.2673C177.27 19.2673 164.57 6.96728 153.67 1.46728C142.67 -4.03272 133.47 6.96733 125.27 17.2673C117.07 27.5673 101.27 46.9672 80.4702 51.6672C59.6702 56.3672 50.3702 30.6673 41.3702 25.7673C32.4702 20.8673 22.8702 23.2673 15.9702 27.8673C9.07024 32.4673 13.4702 35.1672 13.4702 35.1672C13.4702 35.1672 15.5702 35.4673 19.9702 31.8673Z" fill="#333D47"/>
<path d="M289.471 74.5671C232.771 62.6671 177.371 19.1671 177.371 19.1671L173.171 22.3671C161.571 12.7671 152.471 10.4671 145.871 12.4671C140.371 14.1671 134.471 21.5671 125.971 31.8671C125.971 31.8671 139.371 37.5671 173.471 56.5671C207.571 75.5671 231.171 83.5671 244.871 88.3671C258.471 93.0671 285.071 95.8671 289.471 74.5671Z" fill="#D31145"/>
<path d="M185.47 24.1673L174.07 35.9674C172.07 38.0674 168.77 38.1674 166.57 36.3674C164.37 34.4674 164.27 31.3674 166.27 29.2674L177.67 17.4674C179.67 15.3674 182.97 15.2673 185.17 17.0673C187.37 18.9673 187.47 22.1673 185.47 24.1673Z" fill="#F7C926"/>
<path d="M213.07 41.7673L204.37 52.8673C202.57 55.0673 199.27 55.5672 196.97 53.9672C194.57 52.3672 194.17 49.1672 195.87 46.9672L204.57 35.8673C206.37 33.6673 209.67 33.1673 211.97 34.7673C214.37 36.3673 214.87 39.5673 213.07 41.7673Z" fill="#F7C926"/>
<path d="M241.77 56.5671L233.77 66.7672C231.97 68.9672 228.67 69.4672 226.37 67.8672C223.97 66.2672 223.57 63.0672 225.27 60.8672L233.27 50.6671C235.07 48.4671 238.37 47.9671 240.67 49.5671C243.07 51.2671 243.57 54.3671 241.77 56.5671Z" fill="#F7C926"/>
<path d="M271.27 68.4673L266.77 76.6672C265.37 79.1672 262.17 80.0673 259.57 78.8673C256.97 77.5673 255.97 74.5672 257.37 72.1672L261.87 63.9673C263.27 61.4673 266.47 60.5673 269.07 61.7673C271.57 62.9673 272.57 65.9673 271.27 68.4673Z" fill="#F7C926"/>
<path d="M175.37 19.8672L172.67 22.6671L175.37 19.8672Z" fill="#333D47"/>
<path d="M166.57 36.3671C164.37 34.4671 164.27 31.3671 166.27 29.2671L163.97 31.667C161.97 33.767 162.17 36.8671 164.27 38.7671C166.47 40.6671 169.77 40.4671 171.77 38.3671L174.07 35.967C172.07 38.067 168.77 38.2671 166.57 36.3671Z" fill="#333D47"/>
<path d="M204.37 52.8671C202.57 55.0671 199.27 55.567 196.97 53.967C194.57 52.367 194.17 49.167 195.87 46.967L193.97 49.467C192.17 51.667 192.67 54.867 195.07 56.467C197.47 58.067 200.77 57.6671 202.47 55.3671L211.17 44.2671L204.37 52.8671Z" fill="#333D47"/>
<path d="M233.77 66.7675C231.97 68.9675 228.67 69.4674 226.37 67.8674C223.97 66.2674 223.57 63.0674 225.27 60.8674L223.27 63.3674C221.47 65.5674 221.97 68.7674 224.37 70.3674C226.77 71.9674 230.07 71.5675 231.77 69.2675L239.77 59.0674L233.77 66.7675Z" fill="#333D47"/>
<path d="M259.57 78.7676C256.97 77.4676 255.97 74.4675 257.37 72.0675L260.37 66.6675L255.87 74.8676C254.47 77.3676 255.47 80.3675 258.07 81.5675C260.67 82.8675 263.87 81.8676 265.27 79.3676L266.77 76.5675C265.37 79.0675 262.17 80.0676 259.57 78.7676Z" fill="#333D47"/>
<path d="M79.7701 139.667C80.0701 139.667 80.2701 139.567 80.5701 139.567C81.4701 139.467 82.3701 139.367 83.3701 139.267C84.1701 139.167 85.0701 139.067 85.8701 138.967C85.9701 138.967 85.9701 138.967 86.0701 138.967C111.57 136.067 134.87 133.667 152.47 136.167C175.27 139.367 219.07 150.667 251.17 147.767C264.57 146.567 279.77 144.067 295.57 139.267C290.47 127.567 277.47 122.067 254.47 123.867C230.37 125.767 210.97 112.467 179.77 91.5674C148.57 70.5674 126.67 86.2675 107.97 93.7675C94.3702 99.1675 83.3701 96.0674 78.3701 94.0674C40.5701 75.0674 6.27014 75.7675 6.27014 75.7675C5.47014 83.2675 4.87012 90.5674 4.37012 97.4674C80.2701 104.467 79.7701 139.667 79.7701 139.667Z" fill="#D31145"/>
<path d="M18.8698 182.167C49.6698 189.567 108.97 183.967 117.57 182.767C126.07 181.567 137.47 169.967 181.07 180.567C224.67 191.167 262.87 187.967 309.07 165.067C355.27 142.267 370.57 116.567 371.77 104.267C372.17 99.7671 371.57 96.7671 370.57 94.7671C367.97 96.8671 364.97 99.467 361.57 102.467C325.37 134.767 283.27 144.867 251.17 147.767C219.07 150.667 175.27 139.367 152.47 136.167C129.67 132.967 97.2698 137.967 62.8698 141.567C28.4698 145.167 3.26983 138.067 3.26983 138.067L0.36981 154.767C-2.53019 179.567 18.8698 182.167 18.8698 182.167Z" fill="#FEEDD1"/>
<path d="M18.8699 182.167C49.6699 189.567 108.97 183.967 117.57 182.767C126.07 181.567 137.47 169.967 181.07 180.567C224.67 191.167 262.87 187.967 309.07 165.067C355.27 142.267 370.57 116.567 371.77 104.267C372.87 91.9672 366.37 90.8672 366.37 90.8672C359.17 92.8672 363.57 99.2672 360.27 109.967C356.97 120.667 347.57 127.267 347.57 127.267C309.67 159.167 256.97 174.867 219.27 174.767C181.67 174.667 150.07 163.867 134.87 164.867C119.67 165.967 59.1699 168.667 31.3699 167.267C3.46993 165.767 0.469965 154.667 0.469965 154.667C-2.53004 179.567 18.8699 182.167 18.8699 182.167Z" fill="#333D47"/>
</svg>
