<svg width="108" height="40" viewBox="0 0 108 40" fill="none" xmlns="http://www.w3.org/2000/svg">
<g clip-path="url(#clip0_572_746)">
<path d="M23.8744 21.144H27.8691V3.16209H23.8744V21.1479V21.144ZM11.8904 2.92901C11.8904 2.92901 11.8125 2.92901 11.7229 2.92901C11.6332 2.92901 11.5631 2.92901 11.5553 2.92901C11.5592 2.92901 11.5631 2.92901 11.5631 2.92901C10.012 2.93678 8.8545 3.62436 8.05946 5.35302C6.95655 7.74595 1.92133 21.1518 1.92133 21.1518H6.05239C6.05239 21.1518 6.79676 18.9997 7.69702 16.4864C8.97921 16.7622 10.3471 16.9137 11.7735 16.9059C13.196 16.8981 14.56 16.7389 15.8383 16.4475C16.7581 18.957 17.5726 21.1479 17.5726 21.1479H21.6608C21.6608 21.1479 16.5203 7.7071 15.3979 5.32583C14.5951 3.60882 13.4298 2.92513 11.8865 2.92901M11.7501 13.4602C10.655 13.4602 9.75476 13.3282 8.92075 13.0795C9.92234 10.2981 10.8265 7.78091 10.9395 7.47014C11.2123 6.73206 11.415 6.48733 11.7345 6.48345C12.0541 6.48345 12.249 6.72818 12.5335 7.46626C12.6504 7.77314 13.574 10.2826 14.5912 13.0601C13.7494 13.3126 12.8453 13.4525 11.7462 13.4602M43.5593 5.32194C42.7565 3.60494 41.5912 2.92124 40.0479 2.92513C40.0362 2.92124 39.97 2.92513 39.8803 2.92513C39.7907 2.92513 39.7206 2.92513 39.7128 2.92513C39.7167 2.92513 39.7205 2.92513 39.7205 2.92513C38.1733 2.9329 37.012 3.62048 36.2169 5.34913C35.114 7.74206 30.0788 21.1479 30.0788 21.1479H34.2099C34.2099 21.1479 34.9542 18.9958 35.8584 16.4825C37.1406 16.7583 38.5085 16.9098 39.9349 16.902C41.3574 16.8942 42.7214 16.735 43.9997 16.4436C44.9195 18.9531 45.734 21.144 45.734 21.144H49.8222C49.8222 21.144 44.6778 7.70322 43.5593 5.32194ZM39.9076 13.4602C38.8125 13.4602 37.9122 13.3282 37.0782 13.0795C38.0798 10.2981 38.984 7.78091 39.097 7.47014C39.3698 6.73206 39.5725 6.48733 39.8959 6.48345C40.2155 6.48345 40.4143 6.72818 40.6949 7.46626C40.8157 7.77314 41.7354 10.2826 42.7565 13.0601C41.9147 13.3126 41.0105 13.4525 39.9115 13.4602" fill="white"/>
<path d="M66.4399 13.8021C66.4399 14.1633 65.3487 18.5258 65.3487 18.8871C65.3487 19.2483 65.5241 19.3649 65.5241 19.3649C65.5241 19.3649 65.7618 20.7361 63.9769 21.1751C63.9769 21.1751 62.4258 21.1324 62.4998 19.5863C62.6401 18.2733 62.8506 14.3848 64.9629 11.9957C65.5981 12.089 66.4438 12.7921 66.4438 13.8021M90.139 12.1317C90.5092 12.1317 91.3354 11.5024 91.3354 10.978C91.3354 10.741 90.4391 8.81033 89.2231 8.81033C88.8724 8.81033 88.3774 9.24541 88.3774 9.60668C88.3774 10.201 88.888 12.1356 90.139 12.1356M66.931 10.7526C67.3012 10.7526 67.9833 10.504 67.9833 9.9796C67.9833 9.74653 67.0206 7.45071 65.8086 7.45071C65.4578 7.45071 64.9629 7.88191 64.9629 8.24706C64.9629 8.84141 65.0954 10.7526 66.931 10.7526ZM70.6879 0.213654C70.1891 -0.345732 63.782 -1.06827 58.2636 16.2805C58.2246 16.4009 58.0531 16.3892 58.0297 16.2649C57.1645 11.6578 57.5426 6.43683 57.4334 5.60163C57.1606 3.5117 55.3835 4.17986 55.3835 4.17986C54.5846 5.83859 55.0951 19.2406 56.4319 20.9848C57.2308 21.3266 59.5146 21.2062 60.0017 20.6662C60.0017 20.6662 63.2014 3.72147 70.6879 0.209769M105.038 12.6095C104.874 12.6095 104.777 12.8154 104.777 12.8154C102.84 16.2999 101.086 19.0735 99.5976 19.1862C99.278 19.2056 99.1104 19.0036 99.0481 18.6656L99.0403 18.6928C98.8571 17.3526 100.12 14.0429 100.03 13.1028C99.999 12.7532 99.8197 12.7921 99.5976 12.6522C99.5235 12.7105 99.4456 12.7921 99.3598 12.897C99.3248 12.9397 99.2663 12.9552 99.2156 12.9358C98.3193 12.6095 97.2047 12.3842 96.5343 12.291C97.2203 10.3681 98.6544 6.33194 98.6544 5.97067C98.6544 5.06944 97.9919 4.76255 96.8656 4.45955C95.0573 7.63718 93.9037 11.9646 93.8258 12.2871C93.2412 12.8115 92.3565 12.3298 92.1811 13.3553C92.6215 13.8176 93.4438 14.2022 93.4438 14.5635C93.4438 14.9247 92.8281 16.3776 93.0619 21.1673C93.3815 21.2878 94.6832 19.9048 94.7221 19.4892C95.0846 15.7638 96.0277 14.4275 96.0277 14.4275C96.0277 14.4275 97.5048 14.4741 98.3933 14.2993C98.4206 14.2954 98.4401 14.3226 98.4284 14.3459C98.2179 14.7693 96.9475 17.3759 96.9397 18.5879C96.928 20.1534 97.4424 21.0353 98.748 21.1557C99.0091 21.1868 99.2858 21.1906 99.582 21.1596C100.81 21.0003 102.263 20.3671 103.475 18.9531C103.553 18.8637 103.697 18.9414 103.666 19.058C101.749 25.8677 98.0504 27.5731 96.4954 27.946C96.5499 28.4199 99.239 28.284 101.121 26.699C103.3 24.8655 104.906 22.0608 105.549 19.8582C105.755 19.159 105.954 18.4442 106.106 17.7061C106.379 16.3892 106.542 15.0257 106.566 13.6622C106.57 13.433 105.307 12.6095 105.038 12.6095ZM92.2318 20.2506C92.2084 20.2506 92.185 20.2506 92.1617 20.2506C90.1546 20.2506 92.5124 13.2 89.6869 13.5807C89.2115 13.6467 88.4788 14.0196 88.2371 14.1478C88.1865 14.175 88.1436 14.2177 88.1124 14.2682C87.8708 14.6722 86.6588 16.6379 84.6049 18.821C84.4373 18.9997 84.1334 18.9376 84.0593 18.7006C83.0305 15.3909 87.5629 5.65602 87.6292 5.44236C87.9721 4.3469 86.4678 3.82636 85.7195 3.74478C84.0788 6.05613 81.3235 13.402 81.6002 19.2444C81.6002 19.3221 81.5612 19.3882 81.491 19.4192C81.0273 19.6096 79.3515 20.2195 79.5502 18.8521C79.6009 18.4947 80.3959 16.397 80.3959 16.0357C80.3959 15.8027 79.3943 14.4469 78.6344 14.4469C78.3265 14.4469 75.4776 18.0324 74.5228 18.8637C74.3591 19.0075 74.1058 18.9492 74.0162 18.7511C73.4978 17.6207 74.7488 14.5052 78.3148 13.3243C78.3499 13.3126 79.0943 12.6134 79.2307 12.4191C79.2852 12.3376 79.3008 12.2366 79.2735 12.1395C79.2307 11.9763 79.0163 11.8636 79.0046 11.8598C77.0248 10.9469 72.6093 11.0751 71.8571 10.9702C72.4144 8.44906 74.1448 4.41294 74.1915 4.02059C74.2656 3.41459 73.6693 2.82412 72.4417 2.49393C70.458 5.97456 68.8212 10.5817 68.7354 10.9391C68.4042 11.281 67.9131 11.145 67.6052 12.1123C67.6052 12.5512 68.3184 13.0368 68.3184 13.433C68.3184 13.8293 67.6442 15.9347 67.9014 21.1751C68.8796 21.2334 69.9358 19.6912 70.002 19.2406C70.6256 15.2083 71.2374 13.3282 71.2374 13.3282C72.7729 13.3204 74.0746 13.2194 75.1503 13.0757C75.1892 13.0718 75.2087 13.1184 75.1814 13.1417C73.2874 14.7383 71.483 16.2882 71.5258 19.2794C71.5414 20.4875 72.8275 21.1751 73.568 21.1751C74.8424 21.1751 76.1479 20.0408 76.7676 19.3416C76.8845 19.2095 77.1028 19.2716 77.13 19.4426C77.3171 20.5924 78.2758 21.1751 79.1995 21.1751C80.0491 21.1751 81.3079 20.3749 81.7872 20.1146C81.8301 20.0913 81.8808 20.1029 81.9119 20.1379C82.2315 20.4992 82.8746 21.179 83.4903 21.179C85.3298 21.179 87.1966 18.5102 88.2371 16.8593C88.3268 16.7155 88.5489 16.7505 88.584 16.9175C88.9854 18.6812 88.9659 21.179 90.747 21.179C91.2302 21.179 91.8382 21.0547 92.3682 20.8682C92.7384 20.74 92.6098 20.2078 92.224 20.2428" fill="white"/>
<path d="M0 29.5115H2.01097L3.86995 37.0749H3.96738L5.95497 29.5115H7.78666L9.77815 37.0788H9.86778L11.7268 29.5115H13.7377L10.8226 39.8058H8.97532L6.90979 32.5843H6.82795L4.75462 39.8058H2.90733L0 29.5115Z" fill="white"/>
<path d="M14.8913 29.5115H18.7651C21.1347 29.5115 22.4052 30.8401 22.4052 32.8018C22.4052 34.2003 21.766 35.2336 20.5501 35.7231L22.7832 39.8058H20.6943L18.6677 36.0377H16.762V39.8058H14.8913V29.5115ZM18.4884 34.4877C19.8759 34.4877 20.4994 33.9012 20.4994 32.8057C20.4994 31.7102 19.8759 31.0732 18.4767 31.0732H16.762V34.4916H18.4845L18.4884 34.4877Z" fill="white"/>
<path d="M23.3171 39.8019L26.9532 29.5076H29.2643L32.9043 39.8019H30.9089L30.0515 37.2652H26.1699L25.3164 39.8019H23.321H23.3171ZM29.5449 35.7696L28.1497 31.6248H28.0678L26.6726 35.7696H29.5449Z" fill="white"/>
<path d="M34.1202 29.5115H37.9941C40.3675 29.5115 41.6341 30.9527 41.6341 32.9183C41.6341 34.884 40.3519 36.3252 37.9668 36.3252H35.9909V39.8019H34.1202V29.5076V29.5115ZM37.7135 34.7907C39.1048 34.7907 39.7245 34.0099 39.7245 32.9144C39.7245 31.819 39.1048 31.0654 37.7018 31.0654H35.987V34.7907H37.7096H37.7135Z" fill="white"/>
<path d="M43.1111 29.5115H46.985C49.3584 29.5115 50.625 30.9527 50.625 32.9183C50.625 34.884 49.3428 36.3252 46.9577 36.3252H44.9818V39.8019H43.1111V29.5076V29.5115ZM46.7083 34.7907C48.0996 34.7907 48.7193 34.0099 48.7193 32.9144C48.7193 31.819 48.0996 31.0654 46.6966 31.0654H44.9818V34.7907H46.7044H46.7083Z" fill="white"/>
<path d="M52.106 29.5116H58.8209V31.0732H53.9766V33.8662H58.474V35.4278H53.9766V38.2364H58.8638V39.798H52.106V29.5038V29.5116Z" fill="white"/>
<path d="M60.5902 39.8019V29.5076H64.1601C67.235 29.5076 69.1018 31.4383 69.1018 34.6431C69.1018 37.8479 67.235 39.798 64.0899 39.798H60.5902V39.8019ZM64.0003 38.1898C66.1516 38.1898 67.2467 37.0127 67.2467 34.647C67.2467 32.2813 66.1516 31.1236 64.0548 31.1236H62.4609V38.1898H64.0003Z" fill="white"/>
<path d="M74.0162 38.4578L77.6016 34.9539C78.6188 33.9245 79.1449 33.3107 79.1449 32.4522C79.1449 31.4811 78.4122 30.8828 77.4301 30.8828C76.448 30.8828 75.7348 31.5432 75.7348 32.5921H73.9538C73.9538 30.6381 75.4075 29.3717 77.4535 29.3717C79.4996 29.3717 80.9376 30.6342 80.9376 32.359C80.9376 33.5205 80.3842 34.4567 78.3772 36.3757L76.5961 38.1782V38.2481H81.0935V39.8058H74.0123V38.4578H74.0162Z" fill="white"/>
<path d="M82.5355 34.6664C82.5394 31.3023 84.0321 29.3678 86.5146 29.3678C88.9971 29.3678 90.4937 31.3062 90.4937 34.6664C90.4937 38.0266 89.0049 40.0039 86.5146 40C84.0243 40 82.5355 38.0383 82.5355 34.6664ZM88.6035 34.6664C88.5996 32.2152 87.7968 30.9216 86.5107 30.9216C85.2246 30.9216 84.4296 32.2152 84.4218 34.6664C84.4179 37.1409 85.2246 38.4267 86.5107 38.4267C87.7968 38.4267 88.6035 37.1409 88.6035 34.6664Z" fill="white"/>
<path d="M92.0213 38.4578L95.6068 34.9539C96.624 33.9245 97.1501 33.3107 97.1501 32.4522C97.1501 31.4811 96.4174 30.8828 95.4353 30.8828C94.4532 30.8828 93.74 31.5432 93.74 32.5921H91.959C91.959 30.6381 93.4126 29.3717 95.4587 29.3717C97.5047 29.3717 98.9428 30.6342 98.9428 32.359C98.9428 33.5205 98.3894 34.4567 96.3823 36.3757L94.6013 38.1782V38.2481H99.0987V39.8058H92.0174V38.4578H92.0213Z" fill="white"/>
<path d="M100.728 37.005H102.544C102.61 37.848 103.362 38.4384 104.294 38.4384C105.397 38.4384 106.196 37.6188 106.188 36.4689C106.192 35.3035 105.377 34.4683 104.243 34.4645C103.623 34.4606 102.969 34.717 102.618 35.0976L100.93 34.8218L101.468 29.5154H107.458V31.0732H103.015L102.719 33.8041H102.782C103.164 33.3535 103.908 33.0194 104.742 33.0194C106.617 33.0194 108 34.445 108 36.4262C108 38.4074 106.476 39.9495 104.294 39.9495C102.275 39.9495 100.778 38.7181 100.728 37.0089V37.005Z" fill="white"/>
</g>
<defs>
<clipPath id="clip0_572_746">
<rect width="108" height="40" fill="white"/>
</clipPath>
</defs>
</svg>
