<svg width="135" height="50" viewBox="0 0 135 50" fill="none" xmlns="http://www.w3.org/2000/svg">
<g clip-path="url(#clip0_13_1588)">
<path d="M29.843 26.4301H34.8363V3.95266H29.843V26.4349V26.4301ZM14.863 3.66131C14.863 3.66131 14.7656 3.66131 14.6535 3.66131C14.5415 3.66131 14.4538 3.66131 14.444 3.66131C14.4489 3.66131 14.4538 3.66131 14.4538 3.66131C12.5149 3.67102 11.0681 4.5305 10.0743 6.69132C8.69564 9.68248 2.40161 26.4398 2.40161 26.4398H7.56544C7.56544 26.4398 8.4959 23.7497 9.62123 20.608C11.224 20.9528 12.9339 21.1421 14.7169 21.1324C16.495 21.1227 18.2 20.9236 19.7979 20.5594C20.9475 23.6963 21.9657 26.4349 21.9657 26.4349H27.0759C27.0759 26.4349 20.6504 9.63392 19.2474 6.65733C18.2438 4.51107 16.7873 3.65645 14.8581 3.66131M14.6876 16.8253C13.3187 16.8253 12.1934 16.6602 11.1509 16.3495C12.4029 12.8727 13.5331 9.72618 13.6743 9.33772C14.0154 8.41512 14.2687 8.10921 14.6681 8.10435C15.0676 8.10435 15.3112 8.41027 15.6668 9.33286C15.8129 9.71647 16.9675 12.8533 18.239 16.3252C17.1867 16.6408 16.0565 16.8156 14.6828 16.8253M54.4491 6.65247C53.4456 4.50622 51.989 3.6516 50.0598 3.65646C50.0452 3.6516 49.9624 3.65646 49.8504 3.65646C49.7383 3.65646 49.6506 3.65646 49.6409 3.65646C49.6458 3.65646 49.6506 3.65646 49.6506 3.65646C47.7166 3.66617 46.2649 4.52564 45.2711 6.68646C43.8925 9.67763 37.5985 26.4349 37.5985 26.4349H42.7623C42.7623 26.4349 43.6927 23.7448 44.8229 20.6031C46.4257 20.9479 48.1356 21.1373 49.9186 21.1276C51.6967 21.1178 53.4017 20.9188 54.9996 20.5546C56.1493 23.6914 57.1674 26.4301 57.1674 26.4301H62.2777C62.2777 26.4301 55.8472 9.62907 54.4491 6.65247ZM49.8845 16.8253C48.5156 16.8253 47.3902 16.6602 46.3477 16.3495C47.5997 12.8727 48.7299 9.72618 48.8712 9.33772C49.2122 8.41512 49.4655 8.10921 49.8699 8.10435C50.2693 8.10435 50.5178 8.41027 50.8685 9.33286C51.0195 9.71647 52.1692 12.8533 53.4456 16.3252C52.3933 16.6408 51.2631 16.8156 49.8893 16.8253" fill="#D31145"/>
<path d="M83.0498 17.2527C83.0498 17.7043 81.6858 23.1573 81.6858 23.6089C81.6858 24.0605 81.905 24.2062 81.905 24.2062C81.905 24.2062 82.2022 25.9202 79.971 26.4689C79.971 26.4689 78.0322 26.4155 78.1247 24.4829C78.3001 22.8417 78.5632 17.981 81.2035 14.9947C81.9976 15.1113 83.0547 15.9902 83.0547 17.2527M112.674 15.1647C113.136 15.1647 114.169 14.378 114.169 13.7225C114.169 13.4263 113.049 11.013 111.529 11.013C111.09 11.013 110.472 11.5568 110.472 12.0084C110.472 12.7514 111.11 15.1695 112.674 15.1695M83.6637 13.4409C84.1265 13.4409 84.979 13.1301 84.979 12.4746C84.979 12.1832 83.7757 9.31347 82.2607 9.31347C81.8222 9.31347 81.2035 9.85246 81.2035 10.3089C81.2035 11.0518 81.3692 13.4409 83.6637 13.4409ZM88.3598 0.267144C87.7363 -0.432089 79.7275 -1.33526 72.8294 20.3507C72.7807 20.5012 72.5663 20.4866 72.5371 20.3312C71.4556 14.5723 71.9281 8.04611 71.7917 7.00212C71.4507 4.3897 69.2293 5.2249 69.2293 5.2249C68.2306 7.29832 68.8688 24.0508 70.5397 26.231C71.5384 26.6583 74.3931 26.5078 75.0021 25.8328C75.0021 25.8328 79.0016 4.65192 88.3598 0.262288M131.298 15.7619C131.093 15.7619 130.971 16.0193 130.971 16.0193C128.55 20.3749 126.358 23.842 124.497 23.9828C124.097 24.0071 123.888 23.7546 123.81 23.3321L123.8 23.3661C123.571 21.6909 125.15 17.5537 125.038 16.3786C124.999 15.9416 124.775 15.9902 124.497 15.8154C124.404 15.8882 124.307 15.9902 124.2 16.1213C124.156 16.1747 124.083 16.1941 124.019 16.1698C122.899 15.7619 121.506 15.4803 120.668 15.3638C121.525 12.9602 123.318 7.915 123.318 7.46341C123.318 6.33687 122.49 5.95327 121.082 5.57451C118.822 9.54655 117.38 14.9559 117.282 15.3589C116.551 16.0144 115.446 15.4123 115.226 16.6943C115.777 17.2721 116.805 17.7528 116.805 18.2044C116.805 18.656 116.035 20.4721 116.327 26.4592C116.727 26.6098 118.354 24.8811 118.403 24.3615C118.856 19.7048 120.035 18.0345 120.035 18.0345C120.035 18.0345 121.881 18.0927 122.992 17.8742C123.026 17.8694 123.05 17.9033 123.035 17.9325C122.772 18.4618 121.184 21.72 121.174 23.235C121.16 25.1919 121.803 26.2941 123.435 26.4447C123.761 26.4835 124.107 26.4884 124.477 26.4495C126.012 26.2504 127.829 25.4589 129.344 23.6914C129.441 23.5798 129.622 23.6769 129.583 23.8225C127.186 32.3347 122.563 34.4664 120.619 34.9326C120.687 35.525 124.049 35.355 126.402 33.3739C129.125 31.0819 131.132 27.5761 131.936 24.8228C132.194 23.9488 132.442 23.0553 132.632 22.1327C132.973 20.4866 133.178 18.7822 133.207 17.0779C133.212 16.7914 131.634 15.7619 131.298 15.7619ZM115.29 25.3133C115.26 25.3133 115.231 25.3133 115.202 25.3133C112.693 25.3133 115.64 16.5 112.109 16.9759C111.514 17.0584 110.598 17.5246 110.296 17.6848C110.233 17.7188 110.179 17.7722 110.14 17.8354C109.838 18.3404 108.323 20.7974 105.756 23.5263C105.547 23.7497 105.167 23.672 105.074 23.3758C103.788 19.2387 109.454 7.0701 109.536 6.80303C109.965 5.4337 108.085 4.78302 107.149 4.68105C105.098 7.57024 101.654 16.7525 102 24.0556C102 24.1527 101.951 24.2353 101.864 24.2741C101.284 24.5121 99.1892 25.2744 99.4377 23.5652C99.501 23.1185 100.495 20.4963 100.495 20.0447C100.495 19.7534 99.2428 18.0587 98.2929 18.0587C97.908 18.0587 94.3469 22.5406 93.1534 23.5798C92.9488 23.7594 92.6322 23.6866 92.5201 23.4389C91.8722 22.0259 93.436 18.1316 97.8934 16.6554C97.9373 16.6408 98.8677 15.7668 99.0382 15.524C99.1064 15.422 99.1259 15.2958 99.0918 15.1744C99.0382 14.9705 98.7703 14.8296 98.7557 14.8248C96.2809 13.6837 90.7615 13.8439 89.8213 13.7128C90.5179 10.5614 92.6809 5.51625 92.7393 5.02581C92.8319 4.26831 92.0866 3.53023 90.552 3.11749C88.0724 7.46827 86.0264 13.2272 85.9192 13.674C85.5051 14.1013 84.8913 13.9313 84.5064 15.1404C84.5064 15.6891 85.3979 16.2961 85.3979 16.7914C85.3979 17.2867 84.5552 19.9185 84.8767 26.4689C86.0994 26.5418 87.4196 24.614 87.5024 24.0508C88.2819 19.0105 89.0467 16.6603 89.0467 16.6603C90.9661 16.6506 92.5932 16.5243 93.9377 16.3446C93.9865 16.3398 94.0108 16.3981 93.9767 16.4272C91.6091 18.4229 89.3536 20.3604 89.4072 24.0993C89.4267 25.6095 91.0343 26.4689 91.9599 26.4689C93.5529 26.4689 95.1848 25.0511 95.9594 24.177C96.1056 24.0119 96.3784 24.0896 96.4125 24.3033C96.6463 25.7406 97.8447 26.4689 98.9993 26.4689C100.061 26.4689 101.635 25.4687 102.234 25.1433C102.288 25.1142 102.351 25.1288 102.39 25.1725C102.789 25.624 103.593 26.4738 104.363 26.4738C106.662 26.4738 108.996 23.1379 110.296 21.0742C110.408 20.8945 110.686 20.9382 110.73 21.147C111.232 23.3515 111.207 26.4738 113.434 26.4738C114.038 26.4738 114.798 26.3184 115.46 26.0853C115.923 25.9251 115.762 25.2599 115.28 25.3036" fill="#D31145"/>
<path d="M0 36.8894H2.51371L4.83744 46.3436H4.95922L7.44371 36.8894H9.73333L12.2227 46.3485H12.3347L14.6585 36.8894H17.1722L13.5283 49.7572H11.2191L8.63723 40.7303H8.53493L5.94327 49.7572H3.63417L0 36.8894Z" fill="#333D47"/>
<path d="M18.6141 36.8894H23.4564C26.4183 36.8894 28.0065 38.5501 28.0065 41.0023C28.0065 42.7503 27.2075 44.042 25.6876 44.6538L28.479 49.7572H25.8679L23.3347 45.0471H20.9525V49.7572H18.6141V36.8894ZM23.1106 43.1097C24.8448 43.1097 25.6243 42.3764 25.6243 41.0071C25.6243 39.6378 24.8448 38.8414 23.0959 38.8414H20.9525V43.1145H23.1057L23.1106 43.1097Z" fill="#333D47"/>
<path d="M29.1464 49.7523L33.6915 36.8845H36.5803L41.1303 49.7523H38.6361L37.5644 46.5815H32.7123L31.6455 49.7523H29.1512H29.1464ZM36.9311 44.712L35.1871 39.5309H35.0848L33.3408 44.712H36.9311Z" fill="#333D47"/>
<path d="M42.6503 36.8894H47.4926C50.4593 36.8894 52.0426 38.6909 52.0426 41.1479C52.0426 43.6049 50.4399 45.4064 47.4585 45.4064H44.9886V49.7523H42.6503V36.8845V36.8894ZM47.1418 43.4884C48.881 43.4884 49.6555 42.5124 49.6555 41.143C49.6555 39.7737 48.881 38.8317 47.1272 38.8317H44.9837V43.4884H47.137H47.1418Z" fill="#333D47"/>
<path d="M53.8889 36.8894H58.7312C61.698 36.8894 63.2812 38.6909 63.2812 41.1479C63.2812 43.6049 61.6785 45.4064 58.6971 45.4064H56.2273V49.7523H53.8889V36.8845V36.8894ZM58.3853 43.4884C60.1245 43.4884 60.8991 42.5124 60.8991 41.143C60.8991 39.7737 60.1245 38.8317 58.3707 38.8317H56.2273V43.4884H58.3805H58.3853Z" fill="#333D47"/>
<path d="M65.1324 36.8894H73.5261V38.8414H67.4708V42.3327H73.0925V44.2847H67.4708V47.7954H73.5797V49.7475H65.1324V36.8796V36.8894Z" fill="#333D47"/>
<path d="M75.7378 49.7523V36.8845H80.2001C84.0438 36.8845 86.3772 39.2978 86.3772 43.3039C86.3772 47.3099 84.0438 49.7475 80.1124 49.7475H75.7378V49.7523ZM80.0004 47.7372C82.6895 47.7372 84.0584 46.2659 84.0584 43.3087C84.0584 40.3516 82.6895 38.9045 80.0686 38.9045H78.0761V47.7372H80.0004Z" fill="#333D47"/>
<path d="M92.5202 48.0723L97.002 43.6924C98.2735 42.4056 98.9312 41.6384 98.9312 40.5652C98.9312 39.3513 98.0153 38.6035 96.7877 38.6035C95.56 38.6035 94.6686 39.429 94.6686 40.74H92.4423C92.4423 38.2976 94.2593 36.7146 96.8169 36.7146C99.3745 36.7146 101.172 38.2927 101.172 40.4487C101.172 41.9006 100.48 43.0708 97.9715 45.4696L95.7452 47.7227V47.8101H101.367V49.7572H92.5153V48.0723H92.5202Z" fill="#333D47"/>
<path d="M103.169 43.333C103.174 39.1279 105.04 36.7097 108.143 36.7097C111.246 36.7097 113.117 39.1328 113.117 43.333C113.117 47.5333 111.256 50.0049 108.143 50C105.03 50 103.169 47.5478 103.169 43.333ZM110.754 43.333C110.75 40.269 109.746 38.652 108.138 38.652C106.531 38.652 105.537 40.269 105.527 43.333C105.522 46.4261 106.531 48.0334 108.138 48.0334C109.746 48.0334 110.754 46.4261 110.754 43.333Z" fill="#333D47"/>
<path d="M115.027 48.0723L119.508 43.6924C120.78 42.4056 121.438 41.6384 121.438 40.5652C121.438 39.3513 120.522 38.6035 119.294 38.6035C118.067 38.6035 117.175 39.429 117.175 40.74H114.949C114.949 38.2976 116.766 36.7146 119.323 36.7146C121.881 36.7146 123.679 38.2927 123.679 40.4487C123.679 41.9006 122.987 43.0708 120.478 45.4696L118.252 47.7227V47.8101H123.873V49.7572H115.022V48.0723H115.027Z" fill="#333D47"/>
<path d="M125.91 46.2562H128.18C128.263 47.3099 129.203 48.048 130.367 48.048C131.746 48.048 132.744 47.0234 132.735 45.5861C132.74 44.1294 131.721 43.0854 130.304 43.0806C129.529 43.0757 128.711 43.3962 128.272 43.872L126.163 43.5273L126.835 36.8943H134.323V38.8415H128.769L128.399 42.2551H128.477C128.954 41.6918 129.885 41.2742 130.927 41.2742C133.271 41.2742 135 43.0563 135 45.5327C135 48.0092 133.095 49.9369 130.367 49.9369C127.844 49.9369 125.973 48.3976 125.91 46.2611V46.2562Z" fill="#333D47"/>
</g>
<defs>
<clipPath id="clip0_13_1588">
<rect width="135" height="50" fill="white"/>
</clipPath>
</defs>
</svg>
