<svg width="260" height="99" viewBox="0 0 260 99" fill="none" xmlns="http://www.w3.org/2000/svg">
<path d="M54.5 52.7306H64.4V7.93056H54.5V52.7306ZM24.7 7.33057C24.7 7.33057 24.5 7.33057 24.3 7.33057C24.1 7.33057 23.9 7.33057 23.9 7.33057C20.1 7.33057 17.2 9.03057 15.2 13.3306C12.5 19.3306 0 52.6306 0 52.6306H10.3C10.3 52.6306 12.1 47.2306 14.4 41.0306C17.6 41.7306 21 42.1306 24.5 42.0306C28 42.0306 31.4 41.6306 34.6 40.9306C36.9 47.2306 38.9 52.6306 38.9 52.6306H49C49 52.6306 36.2 19.1306 33.5 13.2306C31.5 9.03056 28.6 7.33057 24.7 7.33057ZM24.4 33.5306C21.7 33.5306 19.4 33.2306 17.4 32.6306C19.9 25.7306 22.1 19.4306 22.4 18.6306C23.1 16.8306 23.6 16.2306 24.4 16.1306C25.2 16.1306 25.7 16.7306 26.4 18.5306C26.7 19.3306 29 25.5306 31.5 32.4306C29.4 33.2306 27.1 33.5306 24.4 33.5306ZM103.3 13.3306C101.3 9.03057 98.4 7.33057 94.6 7.33057C94.6 7.33057 94.4 7.33057 94.2 7.33057C94 7.33057 93.8 7.33057 93.8 7.33057C90 7.33057 87.1 9.03057 85.1 13.3306C82.4 19.3306 69.9 52.6306 69.9 52.6306H80.2C80.2 52.6306 82.1 47.2306 84.3 41.0306C87.5 41.7306 90.9 42.1306 94.4 42.0306C97.9 42.0306 101.3 41.6306 104.5 40.9306C106.8 47.2306 108.8 52.6306 108.8 52.6306H118.9C118.9 52.7306 106.1 19.2306 103.3 13.3306ZM94.3 33.5306C91.6 33.5306 89.4 33.2306 87.3 32.6306C89.8 25.7306 92 19.4306 92.3 18.6306C93 16.8306 93.5 16.2306 94.3 16.1306C95.1 16.1306 95.6 16.7306 96.3 18.5306C96.6 19.3306 98.9 25.5306 101.4 32.4306C99.3 33.2306 97 33.5306 94.3 33.5306Z" fill="#D31145"/>
<path d="M160.101 34.4306C160.101 35.3306 157.401 46.2306 157.401 47.1306C157.401 48.0306 157.801 48.3306 157.801 48.3306C157.801 48.3306 158.401 51.7306 154.001 52.8306C154.001 52.8306 150.101 52.7306 150.301 48.8306C150.701 45.5306 151.201 35.8306 156.401 29.9306C158.001 30.1306 160.101 31.9306 160.101 34.4306ZM219.001 30.2306C219.901 30.2306 222.001 28.6306 222.001 27.3306C222.001 26.7306 219.801 21.9306 216.801 21.9306C215.901 21.9306 214.701 23.0306 214.701 23.9306C214.601 25.4306 215.901 30.2306 219.001 30.2306ZM161.401 26.8306C162.301 26.8306 164.001 26.2306 164.001 24.9306C164.001 24.3306 161.601 18.6306 158.601 18.6306C157.701 18.6306 156.501 19.7306 156.501 20.6306C156.501 22.0306 156.801 26.8306 161.401 26.8306ZM170.701 0.530617C169.501 -0.869383 153.601 -2.66938 139.901 40.5306C139.801 40.8306 139.401 40.8306 139.301 40.5306C137.101 29.0306 138.101 16.0306 137.801 13.9306C137.101 8.73061 132.701 10.4306 132.701 10.4306C130.701 14.5306 132.001 47.9306 135.301 52.3306C137.301 53.1306 143.001 52.9306 144.201 51.5306C144.201 51.5306 152.101 9.33062 170.701 0.530617ZM256.001 31.4306C255.601 31.4306 255.401 31.9306 255.401 31.9306C250.601 40.6306 246.201 47.5306 242.501 47.8306C241.701 47.8306 241.301 47.3306 241.101 46.5306V46.6306C240.601 43.3306 243.801 35.0306 243.601 32.7306C243.501 31.8306 243.101 31.9306 242.501 31.6306C242.301 31.7306 242.101 32.0306 241.901 32.2306C241.801 32.3306 241.701 32.3306 241.501 32.3306C239.301 31.5306 236.501 30.9306 234.801 30.7306C236.501 25.9306 240.101 15.9306 240.101 15.0306C240.101 12.8306 238.501 12.0306 235.701 11.2306C231.201 19.1306 228.401 29.9306 228.201 30.7306C226.701 32.0306 224.601 30.8306 224.101 33.4306C225.201 34.6306 227.201 35.5306 227.201 36.4306C227.201 37.3306 225.701 40.9306 226.301 52.8306C227.101 53.1306 230.301 49.7306 230.401 48.6306C231.301 39.3306 233.601 36.0306 233.601 36.0306C233.601 36.0306 237.301 36.1306 239.501 35.7306C239.601 35.7306 239.601 35.8306 239.601 35.8306C239.101 36.9306 235.901 43.3306 235.901 46.4306C235.901 50.3306 237.101 52.5306 240.401 52.8306C241.001 52.9306 241.701 52.9306 242.501 52.8306C245.501 52.4306 249.201 50.8306 252.201 47.3306C252.401 47.1306 252.801 47.3306 252.701 47.6306C247.901 64.6306 238.801 68.8306 234.901 69.7306C235.001 70.9306 241.701 70.5306 246.401 66.6306C251.801 62.0306 255.801 55.0306 257.401 49.6306C257.901 47.9306 258.401 46.1306 258.801 44.2306C259.501 40.9306 259.901 37.5306 259.901 34.1306C259.801 33.5306 256.601 31.4306 256.001 31.4306ZM224.201 50.4306C224.101 50.4306 224.101 50.4306 224.001 50.4306C219.001 50.4306 224.901 32.8306 217.901 33.8306C216.701 34.0306 214.901 34.9306 214.301 35.2306C214.201 35.3306 214.101 35.4306 214.001 35.5306C213.401 36.5306 210.401 41.4306 205.301 46.8306C204.901 47.2306 204.101 47.1306 203.901 46.5306C201.301 38.3306 212.601 14.0306 212.801 13.5306C213.601 10.8306 209.901 9.53062 208.101 9.33062C204.001 15.1306 197.201 33.3306 197.901 47.9306C197.901 48.1306 197.801 48.3306 197.601 48.3306C196.401 48.8306 192.301 50.3306 192.801 46.9306C192.901 46.0306 194.901 40.8306 194.901 39.9306C194.901 39.3306 192.401 35.9306 190.501 35.9306C189.701 35.9306 182.701 44.8306 180.301 46.9306C179.901 47.3306 179.301 47.1306 179.001 46.6306C177.701 43.8306 180.801 36.0306 189.701 33.1306C189.801 33.1306 191.601 31.3306 192.001 30.9306C192.101 30.7306 192.201 30.4306 192.101 30.2306C192.001 29.8306 191.501 29.5306 191.401 29.5306C186.501 27.2306 175.501 27.5306 173.701 27.3306C175.101 21.0306 179.401 11.0306 179.501 10.0306C179.701 8.53062 178.201 7.03061 175.201 6.23061C170.301 14.9306 166.201 26.3306 166.001 27.2306C165.201 28.1306 164.001 27.7306 163.201 30.1306C163.201 31.2306 165.001 32.4306 165.001 33.4306C165.001 34.4306 163.301 39.6306 164.001 52.7306C166.401 52.8306 169.001 49.0306 169.201 47.9306C170.701 37.9306 172.301 33.2306 172.301 33.2306C176.101 33.2306 179.301 32.9306 182.001 32.6306C182.101 32.6306 182.101 32.7306 182.101 32.8306C177.401 36.8306 172.901 40.6306 173.001 48.1306C173.001 51.1306 176.201 52.8306 178.101 52.8306C181.301 52.8306 184.501 50.0306 186.001 48.2306C186.301 47.9306 186.801 48.0306 186.901 48.5306C187.401 51.4306 189.701 52.8306 192.001 52.8306C194.101 52.8306 197.201 50.8306 198.401 50.2306C198.501 50.1306 198.601 50.2306 198.701 50.3306C199.501 51.2306 201.101 52.9306 202.601 52.9306C207.201 52.9306 211.801 46.3306 214.401 42.1306C214.601 41.7306 215.201 41.8306 215.301 42.2306C216.301 46.6306 216.201 52.8306 220.701 52.8306C221.901 52.8306 223.401 52.5306 224.701 52.0306C225.401 51.7306 225.101 50.4306 224.201 50.4306Z" fill="#D31145"/>
<path d="M21.6951 89.9733L14.4617 64.3437H19.455L24.0728 83.1779H24.3106L29.2413 64.3437H33.784L38.7273 83.1904H38.9525L43.5704 64.3437H48.5636L41.3303 89.9733H36.75L31.619 71.99H31.4188L26.2754 89.9733H21.6951ZM51.783 89.9733V64.3437H61.3941C63.363 64.3437 65.0149 64.6857 66.3498 65.3699C67.693 66.054 68.7067 67.0134 69.3908 68.2482C70.0833 69.4746 70.4295 70.9054 70.4295 72.5406C70.4295 74.1842 70.0791 75.6108 69.3783 76.8206C68.6858 78.022 67.6638 78.9522 66.3122 79.6113C64.9607 80.2621 63.3004 80.5874 61.3315 80.5874H54.4861V76.733H60.7058C61.8571 76.733 62.7998 76.5745 63.534 76.2574C64.2682 75.932 64.8105 75.4607 65.1609 74.8433C65.5197 74.2176 65.699 73.45 65.699 72.5406C65.699 71.6312 65.5197 70.8554 65.1609 70.2129C64.8022 69.5622 64.2557 69.07 63.5215 68.7362C62.7873 68.3942 61.8404 68.2231 60.6807 68.2231H56.4258V89.9733H51.783ZM65.0233 78.3599L71.3681 89.9733H66.1871L59.9549 78.3599H65.0233ZM77.9945 89.9733H73.0388L82.0617 64.3437H87.7933L96.8287 89.9733H91.873L85.0276 69.5997H84.8274L77.9945 89.9733ZM78.1572 79.9242H91.6728V83.6535H78.1572V79.9242ZM100.205 89.9733V64.3437H109.816C111.785 64.3437 113.436 64.7108 114.771 65.4449C116.115 66.1791 117.128 67.1886 117.812 68.4734C118.505 69.7499 118.851 71.2016 118.851 72.8285C118.851 74.472 118.505 75.932 117.812 77.2085C117.12 78.485 116.098 79.4903 114.746 80.2245C113.395 80.9503 111.73 81.3133 109.753 81.3133H103.383V77.4964H109.127C110.279 77.4964 111.221 77.2961 111.956 76.8957C112.69 76.4952 113.232 75.9446 113.582 75.2438C113.941 74.5429 114.121 73.7378 114.121 72.8285C114.121 71.9191 113.941 71.1182 113.582 70.4257C113.232 69.7332 112.686 69.1951 111.943 68.8113C111.209 68.4192 110.262 68.2231 109.102 68.2231H104.847V89.9733H100.205ZM122.884 89.9733V64.3437H132.495C134.464 64.3437 136.116 64.7108 137.451 65.4449C138.794 66.1791 139.808 67.1886 140.492 68.4734C141.184 69.7499 141.53 71.2016 141.53 72.8285C141.53 74.472 141.184 75.932 140.492 77.2085C139.799 78.485 138.777 79.4903 137.426 80.2245C136.074 80.9503 134.41 81.3133 132.432 81.3133H126.062V77.4964H131.807C132.958 77.4964 133.901 77.2961 134.635 76.8957C135.369 76.4952 135.911 75.9446 136.262 75.2438C136.621 74.5429 136.8 73.7378 136.8 72.8285C136.8 71.9191 136.621 71.1182 136.262 70.4257C135.911 69.7332 135.365 69.1951 134.622 68.8113C133.888 68.4192 132.941 68.2231 131.782 68.2231H127.527V89.9733H122.884ZM145.563 89.9733V64.3437H162.232V68.2357H150.206V75.1937H161.369V79.0857H150.206V86.0813H162.333V89.9733H145.563ZM175.654 89.9733H166.969V64.3437H175.829C178.374 64.3437 180.56 64.8568 182.387 65.8829C184.222 66.9008 185.632 68.365 186.617 70.2755C187.601 72.1861 188.094 74.472 188.094 77.1334C188.094 79.8032 187.597 82.0975 186.604 84.0164C185.62 85.9353 184.197 87.4078 182.337 88.434C180.485 89.4602 178.257 89.9733 175.654 89.9733ZM171.612 85.9561H175.429C177.214 85.9561 178.703 85.6308 179.897 84.98C181.09 84.3209 181.986 83.3406 182.587 82.0391C183.188 80.7293 183.488 79.094 183.488 77.1334C183.488 75.1728 183.188 73.546 182.587 72.2528C181.986 70.9513 181.098 69.9793 179.922 69.3369C178.754 68.6862 177.302 68.3608 175.567 68.3608H171.612V85.9561Z" fill="#D31145"/>
</svg>
