<svg width="108" height="40" viewBox="0 0 108 40" fill="none" xmlns="http://www.w3.org/2000/svg">
<g clip-path="url(#clip0_572_765)">
<path d="M23.8745 21.1441H27.8691V3.16215H23.8745V21.148V21.1441ZM11.8905 2.92907C11.8905 2.92907 11.8126 2.92907 11.7229 2.92907C11.6333 2.92907 11.5631 2.92907 11.5553 2.92907C11.5592 2.92907 11.5631 2.92907 11.5631 2.92907C10.012 2.93684 8.85456 3.62442 8.05952 5.35308C6.95661 7.74601 1.92139 21.1519 1.92139 21.1519H6.05245C6.05245 21.1519 6.79682 18.9998 7.69708 16.4864C8.97927 16.7622 10.3472 16.9137 11.7736 16.906C13.1961 16.8982 14.5601 16.7389 15.8384 16.4476C16.7581 18.957 17.5727 21.148 17.5727 21.148H21.6609C21.6609 21.148 16.5204 7.70716 15.398 5.32589C14.5952 3.60888 13.4299 2.92519 11.8866 2.92907M11.7502 13.4603C10.6551 13.4603 9.75482 13.3282 8.92081 13.0796C9.9224 10.2982 10.8266 7.78097 10.9396 7.4702C11.2124 6.73212 11.415 6.48739 11.7346 6.48351C12.0542 6.48351 12.249 6.72824 12.5335 7.46632C12.6505 7.7732 13.5741 10.2827 14.5913 13.0602C13.7495 13.3127 12.8453 13.4525 11.7463 13.4603M43.5594 5.322C42.7565 3.605 41.5913 2.9213 40.048 2.92519C40.0363 2.9213 39.97 2.92519 39.8804 2.92519C39.7908 2.92519 39.7206 2.92519 39.7128 2.92519C39.7167 2.92519 39.7206 2.92519 39.7206 2.92519C38.1734 2.93296 37.012 3.62054 36.217 5.3492C35.1141 7.74213 30.0789 21.148 30.0789 21.148H34.2099C34.2099 21.148 34.9543 18.9959 35.8585 16.4825C37.1406 16.7583 38.5086 16.9098 39.935 16.9021C41.3574 16.8943 42.7215 16.735 43.9998 16.4437C44.9195 18.9532 45.734 21.1441 45.734 21.1441H49.8222C49.8222 21.1441 44.6779 7.70328 43.5594 5.322ZM39.9077 13.4603C38.8126 13.4603 37.9123 13.3282 37.0783 13.0796C38.0799 10.2982 38.984 7.78097 39.0971 7.4702C39.3699 6.73212 39.5725 6.48739 39.896 6.48351C40.2156 6.48351 40.4143 6.72824 40.6949 7.46632C40.8157 7.7732 41.7355 10.2827 42.7565 13.0602C41.9147 13.3127 41.0106 13.4525 39.9116 13.4603" fill="white"/>
<path d="M66.44 13.8021C66.44 14.1634 65.3488 18.5258 65.3488 18.8871C65.3488 19.2484 65.5241 19.3649 65.5241 19.3649C65.5241 19.3649 65.7619 20.7362 63.9769 21.1752C63.9769 21.1752 62.4258 21.1324 62.4999 19.5863C62.6402 18.2733 62.8506 14.3848 64.9629 11.9958C65.5982 12.089 66.4439 12.7921 66.4439 13.8021M90.139 12.1317C90.5093 12.1317 91.3355 11.5024 91.3355 10.978C91.3355 10.7411 90.4391 8.81039 89.2232 8.81039C88.8724 8.81039 88.3775 9.24547 88.3775 9.60674C88.3775 10.2011 88.888 12.1356 90.139 12.1356M66.931 10.7527C67.3013 10.7527 67.9833 10.5041 67.9833 9.97967C67.9833 9.74659 67.0207 7.45077 65.8086 7.45077C65.4579 7.45077 64.9629 7.88197 64.9629 8.24712C64.9629 8.84147 65.0954 10.7527 66.931 10.7527ZM70.688 0.213715C70.1891 -0.345671 63.7821 -1.06821 58.2636 16.2805C58.2246 16.401 58.0531 16.3893 58.0298 16.265C57.1646 11.6578 57.5426 6.43689 57.4335 5.60169C57.1607 3.51176 55.3835 4.17992 55.3835 4.17992C54.5846 5.83865 55.0951 19.2406 56.4319 20.9848C57.2308 21.3267 59.5146 21.2062 60.0018 20.6663C60.0018 20.6663 63.2014 3.72153 70.688 0.20983M105.038 12.6096C104.874 12.6096 104.777 12.8154 104.777 12.8154C102.84 16.3 101.086 19.0736 99.5976 19.1862C99.278 19.2057 99.1104 19.0037 99.0481 18.6657L99.0403 18.6929C98.8571 17.3527 100.12 14.043 100.03 13.1029C99.999 12.7533 99.8197 12.7921 99.5976 12.6523C99.5236 12.7106 99.4456 12.7921 99.3599 12.897C99.3248 12.9398 99.2663 12.9553 99.2157 12.9359C98.3193 12.6096 97.2047 12.3842 96.5344 12.291C97.2203 10.3681 98.6545 6.332 98.6545 5.97073C98.6545 5.0695 97.9919 4.76261 96.8656 4.45961C95.0573 7.63724 93.9037 11.9647 93.8258 12.2871C93.2412 12.8116 92.3565 12.3299 92.1812 13.3554C92.6216 13.8177 93.4439 14.2023 93.4439 14.5635C93.4439 14.9248 92.8281 16.3776 93.0619 21.1674C93.3815 21.2878 94.6832 19.9049 94.7222 19.4892C95.0846 15.7639 96.0277 14.4276 96.0277 14.4276C96.0277 14.4276 97.5048 14.4742 98.3934 14.2994C98.4206 14.2955 98.4401 14.3227 98.4284 14.346C98.218 14.7694 96.9475 17.376 96.9397 18.588C96.928 20.1535 97.4424 21.0353 98.748 21.1557C99.0091 21.1868 99.2858 21.1907 99.582 21.1596C100.81 21.0004 102.263 20.3672 103.475 18.9532C103.553 18.8638 103.697 18.9415 103.666 19.058C101.749 25.8678 98.0504 27.5731 96.4954 27.9461C96.55 28.42 99.2391 28.284 101.121 26.6991C103.3 24.8656 104.906 22.0609 105.549 19.8583C105.755 19.159 105.954 18.4443 106.106 17.7062C106.379 16.3893 106.542 15.0258 106.566 13.6623C106.57 13.4331 105.307 12.6096 105.038 12.6096ZM92.2318 20.2506C92.2085 20.2506 92.1851 20.2506 92.1617 20.2506C90.1546 20.2506 92.5124 13.2 89.687 13.5807C89.2115 13.6468 88.4788 14.0197 88.2372 14.1479C88.1865 14.1751 88.1436 14.2178 88.1125 14.2683C87.8708 14.6723 86.6588 16.6379 84.605 18.8211C84.4374 18.9998 84.1334 18.9376 84.0593 18.7007C83.0305 15.391 87.563 5.65608 87.6292 5.44242C87.9722 4.34696 86.4678 3.82642 85.7196 3.74484C84.0788 6.05619 81.3235 13.402 81.6002 19.2445C81.6002 19.3222 81.5612 19.3882 81.4911 19.4193C81.0273 19.6097 79.3515 20.2195 79.5503 18.8522C79.6009 18.4948 80.396 16.3971 80.396 16.0358C80.396 15.8027 79.3944 14.447 78.6344 14.447C78.3265 14.447 75.4777 18.0325 74.5228 18.8638C74.3591 19.0075 74.1058 18.9493 74.0162 18.7512C73.4979 17.6207 74.7489 14.5053 78.3148 13.3243C78.3499 13.3127 79.0943 12.6134 79.2307 12.4192C79.2852 12.3376 79.3008 12.2366 79.2736 12.1395C79.2307 11.9764 79.0163 11.8637 79.0046 11.8598C77.0249 10.9469 72.6093 11.0751 71.8571 10.9702C72.4144 8.44912 74.1448 4.413 74.1916 4.02065C74.2656 3.41465 73.6693 2.82418 72.4417 2.49399C70.458 5.97462 68.8212 10.5818 68.7354 10.9392C68.4042 11.281 67.9131 11.1451 67.6053 12.1123C67.6053 12.5513 68.3184 13.0369 68.3184 13.4331C68.3184 13.8293 67.6442 15.9348 67.9014 21.1752C68.8796 21.2334 69.9358 19.6912 70.002 19.2406C70.6256 15.2084 71.2375 13.3282 71.2375 13.3282C72.773 13.3204 74.0746 13.2194 75.1503 13.0757C75.1893 13.0718 75.2087 13.1184 75.1815 13.1418C73.2874 14.7383 71.483 16.2883 71.5259 19.2795C71.5415 20.4876 72.8275 21.1752 73.568 21.1752C74.8424 21.1752 76.148 20.0408 76.7676 19.3416C76.8846 19.2095 77.1028 19.2717 77.1301 19.4426C77.3171 20.5925 78.2759 21.1752 79.1995 21.1752C80.0491 21.1752 81.3079 20.3749 81.7873 20.1147C81.8301 20.0913 81.8808 20.103 81.912 20.138C82.2315 20.4992 82.8746 21.179 83.4904 21.179C85.3298 21.179 87.1966 18.5103 88.2372 16.8593C88.3268 16.7156 88.549 16.7506 88.584 16.9176C88.9854 18.6812 88.966 21.179 90.747 21.179C91.2303 21.179 91.8382 21.0547 92.3682 20.8683C92.7385 20.7401 92.6099 20.2079 92.224 20.2428" fill="white"/>
<path d="M0 29.5115H2.01097L3.86995 37.0748H3.96738L5.95497 29.5115H7.78666L9.77815 37.0787H9.86778L11.7268 29.5115H13.7377L10.8226 39.8057H8.97532L6.90979 32.5842H6.82795L4.75462 39.8057H2.90733L0 29.5115Z" fill="white"/>
<path d="M14.8914 29.5115H18.7652C21.1347 29.5115 22.4052 30.84 22.4052 32.8018C22.4052 34.2002 21.7661 35.2335 20.5501 35.723L22.7832 39.8057H20.6943L18.6678 36.0376H16.762V39.8057H14.8914V29.5115ZM18.4885 34.4877C19.8759 34.4877 20.4995 33.9011 20.4995 32.8056C20.4995 31.7102 19.8759 31.0731 18.4768 31.0731H16.762V34.4916H18.4846L18.4885 34.4877Z" fill="white"/>
<path d="M23.3171 39.802L26.9533 29.5077H29.2643L32.9043 39.802H30.9089L30.0515 37.2653H26.1699L25.3164 39.802H23.321H23.3171ZM29.5449 35.7697L28.1497 31.6248H28.0679L26.6727 35.7697H29.5449Z" fill="white"/>
<path d="M34.1202 29.5116H37.9941C40.3675 29.5116 41.6341 30.9528 41.6341 32.9184C41.6341 34.884 40.3519 36.3252 37.9668 36.3252H35.9909V39.802H34.1202V29.5077V29.5116ZM37.7135 34.7908C39.1048 34.7908 39.7245 34.01 39.7245 32.9145C39.7245 31.819 39.1048 31.0654 37.7018 31.0654H35.987V34.7908H37.7096H37.7135Z" fill="white"/>
<path d="M43.1112 29.5116H46.985C49.3585 29.5116 50.6251 30.9528 50.6251 32.9184C50.6251 34.884 49.3429 36.3252 46.9578 36.3252H44.9819V39.802H43.1112V29.5077V29.5116ZM46.7083 34.7908C48.0997 34.7908 48.7193 34.01 48.7193 32.9145C48.7193 31.819 48.0997 31.0654 46.6967 31.0654H44.9819V34.7908H46.7044H46.7083Z" fill="white"/>
<path d="M52.106 29.5116H58.8209V31.0732H53.9766V33.8662H58.474V35.4278H53.9766V38.2364H58.8638V39.798H52.106V29.5038V29.5116Z" fill="white"/>
<path d="M60.5902 39.802V29.5077H64.1601C67.235 29.5077 69.1018 31.4384 69.1018 34.6432C69.1018 37.848 67.235 39.7981 64.0899 39.7981H60.5902V39.802ZM64.0003 38.1898C66.1516 38.1898 67.2467 37.0128 67.2467 34.6471C67.2467 32.2813 66.1516 31.1237 64.0548 31.1237H62.4609V38.1898H64.0003Z" fill="white"/>
<path d="M74.0162 38.4578L77.6017 34.9539C78.6188 33.9245 79.145 33.3107 79.145 32.4522C79.145 31.4811 78.4123 30.8828 77.4302 30.8828C76.4481 30.8828 75.7349 31.5432 75.7349 32.5921H73.9539C73.9539 30.6381 75.4075 29.3717 77.4536 29.3717C79.4996 29.3717 80.9377 30.6342 80.9377 32.359C80.9377 33.5205 80.3843 34.4567 78.3772 36.3757L76.5962 38.1782V38.2481H81.0936V39.8058H74.0123V38.4578H74.0162Z" fill="white"/>
<path d="M82.5355 34.6664C82.5394 31.3023 84.0321 29.3678 86.5146 29.3678C88.9971 29.3678 90.4937 31.3062 90.4937 34.6664C90.4937 38.0266 89.0049 40.0039 86.5146 40C84.0243 40 82.5355 38.0383 82.5355 34.6664ZM88.6035 34.6664C88.5996 32.2152 87.7968 30.9216 86.5107 30.9216C85.2246 30.9216 84.4296 32.2152 84.4218 34.6664C84.4179 37.1409 85.2246 38.4267 86.5107 38.4267C87.7968 38.4267 88.6035 37.1409 88.6035 34.6664Z" fill="white"/>
<path d="M92.0213 38.4578L95.6068 34.9539C96.624 33.9245 97.1501 33.3107 97.1501 32.4522C97.1501 31.4811 96.4174 30.8828 95.4353 30.8828C94.4532 30.8828 93.74 31.5432 93.74 32.5921H91.959C91.959 30.6381 93.4126 29.3717 95.4587 29.3717C97.5047 29.3717 98.9428 30.6342 98.9428 32.359C98.9428 33.5205 98.3894 34.4567 96.3823 36.3757L94.6013 38.1782V38.2481H99.0987V39.8058H92.0174V38.4578H92.0213Z" fill="white"/>
<path d="M100.728 37.0049H102.544C102.61 37.8479 103.362 38.4384 104.294 38.4384C105.397 38.4384 106.196 37.6187 106.188 36.4689C106.192 35.3035 105.377 34.4683 104.243 34.4644C103.623 34.4605 102.969 34.7169 102.618 35.0976L100.93 34.8218L101.468 29.5154H107.458V31.0731H103.015L102.719 33.804H102.782C103.164 33.3534 103.908 33.0193 104.742 33.0193C106.617 33.0193 108 34.445 108 36.4261C108 38.4073 106.476 39.9495 104.294 39.9495C102.275 39.9495 100.778 38.7181 100.728 37.0088V37.0049Z" fill="white"/>
</g>
<defs>
<clipPath id="clip0_572_765">
<rect width="108" height="40" fill="white"/>
</clipPath>
</defs>
</svg>
