<svg width="15" height="15" viewBox="0 0 15 15" fill="none" xmlns="http://www.w3.org/2000/svg">
<g clip-path="url(#clip0_169_139)">
<path d="M11.7925 5.66287C11.6487 5.66287 11.4701 5.58707 11.3611 5.48005L7.46512 1.49373L3.56913 5.48005C3.31637 5.73868 2.95466 5.73868 2.7019 5.48005C2.44914 5.22143 2.44914 4.85134 2.7019 4.59272L7.03368 0.164953C7.25158 -0.0579955 7.64815 -0.0579955 7.90091 0.164953L12.2283 4.59272C12.4811 4.85134 12.4811 5.22143 12.2283 5.48005C12.1194 5.59153 11.9407 5.66287 11.7969 5.66287H11.7925Z" fill="white"/>
<path d="M7.46518 12.0838C7.14269 12.0838 6.85071 11.8252 6.85071 11.4551V0.646538C6.85071 0.316574 7.10347 0.0178223 7.46518 0.0178223C7.82688 0.0178223 8.07964 0.276443 8.07964 0.646538V11.4596C8.07964 11.7895 7.82688 12.0883 7.46518 12.0883V12.0838Z" fill="white"/>
<path d="M12.0802 15H2.91981C1.29866 15 0 13.6713 0 12.0125V9.20782C0 8.87785 0.25276 8.5791 0.614468 8.5791C0.976177 8.5791 1.22894 8.83772 1.22894 9.20782V12.0125C1.22894 12.9712 1.98722 13.7471 2.92417 13.7471H12.0845C13.0215 13.7471 13.7798 12.9712 13.7798 12.0125V9.20782C13.7798 8.87785 14.0325 8.5791 14.3942 8.5791C14.756 8.5791 15.0087 8.83772 15.0087 9.20782V12.0125C15.0087 13.6713 13.7101 15 12.0889 15H12.0802Z" fill="white"/>
</g>
<defs>
<clipPath id="clip0_169_139">
<rect width="15" height="15" fill="white"/>
</clipPath>
</defs>
</svg>
