<svg width="298" height="153" viewBox="0 0 298 153" fill="none" xmlns="http://www.w3.org/2000/svg">
<path d="M267.752 -1.70798e-06L0 16.8924L4.76076 92.3524L272.512 75.4599L267.752 -1.70798e-06Z" fill="white"/>
<path d="M293.239 60.5469L25.4875 77.4393L30.2483 152.899L298 136.007L293.239 60.5469Z" fill="white"/>
<path d="M51.2188 61.8813C48.9474 64.6812 45.8529 66.9002 41.7539 67.1584C34.4636 67.6183 29.3157 61.962 28.6701 51.7104C28.0408 41.7089 33.0596 35.3385 39.8981 34.9068C43.5089 34.6809 46.3008 36.1454 48.9514 38.32L54.4383 30.711C50.8638 27.4834 45.4777 24.7763 39.0307 25.1837C26.427 25.9785 16.0907 36.2664 17.1356 52.8158C18.1967 69.6153 29.3116 77.7166 41.9597 76.9177C48.4148 76.5103 53.7686 73.6579 57.6054 68.5825L51.2148 61.8772L51.2188 61.8813Z" fill="#B71D37"/>
<path d="M69.4263 24.1872L56.9114 75.0538L68.4419 74.3276L70.7738 62.2525L85.9797 61.2922L89.8004 72.9801L101.734 72.2257L82.9216 23.336L69.4303 24.1872H69.4263ZM72.4925 53.3443L73.4002 48.6523C74.4734 43.5769 75.4336 37.6583 76.3091 32.3167L76.6157 32.2965C78.2779 37.4163 79.9805 43.2299 81.683 48.1278L83.1677 52.6666L72.4965 53.3403L72.4925 53.3443Z" fill="#B71D37"/>
<path d="M139.283 35.3748C138.533 23.5175 129.633 20.3908 119.05 21.0565L101.089 22.1902L104.236 72.0683L115.512 71.3582L114.378 53.4089L120.579 53.0175L131.234 70.3658L143.854 69.571L131.311 50.3346C136.487 47.5912 139.747 42.7095 139.283 35.3748ZM113.814 44.4524L112.93 30.4285L118.699 30.0654C124.63 29.6902 127.922 31.1386 128.233 36.0687C128.543 40.9746 125.518 43.7141 119.587 44.0893L113.818 44.4524H113.814Z" fill="#B71D37"/>
<path d="M159.802 18.4825L145.702 19.3741L148.849 69.2523L163.579 68.3244C178.183 67.4045 187.491 58.7707 186.41 41.6283C185.328 24.4858 175.032 17.5264 159.802 18.4866V18.4825ZM161.695 59.3275L159.556 59.4606L157.555 27.7416L159.693 27.6085C168.154 27.0759 174.105 30.4286 174.859 42.3585C175.613 54.2884 170.159 58.7949 161.699 59.3315L161.695 59.3275Z" fill="#B71D37"/>
<path d="M203.277 15.7466L191.999 16.4582L195.146 66.338L206.424 65.6264L203.277 15.7466Z" fill="#B71D37"/>
<path d="M257.247 37.154C256.222 20.9193 246.427 12.0919 232.976 12.9432C219.525 13.7904 210.911 23.7192 211.94 40.0145C212.969 56.3097 222.789 65.5083 236.24 64.657C249.691 63.8097 258.276 53.4492 257.247 37.154ZM235.626 54.9218C228.82 55.3495 224.128 49.2857 223.499 39.2842C222.869 29.2828 226.787 23.11 233.593 22.6783C240.399 22.2507 245.063 27.8828 245.696 37.8843C246.326 47.8857 242.437 54.4901 235.63 54.9218H235.626Z" fill="#B71D37"/>
<path d="M41.855 131.859L49.1614 125.674C51.223 128.987 53.8777 130.383 56.4234 130.221C60.4539 129.967 62.5034 127.768 62.0838 121.115L60.0424 88.767L71.3187 88.0569L73.4207 121.341C74.0258 130.939 69.5476 139.17 58.5254 139.864C50.9003 140.344 45.6958 137.681 41.855 131.859Z" fill="#B71D37"/>
<path d="M81.9495 114.257L80.259 87.492L91.5354 86.782L93.2984 114.7C93.9157 124.468 97.2038 127.647 102.788 127.296C108.395 126.941 111.413 123.363 110.796 113.595L109.033 85.6765L119.906 84.9907L121.596 111.755C122.653 128.502 116.307 136.216 103.405 137.031C90.5025 137.846 83.0105 131.004 81.9535 114.257H81.9495Z" fill="#B71D37"/>
<path d="M129.133 84.4058L140.687 83.6755L155.268 107.66L160.892 118.307L161.199 118.287C160.335 113.046 158.984 106.115 158.612 100.233L157.499 82.6104L168.243 81.9326L171.39 131.811L159.835 132.541L145.25 108.492L139.63 97.9091L139.324 97.9293C140.203 103.396 141.535 110.021 141.906 115.903L143.023 133.606L132.279 134.284L129.133 84.4058Z" fill="#B71D37"/>
<path d="M177.728 81.3395L189.004 80.6295L190.291 101.008L190.57 100.991L204.15 79.6733L216.544 78.8906L202.709 99.7488L222.462 128.591L210.096 129.37L196.641 109.064L191.304 117.137L192.147 130.504L180.871 131.214L177.724 81.3355L177.728 81.3395Z" fill="#B71D37"/>
<path d="M222.418 78.5194L233.694 77.8093L236.841 127.687L225.565 128.398L222.418 78.5194Z" fill="#B71D37"/>
<path d="M243.155 77.2082L274.406 75.2354L275.003 84.6922L255.028 85.955L255.662 95.9685L272.667 94.8953L273.264 104.352L256.259 105.425L256.985 116.915L277.726 115.604L278.323 125.061L246.306 127.082L243.159 77.2042L243.155 77.2082Z" fill="#B71D37"/>
</svg>
