<svg width="703" height="429" viewBox="0 0 703 429" fill="none" xmlns="http://www.w3.org/2000/svg">
<path d="M688.833 178.826L80 217.261L93.3103 428.106L702.143 389.671L688.833 178.826Z" fill="white"/>
<path d="M166.901 337.63L162.01 259.736L189.3 258.022L194.191 335.916C194.668 343.505 193.34 350.19 190.206 355.971C187.125 361.748 182.717 366.356 176.984 369.795C171.3 373.179 164.793 375.101 157.464 375.561C149.874 376.038 143.037 375.189 136.951 373.014C130.917 370.836 126.044 367.202 122.333 362.112C118.673 357.019 116.585 350.366 116.069 342.153L143.515 340.429C143.757 344.276 144.388 347.263 145.409 349.391C146.426 351.466 147.821 352.892 149.591 353.668C151.411 354.389 153.594 354.669 156.141 354.509C158.636 354.352 160.703 353.597 162.34 352.241C164.025 350.831 165.261 348.901 166.046 346.451C166.829 343.949 167.114 341.008 166.901 337.63ZM268.285 253.062L295.653 251.343L300.309 325.494C300.864 334.331 299.489 341.932 296.184 348.298C292.875 354.611 287.992 359.536 281.534 363.073C275.076 366.61 267.351 368.66 258.359 369.225C249.47 369.783 241.549 368.715 234.595 366.021C227.694 363.323 222.155 359.052 217.978 353.209C213.851 347.31 211.509 339.943 210.954 331.106L206.297 256.955L233.743 255.231L238.4 329.382C238.694 334.06 239.61 337.839 241.147 340.717C242.681 343.543 244.791 345.55 247.475 346.738C250.158 347.926 253.346 348.405 257.036 348.173C260.779 347.938 263.881 347.065 266.344 345.553C268.806 344.042 270.595 341.79 271.712 338.797C272.825 335.753 273.235 331.891 272.941 327.213L268.285 253.062ZM407.698 244.307L414.827 357.833L387.537 359.547L342.945 291.427L347.382 362.069L320.014 363.788L312.884 250.261L340.252 248.542L384.844 316.663L380.408 246.021L407.698 244.307ZM452.375 241.501L459.505 355.027L432.137 356.746L425.007 243.22L452.375 241.501ZM520.132 237.246L479.77 297.55L455.807 327.314L449.24 302.521L464.125 276.536L486.371 239.366L520.132 237.246ZM494.904 352.804L462.374 303.496L482.676 286.487L527.262 350.772L494.904 352.804ZM556.233 234.979L563.363 348.505L536.073 350.219L528.943 236.692L556.233 234.979ZM659.427 321.337L660.749 342.389L600.243 346.189L598.921 325.136L659.427 321.337ZM602.86 232.05L609.99 345.577L582.622 347.295L575.492 233.769L602.86 232.05ZM648.652 274.42L649.93 294.77L597.222 298.08L595.944 277.73L648.652 274.42ZM653.853 228.848L655.18 249.978L594.44 253.793L593.113 232.662L653.853 228.848Z" fill="#B71D37"/>
<path d="M649.383 -5.42086e-05L0 40.9946L13.3103 251.839L662.693 210.844L649.383 -5.42086e-05Z" fill="white"/>
<path d="M114.14 156.304L141.43 154.591C141.562 162.514 139.869 169.614 136.349 175.888C132.829 182.163 127.718 187.207 121.017 191.02C114.364 194.777 106.36 196.95 97.0033 197.538C89.4141 198.014 82.5506 197.167 76.4128 194.995C70.327 192.82 65.0547 189.472 60.5959 184.951C56.1891 180.427 52.6803 174.828 50.0694 168.156C47.5106 161.48 45.9634 153.88 45.4281 145.355L45.0412 139.195C44.5059 130.671 45.1419 122.933 46.9495 115.983C48.8057 108.978 51.6629 102.954 55.5211 97.9106C59.4279 92.8119 64.2383 88.8046 69.9522 85.8887C75.6661 82.9727 82.1097 81.2895 89.2831 80.839C99.1594 80.2187 107.613 81.4621 114.645 84.5692C121.676 87.6763 127.258 92.2051 131.389 98.1558C135.517 104.055 138.165 110.907 139.334 118.714L112.044 120.428C111.672 116.172 110.721 112.657 109.189 109.883C107.655 107.057 105.387 105.007 102.384 103.735C99.3822 102.462 95.4639 101.978 90.6296 102.281C87.2509 102.493 84.3531 103.302 81.9364 104.706C79.5197 106.11 77.5645 108.216 76.0708 111.023C74.5772 113.831 73.55 117.418 72.9893 121.785C72.4772 126.096 72.4106 131.267 72.7892 137.296L73.1859 143.612C73.5646 149.642 74.2516 154.765 75.247 158.982C76.2425 163.198 77.6307 166.608 79.4119 169.21C81.1931 171.811 83.398 173.682 86.0267 174.822C88.7041 175.906 91.9141 176.331 95.6567 176.096C99.8152 175.834 103.283 174.964 106.06 173.485C108.834 171.954 110.916 169.788 112.306 166.987C113.692 164.134 114.304 160.573 114.14 156.304ZM199.265 99.5292L177.216 190.935L147.821 192.781L182.406 76.6346L201.041 75.4643L199.265 99.5292ZM227.819 187.757L194.43 99.8328L189.345 76.1988L208.214 75.0138L257.293 185.906L227.819 187.757ZM224.069 145.487L225.396 166.617L167.151 170.275L165.824 149.145L224.069 145.487ZM258.506 71.8554L303.183 69.0496C311.916 68.5012 319.587 69.3241 326.196 71.5183C332.805 73.7126 338.011 77.2474 341.813 82.1228C345.668 86.995 347.83 93.1737 348.3 100.659C348.708 107.157 348.036 112.652 346.283 117.146C344.53 121.64 341.924 125.43 338.465 128.518C335.054 131.55 331.015 134.126 326.347 136.246L317.699 141.877L280.194 144.232L278.711 123.112L306.469 121.368C309.952 121.15 312.798 120.345 315.006 118.954C317.215 117.562 318.82 115.687 319.82 113.328C320.868 110.914 321.291 108.096 321.089 104.873C320.883 101.598 320.109 98.8285 318.767 96.5645C317.424 94.3004 315.544 92.6181 313.127 91.5174C310.761 90.4135 307.889 89.9677 304.51 90.1799L287.201 91.2669L293.003 183.663L265.635 185.382L258.506 71.8554ZM327.779 181.479L299.518 132.842L328.514 130.865L357.022 178.468L357.096 179.638L327.779 181.479ZM406.686 176.524L381.501 178.105L380.335 157.043L405.364 155.471C410.562 155.145 414.876 153.622 418.306 150.901C421.788 148.178 424.309 144.288 425.87 139.232C427.48 134.121 428.057 127.927 427.6 120.65L427.291 115.738C426.948 110.28 426.102 105.532 424.753 101.494C423.452 97.4005 421.676 94.0417 419.423 91.4173C417.168 88.7409 414.437 86.7989 411.23 85.5913C408.075 84.3804 404.496 83.9006 400.493 84.152L375.231 85.7385L373.903 64.6083L399.166 63.0218C406.859 62.5386 413.986 63.4218 420.546 65.6713C427.155 67.8655 432.952 71.2589 437.937 75.8513C442.971 80.3884 446.97 85.9038 449.935 92.3974C452.949 98.8358 454.709 106.083 455.215 114.141L455.514 118.897C456.016 126.902 455.177 134.313 452.996 141.13C450.867 147.943 447.615 153.914 443.24 159.042C438.865 164.17 433.564 168.26 427.337 171.313C421.159 174.31 414.275 176.047 406.686 176.524ZM390.044 63.5947L397.173 177.121L369.805 178.84L362.676 65.3134L390.044 63.5947ZM495.149 56.9939L502.279 170.52L474.989 172.234L467.859 58.7078L495.149 56.9939ZM613.892 104.254L614.18 108.854C614.726 117.535 613.994 125.409 611.985 132.476C610.025 139.487 606.989 145.575 602.877 150.739C598.762 155.85 593.772 159.895 587.905 162.873C582.035 165.798 575.462 167.49 568.184 167.947C560.855 168.407 554.07 167.555 547.828 165.39C541.635 163.169 536.151 159.782 531.377 155.229C526.652 150.62 522.853 144.962 519.979 138.254C517.153 131.49 515.468 123.768 514.923 115.088L514.634 110.487C514.089 101.806 514.795 93.9342 516.752 86.8705C518.761 79.8036 521.796 73.716 525.859 68.6075C529.971 63.4438 534.961 59.3991 540.831 56.4734C546.75 53.4924 553.374 51.7717 560.703 51.3115C567.98 50.8544 574.715 51.7361 580.909 53.9565C587.15 56.1216 592.634 59.5085 597.359 64.1172C602.081 68.674 605.881 74.3324 608.758 81.0924C611.635 87.8524 613.346 95.5729 613.892 104.254ZM586.423 110.597L586.124 105.841C585.771 100.227 584.967 95.3198 583.712 91.1194C582.505 86.8638 580.875 83.3392 578.821 80.5458C576.767 77.7524 574.317 75.7145 571.47 74.432C568.673 73.0944 565.532 72.5349 562.05 72.7536C558.411 72.9821 555.287 73.935 552.679 75.6122C550.067 77.2374 547.943 79.5626 546.307 82.5878C544.67 85.613 543.52 89.3121 542.855 93.6853C542.239 98.0032 542.107 102.969 542.46 108.583L542.759 113.339C543.108 118.901 543.86 123.812 545.014 128.071C546.218 132.274 547.822 135.801 549.828 138.649C551.885 141.495 554.313 143.586 557.11 144.924C559.96 146.258 563.204 146.811 566.843 146.583C570.325 146.364 573.371 145.416 575.979 143.739C578.588 142.062 580.708 139.684 582.342 136.607C584.027 133.527 585.204 129.826 585.872 125.505C586.588 121.128 586.772 116.159 586.423 110.597Z" fill="#B71D37"/>
</svg>
