<svg width="611" height="414" viewBox="0 0 611 414" fill="none" xmlns="http://www.w3.org/2000/svg">
<path d="M398.69 -5.53904e-05L0 25.1687L13.3103 236.013L412 210.844L398.69 -5.53904e-05Z" fill="white"/>
<path d="M125.68 157.21L127.002 178.262L69.6154 181.866L68.2933 160.814L125.68 157.21ZM72.2322 67.7275L79.3618 181.254L51.9938 182.973L44.8642 69.4462L72.2322 67.7275ZM225.906 112.794L226.195 117.394C226.74 126.075 226.008 133.949 223.999 141.015C222.039 148.027 219.003 154.115 214.892 159.278C210.777 164.39 205.786 168.435 199.919 171.413C194.05 174.338 187.476 176.03 180.199 176.487C172.869 176.947 166.084 176.095 159.842 173.929C153.649 171.709 148.166 168.322 143.392 163.769C138.667 159.16 134.867 153.502 131.993 146.794C129.168 140.03 127.482 132.308 126.937 123.627L126.648 119.027C126.103 110.346 126.809 102.474 128.766 95.4104C130.775 88.3435 133.811 82.2558 137.874 77.1474C141.985 71.9837 146.976 67.939 152.846 65.0132C158.764 62.0322 165.388 60.3116 172.717 59.8513C179.995 59.3943 186.73 60.276 192.923 62.4963C199.165 64.6614 204.648 68.0484 209.373 72.6571C214.095 77.2138 217.895 82.8722 220.772 89.6323C223.649 96.3923 225.361 104.113 225.906 112.794ZM198.437 119.137L198.138 114.381C197.786 108.767 196.982 103.86 195.726 99.6593C194.52 95.4036 192.889 91.8791 190.835 89.0857C188.781 86.2923 186.331 84.2544 183.485 82.9719C180.687 81.6342 177.547 81.0747 174.064 81.2934C170.425 81.522 167.302 82.4748 164.693 84.152C162.082 85.7772 159.958 88.1024 158.321 91.1276C156.685 94.1528 155.534 97.852 154.869 102.225C154.253 106.543 154.122 111.509 154.474 117.123L154.773 121.879C155.122 127.441 155.874 132.352 157.029 136.611C158.232 140.814 159.837 144.34 161.842 147.189C163.899 150.034 166.327 152.126 169.125 153.464C171.974 154.798 175.218 155.351 178.857 155.123C182.34 154.904 185.385 153.956 187.994 152.279C190.602 150.601 192.723 148.224 194.356 145.147C196.041 142.067 197.218 138.366 197.886 134.045C198.603 129.668 198.786 124.699 198.437 119.137ZM269.355 158.989L285.484 54.335L298.973 53.4879L306.856 61.8383L289.339 168.067L274.446 169.002L269.355 158.989ZM256.868 56.1321L282.504 158.946L278.189 168.767L260.957 169.849L229.734 57.8361L256.868 56.1321ZM325.198 155.717L337.647 51.0591L364.703 49.3599L347.739 164.399L330.586 165.477L325.198 155.717ZM308.719 52.8758L338.399 155.279L334.328 165.242L319.436 166.177L288.211 62.8527L295.308 53.718L308.719 52.8758Z" fill="#F96B7D"/>
<path d="M596.817 174L144 202.585L157.31 413.43L610.128 384.844L596.817 174Z" fill="white"/>
<path d="M260.184 288.16L261.507 309.212L203.262 312.87L201.94 291.818L260.184 288.16ZM208.232 246.177L215.362 359.704L187.994 361.422L180.864 247.896L208.232 246.177ZM275.755 241.937L282.885 355.463L255.595 357.177L248.465 243.65L275.755 241.937ZM377.078 328.412L378.4 349.465L317.894 353.264L316.572 332.212L377.078 328.412ZM320.511 239.126L327.641 352.652L300.273 354.371L293.143 240.845L320.511 239.126ZM366.304 281.495L367.582 301.846L314.873 305.156L313.595 284.805L366.304 281.495ZM371.504 235.923L372.831 257.054L312.092 260.868L310.765 239.738L371.504 235.923ZM432.105 256.071L410.056 347.476L380.661 349.323L415.246 233.176L433.881 232.006L432.105 256.071ZM460.66 344.298L427.271 256.375L422.186 232.741L441.055 231.556L490.133 342.448L460.66 344.298ZM456.909 302.029L458.236 323.159L399.992 326.817L398.665 305.686L456.909 302.029ZM536.96 225.533L544.089 339.059L516.721 340.778L509.592 227.251L536.96 225.533ZM571.111 223.388L572.438 244.518L477.547 250.477L476.22 229.347L571.111 223.388Z" fill="#F96B7D"/>
</svg>
