<svg width="299" height="169" viewBox="0 0 299 169" fill="none" xmlns="http://www.w3.org/2000/svg">
<path d="M191.84 2.02975e-06L0 12.1032L5.32291 96.4735L197.163 84.3703L191.84 2.02975e-06Z" fill="white"/>
<path d="M292.985 70.534L79.666 83.9922L84.9889 168.363L298.308 154.904L292.985 70.534Z" fill="white"/>
<path d="M20.0225 23.8995L32.6303 23.1055L35.4812 68.2999L57.4942 66.9105L58.1618 77.484L23.5409 79.6718L20.0225 23.904V23.8995Z" fill="#FF667A"/>
<path d="M57.8009 49.2639C56.6506 31.0445 66.2813 19.9433 81.3205 18.996C96.3597 18.0487 107.312 27.914 108.458 46.0657C109.608 64.2851 100.009 75.869 84.9698 76.8163C69.9306 77.7635 58.9512 67.4833 57.8009 49.2639ZM95.5388 46.8822C94.8351 35.6997 89.616 29.4026 82.0062 29.8807C74.3964 30.3589 70.0163 37.265 70.72 48.4474C71.4237 59.6299 76.6743 66.4097 84.2796 65.9315C91.8895 65.4534 96.2425 58.0646 95.5343 46.8822H95.5388Z" fill="#FF667A"/>
<path d="M109.053 18.279L121.973 17.4625L127.48 43.2647C128.585 49.0972 129.763 54.9252 130.868 60.7578L131.211 60.7352C131.928 54.7899 132.668 48.7679 133.421 42.8903L137.774 16.4656L148.469 15.789L156.111 41.4603C157.586 47.0583 159.083 53.0036 160.577 58.8858L160.919 58.8632C161.28 52.8683 161.677 46.8688 162.052 41.0859L164.271 14.7921L176.315 14.0298L169.932 70.4246L154.081 71.426L147.03 46.4403C145.871 42.1866 144.847 37.7659 143.977 33.634L143.634 33.6565C143.223 37.8652 142.799 42.3805 142.186 46.747L138.5 72.4093L122.933 73.3927L109.058 18.279H109.053Z" fill="#FF667A"/>
<path d="M100.934 95.221L113.542 94.4271L114.899 115.917L134.152 114.703L132.794 93.2136L145.402 92.4197L148.92 148.188L136.313 148.981L134.842 125.701L115.59 126.914L117.06 150.195L104.452 150.989L100.934 95.221Z" fill="#FF667A"/>
<path d="M156.034 91.7429L190.975 89.5371L191.643 100.111L169.31 101.522L170.018 112.718L189.031 111.519L189.699 122.092L170.685 123.292L171.497 136.139L194.688 134.673L195.355 145.246L159.557 147.506L156.039 91.7384L156.034 91.7429Z" fill="#FF667A"/>
<path d="M210.733 88.292L225.817 87.3403L246.851 142.003L233.508 142.846L224.428 115.064C222.524 109.588 220.62 103.088 218.762 97.3634L218.419 97.3859C217.44 103.358 216.367 109.976 215.167 115.65L209.623 144.358L196.731 145.17L210.724 88.2966L210.733 88.292ZM206.831 121.352L233.661 119.661L234.279 129.458L207.449 131.15L206.831 121.352Z" fill="#FF667A"/>
<path d="M252.147 96.2946L236.797 97.2644L236.129 86.691L279.438 83.9574L280.105 94.5308L264.755 95.5007L267.606 140.695L254.998 141.489L252.147 96.2946Z" fill="#FF667A"/>
</svg>
