<svg width="315" height="101" viewBox="0 0 315 101" fill="none" xmlns="http://www.w3.org/2000/svg">
<path d="M309.896 -4.62602e-06L0 19.5513L5.10379 100.448L315 80.8971L309.896 -4.62602e-06Z" fill="white"/>
<path d="M40.8893 28.5051C26.4691 29.4133 17.2349 40.0576 18.3378 57.5269C19.4408 74.9963 29.9682 84.8576 44.3883 83.945C58.8084 83.0367 68.0124 71.9297 66.9095 54.4604C65.8109 37.0559 55.3094 27.5924 40.8893 28.5051ZM43.7309 73.5084C36.4343 73.9669 31.4042 67.4662 30.7294 56.7441C30.0547 46.022 34.2544 39.4045 41.551 38.9417C48.8476 38.4832 53.8475 44.5211 54.5265 55.2432C55.2012 65.9653 51.0318 73.0499 43.7352 73.5084H43.7309Z" fill="#FC3C5D"/>
<path d="M103.263 25.5553L104.456 44.4476C104.854 50.7494 106.303 58.18 107.229 63.8027L106.9 63.8243L100.871 52.4102L85.2396 26.6971L72.8523 27.48L76.2259 80.952L87.7438 80.2254L86.5458 61.2465C86.1479 54.9448 84.7205 47.8429 83.7777 41.9779L84.1064 41.9563L90.1313 53.3012L105.767 79.0835L118.154 78.3007L114.78 24.8286L103.263 25.5553Z" fill="#FC3C5D"/>
<path d="M144.127 51.5306L123.973 52.8021L124.512 61.3489L144.666 60.0774L144.127 51.5306Z" fill="#FC3C5D"/>
<path d="M182.154 20.5771L148.404 22.7051L151.782 76.1771L163.871 75.4159L162.556 54.6161L181.059 53.4483L180.419 43.3101L161.916 44.4779L161.133 32.082L182.794 30.7153L182.154 20.5771Z" fill="#FC3C5D"/>
<path d="M201.025 19.3907L188.934 20.1535L192.308 73.6274L204.398 72.8646L201.025 19.3907Z" fill="#FC3C5D"/>
<path d="M252.113 32.8778C251.309 20.1661 241.767 16.8141 230.422 17.5278L211.167 18.7431L214.54 72.2152L226.629 71.4539L225.414 52.2113L232.062 51.7917L243.484 70.3899L257.014 69.5379L243.567 48.9155C249.116 45.9744 252.611 40.7409 252.113 32.8778ZM224.808 42.6137L223.861 27.5794L230.046 27.1902C236.404 26.7879 239.933 28.3407 240.266 33.626C240.6 38.8854 237.356 41.8222 230.998 42.2245L224.813 42.6137H224.808Z" fill="#FC3C5D"/>
<path d="M296.052 56.8911L273.817 58.2968L273.043 45.9744L291.273 44.8239L290.633 34.6857L272.402 35.8362L271.723 25.1012L293.137 23.7474L292.497 13.6092L258.994 15.7242L262.368 69.1962L296.693 67.0293L296.052 56.8911Z" fill="#FC3C5D"/>
</svg>
