<svg width="712" height="255" viewBox="0 0 712 255" fill="none" xmlns="http://www.w3.org/2000/svg">
<path d="M698.157 -3.14211e-05L0 44.0737L13.3103 254.918L711.468 210.845L698.157 -3.14211e-05Z" fill="white"/>
<path d="M144.348 136.821L144.637 141.421C145.182 150.102 144.45 157.976 142.441 165.042C140.481 172.054 137.445 178.142 133.333 183.305C129.219 188.417 124.228 192.462 118.361 195.44C112.492 198.365 105.918 200.057 98.6407 200.514C91.3114 200.974 84.5259 200.122 78.2841 197.956C72.0911 195.736 66.6076 192.349 61.8337 187.796C57.1084 183.187 53.3088 177.529 50.4348 170.821C47.6095 164.057 45.9243 156.335 45.3791 147.654L45.0902 143.054C44.545 134.373 45.2509 126.501 47.2079 119.437C49.2168 112.37 52.2527 106.283 56.3155 101.174C60.427 96.0107 65.4177 91.966 71.2875 89.0402C77.206 86.0592 83.83 84.3386 91.1593 83.8783C98.4366 83.4213 105.172 84.3029 111.365 86.5233C117.607 88.6884 123.09 92.0754 127.815 96.6841C132.537 101.241 136.337 106.899 139.214 113.659C142.091 120.419 143.803 128.14 144.348 136.821ZM116.879 143.164L116.58 138.408C116.228 132.794 115.424 127.887 114.168 123.686C112.962 119.431 111.331 115.906 109.277 113.113C107.223 110.319 104.773 108.281 101.926 106.999C99.1288 105.661 95.9886 105.102 92.5059 105.32C88.8672 105.549 85.7437 106.502 83.1354 108.179C80.5238 109.804 78.3997 112.129 76.7632 115.155C75.1266 118.18 73.976 121.879 73.3113 126.252C72.6953 130.57 72.5636 135.536 72.9162 141.15L73.2149 145.906C73.5642 151.468 74.3161 156.379 75.4708 160.638C76.6741 164.841 78.2785 168.367 80.2839 171.216C82.3413 174.061 84.7688 176.153 87.5665 177.491C90.4162 178.825 93.6603 179.378 97.299 179.15C100.782 178.931 103.827 177.983 106.436 176.306C109.044 174.628 111.165 172.251 112.798 169.174C114.483 166.094 115.66 162.393 116.328 158.072C117.044 153.695 117.228 148.726 116.879 143.164ZM249.929 75.4729L257.059 188.999L229.769 190.713L185.177 122.593L189.613 193.235L162.245 194.954L155.116 81.4273L182.484 79.7086L227.075 147.829L222.639 77.1868L249.929 75.4729ZM320.714 125.666L321.992 146.017L275.131 148.96L273.853 128.609L320.714 125.666ZM366.496 68.1523L373.626 181.679L346.258 183.397L339.128 69.8711L366.496 68.1523ZM413.595 112.631L414.918 133.684L362.989 136.945L361.666 115.893L413.595 112.631ZM415.072 65.1017L416.399 86.2319L360.026 89.7723L358.699 68.642L415.072 65.1017ZM455.54 62.5603L462.669 176.087L435.379 177.8L428.25 64.2741L455.54 62.5603ZM474.798 61.3508L519.476 58.545C528.209 57.9966 535.88 58.8195 542.489 61.0137C549.097 63.208 554.303 66.7428 558.106 71.6182C561.96 76.4904 564.123 82.6691 564.593 90.1543C565.001 96.6519 564.328 102.148 562.575 106.641C560.822 111.135 558.216 114.926 554.757 118.013C551.347 121.045 547.308 123.621 542.64 125.741L533.991 131.372L496.487 133.727L495.004 112.607L522.762 110.864C526.244 110.645 529.09 109.84 531.299 108.449C533.508 107.058 535.112 105.183 536.112 102.824C537.161 100.409 537.584 97.591 537.382 94.3681C537.176 91.0934 536.402 88.3239 535.059 86.0599C533.717 83.7958 531.837 82.1135 529.419 81.0128C527.054 79.9089 524.182 79.4631 520.803 79.6752L503.493 80.7623L509.296 173.158L481.928 174.877L474.798 61.3508ZM544.071 170.974L515.811 122.338L544.807 120.36L573.315 167.964L573.389 169.133L544.071 170.974ZM662.903 142.376L664.225 163.429L603.719 167.228L602.397 146.176L662.903 142.376ZM606.336 53.0901L613.466 166.616L586.098 168.335L578.968 54.8088L606.336 53.0901ZM652.129 95.4594L653.407 115.81L600.698 119.12L599.42 98.7696L652.129 95.4594ZM657.33 49.8876L658.657 71.0179L597.917 74.8324L596.59 53.7021L657.33 49.8876Z" fill="#F93D5D"/>
</svg>
