<svg width="839" height="282" viewBox="0 0 839 282" fill="none" xmlns="http://www.w3.org/2000/svg">
<path d="M824.049 8.71787e-06L0 52.0211L14.4969 281.661L838.545 229.64L824.049 8.71787e-06Z" fill="white"/>
<path d="M53.1279 217.385L71.3279 192.585C82.7279 201.285 97.1279 206.885 109.628 206.085C123.928 205.185 130.628 199.085 130.028 190.085C129.428 180.485 120.628 177.985 107.028 173.385L86.7279 166.185C70.6279 160.785 54.8279 148.785 53.5279 126.785C51.9279 101.585 73.1279 80.0852 104.728 78.0852C122.228 76.9852 140.928 82.6852 154.828 94.8852L138.828 117.585C128.328 110.585 118.528 106.885 106.528 107.685C94.7279 108.385 87.4279 113.885 88.0279 122.485C88.6279 131.785 98.7279 134.585 112.328 138.985L132.128 145.585C151.128 151.885 163.528 163.485 164.828 184.985C166.428 210.185 146.828 233.385 110.628 235.685C90.9279 236.985 69.5279 230.885 53.1279 217.385Z" fill="#F96B7D"/>
<path d="M208.428 103.285L166.628 105.885L164.828 77.0852L282.728 69.6852L284.528 98.4852L242.728 101.085L250.528 224.085L216.228 226.285L208.428 103.285Z" fill="#F96B7D"/>
<path d="M299.528 68.6852L394.628 62.6852L396.428 91.4852L335.628 95.2852L337.528 125.785L389.328 122.485L391.128 151.285L339.328 154.585L341.528 189.585L404.628 185.585L406.428 214.385L309.028 220.585L299.528 68.6852Z" fill="#F96B7D"/>
<path d="M448.328 59.2852L489.428 56.6852L546.728 205.485L510.428 207.785L485.728 132.185C480.528 117.285 475.328 99.5852 470.328 83.9852L469.428 84.0852C466.728 100.385 463.828 118.385 460.528 133.785L445.428 211.885L410.328 214.085L448.328 59.2852ZM437.728 149.285L510.728 144.685L512.428 171.385L439.428 175.985L437.728 149.285Z" fill="#F96B7D"/>
<path d="M546.527 53.0851L589.427 50.3851C635.827 47.4851 667.127 68.6851 670.427 120.785C673.727 172.985 645.427 199.185 600.927 201.985L556.127 204.785L546.527 53.0851ZM595.127 174.685C620.827 173.085 637.427 159.385 635.227 123.085C632.927 86.7851 614.827 76.5851 589.127 78.1851L582.627 78.5851L588.727 175.085L595.127 174.685Z" fill="#F96B7D"/>
<path d="M719.529 140.185L667.629 45.3851L704.329 43.0851L720.129 77.0851C724.929 88.1851 729.529 98.4851 734.629 109.985L735.529 109.885C739.129 97.8851 742.729 87.0851 746.229 75.3851L757.629 39.6851L793.529 37.3851L753.929 137.885L757.329 191.985L723.029 194.185L719.529 140.185Z" fill="#F96B7D"/>
</svg>
