<svg width="895" height="286" viewBox="0 0 895 286" fill="none" xmlns="http://www.w3.org/2000/svg">
<path d="M879.737 -7.34068e-05L0 55.5366L14.4969 285.176L894.234 229.64L879.737 -7.34068e-05Z" fill="white"/>
<path d="M53.0752 220.947L71.2752 196.147C82.6752 204.847 97.0752 210.447 109.575 209.647C123.875 208.747 130.575 202.647 129.975 193.647C129.375 184.047 120.575 181.547 106.975 176.947L86.6752 169.747C70.5752 164.347 54.7752 152.347 53.4752 130.347C51.8752 105.147 73.0752 83.6468 104.675 81.6468C122.175 80.5468 140.875 86.2468 154.775 98.4468L138.775 121.147C128.275 114.147 118.475 110.447 106.475 111.247C94.6752 111.947 87.3752 117.447 87.9752 126.047C88.5752 135.347 98.6752 138.147 112.275 142.547L132.075 149.147C151.075 155.447 163.475 167.047 164.775 188.547C166.375 213.747 146.775 236.947 110.575 239.247C90.8752 240.547 69.4752 234.447 53.0752 220.947Z" fill="#F93D5D"/>
<path d="M208.375 106.847L166.575 109.447L164.775 80.6468L282.675 73.2468L284.475 102.047L242.675 104.647L250.475 227.647L216.175 229.847L208.375 106.847Z" fill="#F93D5D"/>
<path d="M299.476 72.2468L354.176 68.7468C386.376 66.7468 413.476 76.2468 415.776 112.347C417.976 147.247 392.576 163.947 360.376 165.947L339.976 167.247L343.376 221.847L309.076 224.047L299.476 72.2468ZM355.676 138.847C373.776 137.747 382.976 129.347 381.976 114.447C381.076 99.4468 370.976 95.0468 352.976 96.1468L335.376 97.2468L338.076 139.947L355.676 138.847ZM353.376 157.247L375.676 133.747L429.476 216.347L391.076 218.747L353.376 157.247Z" fill="#F93D5D"/>
<path d="M432.775 139.347C429.675 89.7469 455.875 59.5469 496.775 56.9469C537.675 54.3469 567.475 81.2469 570.675 130.647C573.775 180.247 547.675 211.747 506.775 214.347C465.775 216.947 435.975 188.947 432.775 139.347ZM535.475 132.847C533.575 102.447 519.375 85.2469 498.675 86.5469C477.975 87.8469 466.075 106.647 467.975 137.047C469.875 167.447 484.175 185.947 504.875 184.647C525.575 183.447 537.475 163.247 535.475 132.847Z" fill="#F93D5D"/>
<path d="M587.575 54.0469L622.775 51.8469L667.175 124.847L684.275 157.247L685.175 157.147C682.575 141.147 678.475 120.147 677.275 102.247L673.875 48.6469L706.575 46.5469L716.175 198.347L680.975 200.547L636.575 127.347L619.475 95.1469L618.575 95.2469C621.275 111.847 625.275 132.047 626.475 149.947L629.875 203.847L597.175 205.947L587.575 54.0469Z" fill="#F93D5D"/>
<path d="M733.175 121.947C729.975 71.5468 761.575 40.2468 802.175 37.7468C824.175 36.3468 840.475 44.7468 851.275 54.4468L834.575 77.6468C826.575 71.1468 818.175 66.5468 805.175 67.3468C781.775 68.8468 766.375 88.2467 768.275 118.647C770.275 149.847 785.475 167.047 814.075 165.247C820.175 164.847 826.375 162.847 829.875 159.747L828.175 133.547L803.075 135.147L801.275 107.147L856.875 103.647L861.275 173.647C851.475 184.547 833.575 193.847 812.375 195.147C770.575 197.647 736.375 173.047 733.175 121.947Z" fill="#F93D5D"/>
</svg>
