<svg width="760" height="277" viewBox="0 0 760 277" fill="none" xmlns="http://www.w3.org/2000/svg">
<path d="M745.406 0.000124193L0 47.0566L14.4969 276.696L759.903 229.64L745.406 0.000124193Z" fill="white"/>
<path d="M53.1112 212.505L71.3112 187.705C82.7112 196.405 97.1112 202.005 109.611 201.205C123.911 200.305 130.611 194.205 130.011 185.205C129.411 175.605 120.611 173.105 107.011 168.505L86.7112 161.305C70.6112 155.905 54.8112 143.905 53.5112 121.905C51.9112 96.7049 73.1112 75.2049 104.711 73.2049C122.211 72.1049 140.911 77.8049 154.811 90.0049L138.811 112.705C128.311 105.705 118.511 102.005 106.511 102.805C94.7112 103.505 87.4112 109.005 88.0112 117.605C88.6112 126.905 98.7112 129.705 112.311 134.105L132.111 140.705C151.111 147.005 163.511 158.605 164.811 180.105C166.411 205.305 146.811 228.505 110.611 230.805C90.9112 232.105 69.5112 226.005 53.1112 212.505Z" fill="#B71D37"/>
<path d="M181.211 153.004L176.111 71.6043L210.411 69.4043L215.811 154.404C217.711 184.104 227.711 193.804 244.711 192.704C261.811 191.604 270.911 180.704 269.111 151.004L263.711 66.0043L296.811 63.9043L301.911 145.304C305.111 196.304 285.811 219.704 246.511 222.204C207.211 224.804 184.411 204.004 181.211 153.004Z" fill="#B71D37"/>
<path d="M324.711 62.2041L376.811 58.9041C410.211 56.8041 437.911 67.0041 440.211 103.904C442.511 139.604 416.211 157.104 384.011 159.104L365.211 160.304L368.411 211.804L334.111 214.004L324.711 62.2041ZM380.411 132.004C399.311 130.804 407.711 121.804 406.711 106.004C405.711 90.1041 395.211 85.1041 376.611 86.2041L360.811 87.2041L363.711 133.004L380.411 132.004Z" fill="#B71D37"/>
<path d="M456.611 53.9043L551.711 47.9043L553.511 76.7043L492.711 80.5043L494.611 111.004L546.411 107.704L548.211 136.504L496.411 139.804L498.611 174.804L561.711 170.804L563.511 199.604L466.111 205.804L456.611 53.9043Z" fill="#B71D37"/>
<path d="M577.211 46.3044L631.911 42.8044C664.111 40.8044 691.211 50.3044 693.511 86.4044C695.711 121.304 670.311 138.004 638.111 140.004L617.711 141.304L621.111 195.904L586.811 198.104L577.211 46.3044ZM633.511 112.904C651.611 111.804 660.811 103.404 659.811 88.5045C658.911 73.5045 648.811 69.1044 630.811 70.2044L613.211 71.3044L615.911 114.004L633.511 112.904ZM631.211 131.304L653.511 107.804L707.311 190.404L668.911 192.804L631.211 131.304Z" fill="#B71D37"/>
</svg>
