<svg width="278" height="103" viewBox="0 0 278 103" fill="none" xmlns="http://www.w3.org/2000/svg">
<path d="M61.3 54.3297H71.5V8.02969H61.3V54.3297ZM30.5 7.52969C30.5 7.52969 30.3 7.52969 30.1 7.52969C29.9 7.52969 29.7 7.52969 29.7 7.52969C25.7 7.52969 22.7 9.32969 20.7 13.7297C17.9 19.9297 5 54.4297 5 54.4297H15.6C15.6 54.4297 17.5 48.9297 19.8 42.4297C23.1 43.1297 26.6 43.5297 30.3 43.5297C33.9 43.5297 37.4 43.1297 40.7 42.3297C43.1 48.8297 45.2 54.4297 45.2 54.4297H55.7C55.7 54.4297 42.5 19.8297 39.6 13.7297C37.5 9.32969 34.6 7.52969 30.6 7.52969M30.2 34.6297C27.4 34.6297 25.1 34.3297 22.9 33.6297C25.5 26.4297 27.8 20.0297 28.1 19.2297C28.8 17.3297 29.3 16.7297 30.1 16.7297C30.9 16.7297 31.4 17.3297 32.2 19.2297C32.5 20.0297 34.9 26.5297 37.5 33.6297C35.3 34.3297 33 34.6297 30.2 34.6297ZM111.8 13.6297C109.7 9.22968 106.8 7.42969 102.8 7.42969C102.8 7.42969 102.6 7.42969 102.4 7.42969C102.2 7.42969 102 7.42969 102 7.42969C98 7.42969 95 9.22968 93 13.6297C90.2 19.8297 77.3 54.3297 77.3 54.3297H87.9C87.9 54.3297 89.8 48.8297 92.1 42.3297C95.4 43.0297 98.9 43.4297 102.6 43.4297C106.2 43.4297 109.7 43.0297 113 42.2297C115.4 48.7297 117.5 54.3297 117.5 54.3297H128C128 54.3297 114.8 19.7297 111.9 13.6297M102.4 34.6297C99.6 34.6297 97.3 34.3297 95.1 33.6297C97.7 26.4297 100 20.0297 100.3 19.2297C101 17.3297 101.5 16.7297 102.3 16.7297C103.1 16.7297 103.6 17.3297 104.4 19.2297C104.7 20.0297 107.1 26.5297 109.7 33.6297C107.5 34.3297 105.2 34.6297 102.4 34.6297Z" fill="white"/>
<path d="M170.499 35.4302C170.499 36.3302 167.699 47.6302 167.699 48.5302C167.699 49.4302 168.199 49.7302 168.199 49.7302C168.199 49.7302 168.799 53.2302 164.199 54.4302C164.199 54.4302 160.199 54.3302 160.399 50.3302C160.799 46.9302 161.299 36.9302 166.699 30.8302C168.299 31.0302 170.499 32.8302 170.499 35.5302M231.299 31.1302C232.199 31.1302 234.399 29.5302 234.399 28.1302C234.399 26.7302 232.099 22.5302 228.999 22.5302C225.899 22.5302 226.799 23.6302 226.799 24.5302C226.799 26.0302 228.099 31.0302 231.299 31.0302M171.699 27.6302C172.699 27.6302 174.399 27.0302 174.399 25.6302C174.399 24.2302 171.899 19.1302 168.799 19.1302C165.699 19.1302 166.599 20.2302 166.599 21.1302C166.599 22.6302 166.899 27.6302 171.599 27.6302M181.399 0.530185C180.099 -0.869815 163.699 -2.76982 149.499 41.9302C149.499 42.2302 148.999 42.2302 148.899 41.9302C146.699 30.0302 147.699 16.6302 147.399 14.4302C146.699 9.03018 142.099 10.7302 142.099 10.7302C139.999 15.0302 141.399 49.5302 144.799 54.0302C146.799 54.9302 152.699 54.6302 153.999 53.2302C153.999 53.2302 162.199 9.63019 181.399 0.530185ZM269.499 32.4302C269.099 32.4302 268.799 32.9302 268.799 32.9302C263.799 41.9302 259.299 49.0302 255.499 49.3302C254.699 49.3302 254.299 48.8302 254.099 48.0302C253.599 44.6302 256.899 36.1302 256.599 33.7302C256.599 32.8302 256.099 32.9302 255.499 32.5302C255.299 32.6302 255.099 32.9302 254.899 33.1302C254.899 33.2302 254.699 33.2302 254.499 33.2302C252.199 32.4302 249.299 31.8302 247.599 31.5302C249.399 26.5302 252.999 16.2302 252.999 15.2302C252.999 12.9302 251.299 12.1302 248.399 11.3302C243.799 19.5302 240.799 30.6302 240.599 31.5302C239.099 32.9302 236.799 31.6302 236.399 34.3302C237.499 35.5302 239.599 36.5302 239.599 37.4302C239.599 38.3302 237.999 42.1302 238.599 54.4302C239.399 54.7302 242.799 51.1302 242.899 50.1302C243.799 40.5302 246.199 37.1302 246.199 37.1302C246.199 37.1302 249.999 37.2302 252.299 36.8302C252.299 36.8302 252.399 36.8302 252.299 36.9302C251.799 38.0302 248.499 44.7302 248.499 47.8302C248.499 51.8302 249.799 54.1302 253.099 54.4302C253.799 54.4302 254.499 54.4302 255.199 54.4302C258.399 54.0302 262.099 52.4302 265.199 48.7302C265.399 48.5302 265.799 48.7302 265.699 49.0302C260.799 66.5302 251.299 70.9302 247.299 71.9302C247.399 73.1302 254.299 72.8302 259.199 68.7302C264.799 64.0302 268.899 56.8302 270.599 51.1302C271.099 49.3302 271.599 47.5302 271.999 45.6302C272.699 42.2302 273.099 38.7302 273.199 35.2302C273.199 34.6302 269.999 32.5302 269.299 32.5302M236.699 52.0302C236.699 52.0302 236.599 52.0302 236.499 52.0302C231.399 52.0302 237.399 33.9302 230.199 34.8302C228.999 35.0302 227.099 35.9302 226.499 36.3302C226.399 36.3302 226.299 36.5302 226.199 36.6302C225.599 37.6302 222.499 42.7302 217.199 48.3302C216.799 48.8302 215.999 48.6302 215.799 48.0302C213.199 39.5302 224.799 14.4302 224.999 13.9302C225.899 11.1302 221.999 9.73019 220.099 9.53019C215.899 15.5302 208.799 34.4302 209.499 49.4302C209.499 49.6302 209.399 49.8302 209.199 49.8302C207.999 50.3302 203.699 51.9302 204.199 48.3302C204.299 47.4302 206.399 42.0302 206.399 41.1302C206.399 40.2302 203.799 37.0302 201.899 37.0302C199.999 37.0302 193.799 46.2302 191.299 48.4302C190.899 48.8302 190.199 48.6302 189.999 48.1302C188.699 45.2302 191.899 37.2302 200.999 34.1302C200.999 34.1302 202.999 32.3302 203.299 31.8302C203.399 31.6302 203.499 31.3302 203.399 31.1302C203.299 30.7302 202.699 30.4302 202.699 30.4302C197.599 28.0302 186.299 28.4302 184.399 28.1302C185.799 21.6302 190.299 11.2302 190.399 10.2302C190.599 8.63018 189.099 7.13017 185.899 6.33017C180.799 15.3302 176.599 27.1302 176.399 28.0302C175.599 28.9302 174.299 28.5302 173.499 31.0302C173.499 32.1302 175.299 33.4302 175.299 34.4302C175.299 35.4302 173.599 40.8302 174.199 54.3302C176.699 54.4302 179.399 50.5302 179.599 49.3302C181.199 38.9302 182.799 34.1302 182.799 34.1302C186.699 34.1302 190.099 33.8302 192.799 33.4302C192.799 33.4302 192.899 33.5302 192.799 33.6302C187.899 37.7302 183.299 41.7302 183.399 49.4302C183.399 52.5302 186.699 54.3302 188.599 54.3302C191.899 54.3302 195.199 51.4302 196.799 49.6302C197.099 49.3302 197.699 49.4302 197.699 49.9302C198.199 52.9302 200.599 54.4302 202.999 54.4302C205.399 54.4302 208.399 52.3302 209.599 51.7302C209.699 51.7302 209.799 51.7302 209.899 51.7302C210.699 52.6302 212.399 54.4302 213.999 54.4302C218.699 54.4302 223.499 47.5302 226.199 43.3302C226.399 42.9302 226.999 43.0302 227.099 43.5302C228.099 48.0302 228.099 54.5302 232.699 54.5302C237.299 54.5302 235.499 54.2302 236.899 53.7302C237.799 53.4302 237.499 52.0302 236.499 52.1302" fill="white"/>
<path d="M0 75.9297H5.2L10 95.4297H10.2L15.3 75.9297H20L25.1 95.4297H25.3L30.1 75.9297H35.3L27.8 102.43H23.1L17.8 83.8297H17.6L12.3 102.43H7.6L0.0999985 75.9297H0Z" fill="white"/>
<path d="M38.2 75.9297H48.1C54.2 75.9297 57.4 79.3297 57.4 84.4297C57.4 89.5297 55.8 90.7297 52.6 91.9297L58.3 102.43H52.9L47.7 92.7297H42.8V102.43H38V75.9297H38.2ZM47.4 88.7297C51 88.7297 52.6 87.2297 52.6 84.4297C52.6 81.6297 51 79.9297 47.4 79.9297H43V88.7297H47.4Z" fill="white"/>
<path d="M59.7992 102.43L69.0992 75.9297H74.9992L84.2992 102.43H79.1992L76.9992 95.9297H66.9992L64.7992 102.43H59.6992H59.7992ZM75.7992 92.0297L72.1992 81.3297H71.9992L68.3992 92.0297H75.7992Z" fill="white"/>
<path d="M87.6 75.9297H97.5C103.6 75.9297 106.8 79.6297 106.8 84.7297C106.8 89.8297 103.5 93.5297 97.4 93.5297H92.3V102.53H87.5V76.0297L87.6 75.9297ZM96.8 89.5297C100.4 89.5297 102 87.5297 102 84.7297C102 81.9297 100.4 79.9297 96.8 79.9297H92.4V89.5297H96.8Z" fill="white"/>
<path d="M110.6 75.9297H120.5C126.6 75.9297 129.8 79.6297 129.8 84.7297C129.8 89.8297 126.5 93.5297 120.4 93.5297H115.3V102.53H110.5V76.0297L110.6 75.9297ZM119.9 89.5297C123.5 89.5297 125.1 87.5297 125.1 84.7297C125.1 81.9297 123.5 79.9297 119.9 79.9297H115.5V89.5297H119.9Z" fill="white"/>
<path d="M133.699 75.9301H150.899V79.9301H138.499V87.1301H149.999V91.1301H138.499V98.3301H150.999V102.33H133.699V75.8301V75.9301Z" fill="white"/>
<path d="M155.5 102.43V75.9297H164.7C172.6 75.9297 177.4 80.9297 177.4 89.1297C177.4 97.3297 172.6 102.43 164.5 102.43H155.5ZM164.2 98.2297C169.7 98.2297 172.5 95.2297 172.5 89.1297C172.5 83.0297 169.7 80.0297 164.3 80.0297H160.2V98.2297H164.1H164.2Z" fill="white"/>
<path d="M189.901 98.9299L199.101 89.9299C201.701 87.2299 203.101 85.7299 203.101 83.5299C203.101 81.3299 201.201 79.5299 198.701 79.5299C196.201 79.5299 194.401 81.2299 194.401 83.9299H189.801C189.801 78.9299 193.501 75.6299 198.801 75.6299C204.101 75.6299 207.701 78.8299 207.701 83.3299C207.701 87.8299 206.301 88.7299 201.101 93.6299L196.501 98.2299V98.4299H208.001V102.43H189.801V98.9299H189.901Z" fill="white"/>
<path d="M211.801 89.2299C211.801 80.5299 215.601 75.6299 222.001 75.6299C228.401 75.6299 232.201 80.6299 232.201 89.2299C232.201 97.8299 228.401 102.93 222.001 102.93C215.601 102.93 211.801 97.9299 211.801 89.2299ZM227.401 89.2299C227.401 82.9299 225.301 79.6299 222.001 79.6299C218.701 79.6299 216.701 82.9299 216.601 89.2299C216.601 95.6299 218.701 98.9299 222.001 98.9299C225.301 98.9299 227.401 95.6299 227.401 89.2299Z" fill="white"/>
<path d="M236.1 98.9299L245.3 89.9299C247.9 87.2299 249.3 85.7299 249.3 83.5299C249.3 81.3299 247.4 79.5299 244.9 79.5299C242.4 79.5299 240.6 81.2299 240.6 83.9299H236C236 78.9299 239.7 75.6299 245 75.6299C250.3 75.6299 253.9 78.8299 253.9 83.3299C253.9 87.8299 252.5 88.7299 247.3 93.6299L242.7 98.2299V98.4299H254.2V102.43H236V98.9299H236.1Z" fill="white"/>
<path d="M258.5 95.2301H263.2C263.4 97.4301 265.3 98.9301 267.7 98.9301C270.1 98.9301 272.6 96.8301 272.6 93.8301C272.6 90.8301 270.5 88.7301 267.6 88.6301C266 88.6301 264.3 89.2301 263.4 90.2301L259.1 89.5301L260.5 75.8301H275.9V79.8301H264.5L263.7 86.8301H263.9C264.9 85.6301 266.8 84.8301 268.9 84.8301C273.7 84.8301 277.3 88.5301 277.3 93.6301C277.3 98.7301 273.4 102.73 267.8 102.73C262.2 102.73 258.8 99.5301 258.7 95.1301L258.5 95.2301Z" fill="white"/>
</svg>
