<svg width="552" height="63" viewBox="0 0 552 63" fill="none" xmlns="http://www.w3.org/2000/svg">
<path d="M5.19843 45.6992C6.49843 45.6992 7.49844 46.0993 8.39844 46.7993C9.19844 47.4993 9.69843 48.4993 9.69843 49.8993C9.69843 51.2993 9.29844 52.1993 8.39844 52.8993C7.59844 53.5993 6.49843 53.9993 5.19843 53.9993H1.99844V59.2993H0.398438V45.6992H5.19843ZM4.89844 52.5992C5.89844 52.5992 6.69843 52.3993 7.19843 51.8993C7.69843 51.3993 7.99844 50.6993 7.99844 49.7993C7.99844 48.8993 7.69843 48.1992 7.19843 47.6992C6.59843 47.1992 5.89844 46.9993 4.89844 46.9993H1.99844V52.5992H4.89844Z" fill="#303D48"/>
<path d="M20.6984 45.6992V46.9993H16.5984V59.2993H14.9984V46.9993H10.8984V45.6992H20.5984H20.6984Z" fill="#303D48"/>
<path d="M35.3969 59.2994C35.0969 58.1994 34.7969 56.9994 34.3969 55.5994H28.4969C28.0969 56.8994 27.7969 58.0994 27.3969 59.2994H25.7969C26.3969 57.1994 27.0969 54.7994 27.8969 52.2994C28.6969 49.7994 29.4969 47.6993 30.1969 46.1993C30.1969 45.9993 30.2969 45.8994 30.3969 45.8994C30.3969 45.8994 30.6969 45.8994 30.8969 45.8994H31.8969C32.0969 45.8994 32.2969 45.8994 32.3969 45.8994C32.4969 45.8994 32.5969 46.0993 32.6969 46.1993C33.9969 48.9993 35.3969 53.3994 36.9969 59.3994H35.3969V59.2994ZM28.8969 54.1993H33.9969C33.0969 51.2993 32.2969 48.7994 31.4969 46.7994C30.6969 48.6994 29.7969 51.0993 28.8969 54.1993Z" fill="#303D48"/>
<path d="M41.1977 45.6992V59.2993H39.5977V45.6992H41.1977Z" fill="#303D48"/>
<path d="M53.3969 59.2994C53.0969 58.1994 52.7969 56.9994 52.3969 55.5994H46.4969C46.0969 56.8994 45.7969 58.0994 45.3969 59.2994H43.7969C44.3969 57.1994 45.0969 54.7994 45.8969 52.2994C46.6969 49.7994 47.4969 47.6993 48.1969 46.1993C48.1969 45.9993 48.2969 45.8994 48.3969 45.8994C48.3969 45.8994 48.6969 45.8994 48.8969 45.8994H49.8969C50.0969 45.8994 50.2969 45.8994 50.3969 45.8994C50.4969 45.8994 50.5969 46.0993 50.6969 46.1993C51.9969 48.9993 53.3969 53.3994 54.9969 59.3994H53.3969V59.2994ZM46.7969 54.1993H51.8969C50.9969 51.2993 50.1969 48.7994 49.3969 46.7994C48.5969 48.6994 47.6969 51.0993 46.7969 54.1993Z" fill="#303D48"/>
<path d="M70.0969 46.9993H63.3969V51.6992H69.5969V52.9993H63.3969V59.2993H61.7969V45.6992H69.9969V46.9993H70.0969Z" fill="#303D48"/>
<path d="M74.2977 47.4998C74.0977 47.6998 73.8977 47.7998 73.5977 47.7998C73.2977 47.7998 73.0977 47.7998 72.8977 47.4998C72.6977 47.2998 72.5977 47.0998 72.5977 46.7998C72.5977 46.4998 72.6977 46.2997 72.8977 46.0997C73.0977 45.8997 73.2977 45.7998 73.5977 45.7998C73.8977 45.7998 74.0977 45.7997 74.2977 46.0997C74.4977 46.3997 74.5977 46.4998 74.5977 46.7998C74.5977 47.0998 74.5977 47.2998 74.2977 47.4998ZM74.2977 49.5997V59.2998H72.7977V49.5997H74.2977Z" fill="#303D48"/>
<path d="M81.9977 49.3993C82.9977 49.3993 83.7977 49.6993 84.4977 50.2993C85.0977 50.8993 85.3977 51.7993 85.3977 52.7993V59.1992H83.8977V52.9993C83.8977 52.2993 83.6977 51.6992 83.2977 51.1992C82.8977 50.6992 82.3977 50.4993 81.5977 50.4993C80.7977 50.4993 80.1977 50.6992 79.7977 51.1992C79.3977 51.6992 79.0977 52.1993 79.0977 52.8993V59.0992H77.5977V49.3993H78.9977V50.7993C79.5977 49.7993 80.4977 49.1992 81.8977 49.1992L81.9977 49.3993Z" fill="#303D48"/>
<path d="M95.4977 56.9994C95.4977 57.3994 95.4977 57.6994 95.6977 57.8994C95.7977 57.9994 95.9977 58.0994 96.2977 58.0994V59.2994C96.1977 59.2994 95.9977 59.2994 95.6977 59.2994C94.7977 59.2994 94.1977 58.8994 94.0977 57.9994C93.4977 58.8994 92.5977 59.3994 91.2977 59.3994C89.9977 59.3994 89.5977 59.1993 88.9977 58.6993C88.3977 58.1993 88.0977 57.5993 88.0977 56.6993C88.0977 55.7993 88.5977 54.7993 89.4977 54.1993C90.3977 53.5993 91.8977 53.1994 93.9977 52.8994V52.6993C93.9977 51.2993 93.2977 50.5994 91.8977 50.5994C90.4977 50.5994 89.9977 51.0993 89.7977 52.1993H88.3977C88.3977 51.3993 88.7977 50.6993 89.3977 50.1993C89.9977 49.6993 90.8977 49.3994 91.8977 49.3994C92.8977 49.3994 93.8977 49.6993 94.4977 50.1993C95.0977 50.6993 95.3977 51.4994 95.3977 52.5994V56.9994H95.4977ZM91.5977 58.1993C92.2977 58.1993 92.8977 57.9994 93.3977 57.5994C93.8977 57.1994 94.0977 56.6994 94.0977 55.9994V53.9994C92.5977 54.1994 91.4977 54.5994 90.7977 54.8994C90.0977 55.2994 89.6977 55.7994 89.6977 56.4994C89.6977 57.1994 89.8977 57.3994 90.1977 57.5994C90.4977 57.8994 90.9977 57.9994 91.6977 57.9994L91.5977 58.1993Z" fill="#303D48"/>
<path d="M103.197 49.3993C104.197 49.3993 104.997 49.6993 105.697 50.2993C106.297 50.8993 106.597 51.7993 106.597 52.7993V59.1992H105.097V52.9993C105.097 52.2993 104.897 51.6992 104.497 51.1992C104.097 50.6992 103.597 50.4993 102.797 50.4993C101.997 50.4993 101.397 50.6992 100.997 51.1992C100.597 51.6992 100.297 52.1993 100.297 52.8993V59.0992H98.7969V49.3993H100.197V50.7993C100.797 49.7993 101.697 49.1992 103.097 49.1992L103.197 49.3993Z" fill="#303D48"/>
<path d="M117.197 55.9998V56.1997C117.097 57.1997 116.697 57.9998 115.997 58.4998C115.297 59.0998 114.397 59.3998 113.397 59.3998C112.397 59.3998 111.097 58.9997 110.397 58.0997C109.697 57.2997 109.297 56.0998 109.297 54.4998V54.1997C109.297 52.5997 109.697 51.3997 110.397 50.5997C111.197 49.7997 112.197 49.2998 113.397 49.2998C114.597 49.2998 115.297 49.5997 115.997 50.0997C116.697 50.6997 117.097 51.3997 117.197 52.1997V52.3998H115.697C115.397 51.0998 114.597 50.4998 113.397 50.4998C112.197 50.4998 111.797 50.7998 111.397 51.4998C110.997 52.1998 110.797 52.9997 110.797 54.0997V54.3998C110.797 55.3998 110.997 56.2998 111.397 56.8998C111.797 57.4998 112.497 57.8998 113.397 57.8998C114.697 57.8998 115.597 57.1998 115.797 55.7998H117.197V55.9998Z" fill="#303D48"/>
<path d="M121.298 47.4998C121.098 47.6998 120.898 47.7998 120.598 47.7998C120.298 47.7998 120.098 47.7998 119.898 47.4998C119.698 47.2998 119.598 47.0998 119.598 46.7998C119.598 46.4998 119.698 46.2997 119.898 46.0997C120.098 45.8997 120.298 45.7998 120.598 45.7998C120.898 45.7998 121.098 45.7997 121.298 46.0997C121.498 46.3997 121.598 46.4998 121.598 46.7998C121.598 47.0998 121.598 47.2998 121.298 47.4998ZM121.198 49.5997V59.2998H119.698V49.5997H121.198Z" fill="#303D48"/>
<path d="M131.4 56.9994C131.4 57.3994 131.4 57.6994 131.6 57.8994C131.7 57.9994 131.9 58.0994 132.2 58.0994V59.2994C132.1 59.2994 131.9 59.2994 131.6 59.2994C130.7 59.2994 130.1 58.8994 130 57.9994C129.4 58.8994 128.5 59.3994 127.2 59.3994C125.9 59.3994 125.5 59.1993 124.9 58.6993C124.3 58.1993 124 57.5993 124 56.6993C124 55.7993 124.5 54.7993 125.4 54.1993C126.3 53.5993 127.8 53.1994 129.9 52.8994V52.6993C129.9 51.2993 129.2 50.5994 127.8 50.5994C126.4 50.5994 125.9 51.0993 125.7 52.1993H124.3C124.3 51.3993 124.7 50.6993 125.3 50.1993C125.9 49.6993 126.8 49.3994 127.8 49.3994C128.8 49.3994 129.8 49.6993 130.4 50.1993C131 50.6993 131.3 51.4994 131.3 52.5994V56.9994H131.4ZM127.4 58.1993C128.1 58.1993 128.7 57.9994 129.2 57.5994C129.7 57.1994 129.9 56.6994 129.9 55.9994V53.9994C128.4 54.1994 127.3 54.5994 126.6 54.8994C125.9 55.2994 125.5 55.7994 125.5 56.4994C125.5 57.1994 125.7 57.3994 126 57.5994C126.3 57.8994 126.8 57.9994 127.5 57.9994L127.4 58.1993Z" fill="#303D48"/>
<path d="M136.199 45.2993V56.7993C136.199 57.2993 136.299 57.6993 136.499 57.8993C136.699 58.0993 137.099 58.1992 137.599 58.0992V59.1992C137.399 59.2992 137.099 59.3993 136.799 59.3993C135.399 59.3993 134.699 58.5993 134.699 56.8993V45.1992H136.199V45.2993Z" fill="#303D48"/>
<path d="M148.998 49.3998C150.198 49.3998 151.098 49.7997 151.798 50.6997C152.498 51.4997 152.898 52.6998 152.898 54.2998V54.5997C152.898 56.1997 152.498 57.3997 151.798 58.1997C151.098 58.9997 150.198 59.4998 148.998 59.4998C147.798 59.4998 146.598 58.9998 145.998 57.8998V59.2998H144.598V45.2998H146.098V50.8998C146.698 49.8998 147.698 49.3998 148.998 49.3998ZM151.398 54.5997V54.2998C151.398 53.2998 151.198 52.3997 150.798 51.6997C150.398 50.9997 149.698 50.6997 148.798 50.6997C147.898 50.6997 147.198 50.9997 146.798 51.6997C146.398 52.3997 146.198 53.1997 146.198 54.1997V54.7998C146.198 55.7998 146.398 56.5997 146.798 57.1997C147.198 57.8997 147.898 58.1997 148.798 58.1997C149.698 58.1997 150.398 57.8997 150.798 57.1997C151.198 56.4997 151.398 55.6997 151.398 54.6997V54.5997Z" fill="#303D48"/>
<path d="M162.999 54.5997H156.299C156.299 55.5997 156.499 56.3997 156.899 57.0997C157.299 57.7997 157.999 58.0997 158.899 58.0997C159.799 58.0997 160.899 57.5998 161.199 56.4998H162.699C162.199 58.3998 160.899 59.3998 158.799 59.3998C156.699 59.3998 156.599 58.9997 155.799 58.0997C155.099 57.2997 154.699 56.0998 154.699 54.4998V54.1997C154.699 52.6997 155.099 51.4997 155.799 50.5997C156.499 49.6997 157.599 49.2998 158.799 49.2998C159.999 49.2998 160.999 49.6998 161.699 50.4998C162.399 51.2998 162.799 52.3997 162.799 53.6997V54.4998L162.999 54.5997ZM158.999 50.6997C157.499 50.6997 156.699 51.5998 156.499 53.3998H161.599C161.499 51.5998 160.599 50.6997 158.999 50.6997Z" fill="#303D48"/>
<path d="M169.999 49.5C170.299 49.5 170.599 49.5 170.799 49.5V51C170.499 51 170.299 51 169.999 51C169.099 51 168.299 51.3 167.899 51.9C167.399 52.5 167.199 53.3 167.199 54.4V59.3H165.699V49.6H167.099V51.7C167.299 51.1 167.599 50.6 168.099 50.2C168.599 49.8 169.199 49.5 169.999 49.5Z" fill="#303D48"/>
<path d="M174.298 47.4998C174.098 47.6998 173.898 47.7998 173.598 47.7998C173.298 47.7998 173.098 47.7998 172.898 47.4998C172.698 47.2998 172.598 47.0998 172.598 46.7998C172.598 46.4998 172.698 46.2997 172.898 46.0997C173.098 45.8997 173.298 45.7998 173.598 45.7998C173.898 45.7998 174.098 45.7997 174.298 46.0997C174.498 46.3997 174.598 46.4998 174.598 46.7998C174.598 47.0998 174.598 47.2998 174.298 47.4998ZM174.298 49.5997V59.2998H172.798V49.5997H174.298Z" fill="#303D48"/>
<path d="M178.697 57.9993H184.297V59.2993H176.797V58.2993L182.297 50.8993H176.997V49.6992H184.197V50.6992L178.697 58.0992V57.9993Z" fill="#303D48"/>
<path d="M188.2 47.4998C188 47.6998 187.8 47.7998 187.5 47.7998C187.2 47.7998 187 47.7998 186.8 47.4998C186.6 47.2998 186.5 47.0998 186.5 46.7998C186.5 46.4998 186.6 46.2997 186.8 46.0997C187 45.8997 187.2 45.7998 187.5 45.7998C187.8 45.7998 188 45.7997 188.2 46.0997C188.4 46.3997 188.5 46.4998 188.5 46.7998C188.5 47.0998 188.5 47.2998 188.2 47.4998ZM188.2 49.5997V59.2998H186.7V49.5997H188.2Z" fill="#303D48"/>
<path d="M195.9 49.3993C196.9 49.3993 197.7 49.6993 198.4 50.2993C199 50.8993 199.3 51.7993 199.3 52.7993V59.1992H197.8V52.9993C197.8 52.2993 197.6 51.6992 197.2 51.1992C196.8 50.6992 196.3 50.4993 195.5 50.4993C194.7 50.4993 194.1 50.6992 193.7 51.1992C193.3 51.6992 193 52.1993 193 52.8993V59.0992H191.5V49.3993H192.9V50.7993C193.5 49.7993 194.4 49.1992 195.8 49.1992L195.9 49.3993Z" fill="#303D48"/>
<path d="M213.398 45.2998H214.898V59.2998H213.498V57.8998C212.898 58.9998 211.898 59.4998 210.498 59.4998C209.098 59.4998 208.398 59.0997 207.698 58.1997C206.998 57.3997 206.598 56.1997 206.598 54.5997V54.2998C206.598 52.6998 206.998 51.4997 207.698 50.6997C208.398 49.8997 209.298 49.3998 210.498 49.3998C211.698 49.3998 212.798 49.8998 213.398 50.8998V45.2998ZM210.698 58.0997C211.598 58.0997 212.298 57.7997 212.698 57.0997C213.098 56.3997 213.298 55.5997 213.298 54.6997V54.0997C213.298 53.0997 213.098 52.2997 212.698 51.5997C212.298 50.8997 211.598 50.5997 210.698 50.5997C209.798 50.5997 209.098 50.8997 208.698 51.5997C208.298 52.2997 208.098 53.0997 208.098 54.1997V54.4998C208.098 55.4998 208.298 56.3998 208.698 56.9998C209.098 57.6998 209.798 57.9998 210.698 57.9998V58.0997Z" fill="#303D48"/>
<path d="M224.998 56.9994C224.998 57.3994 224.998 57.6994 225.198 57.8994C225.298 57.9994 225.498 58.0994 225.798 58.0994V59.2994C225.698 59.2994 225.498 59.2994 225.198 59.2994C224.298 59.2994 223.698 58.8994 223.598 57.9994C222.998 58.8994 222.098 59.3994 220.798 59.3994C219.498 59.3994 219.098 59.1993 218.498 58.6993C217.898 58.1993 217.598 57.5993 217.598 56.6993C217.598 55.7993 218.098 54.7993 218.998 54.1993C219.898 53.5993 221.398 53.1994 223.498 52.8994V52.6993C223.498 51.2993 222.798 50.5994 221.398 50.5994C219.998 50.5994 219.498 51.0993 219.298 52.1993H217.898C217.898 51.3993 218.298 50.6993 218.898 50.1993C219.498 49.6993 220.398 49.3994 221.398 49.3994C222.398 49.3994 223.398 49.6993 223.998 50.1993C224.598 50.6993 224.998 51.4994 224.998 52.5994V56.9994ZM220.998 58.1993C221.698 58.1993 222.298 57.9994 222.798 57.5994C223.298 57.1994 223.498 56.6994 223.498 55.9994V53.9994C221.998 54.1994 220.898 54.5994 220.198 54.8994C219.498 55.2994 219.098 55.7994 219.098 56.4994C219.098 57.1994 219.298 57.3994 219.598 57.5994C219.898 57.7994 220.398 57.9994 221.098 57.9994L220.998 58.1993Z" fill="#303D48"/>
<path d="M232.698 49.3993C233.698 49.3993 234.498 49.6993 235.198 50.2993C235.798 50.8993 236.198 51.7993 236.198 52.7993V59.1992H234.698V52.9993C234.698 52.2993 234.498 51.6992 234.098 51.1992C233.698 50.6992 233.198 50.4993 232.398 50.4993C231.598 50.4993 231.098 50.6992 230.598 51.1992C230.098 51.6992 229.898 52.1993 229.898 52.8993V59.0992H228.398V49.3993H229.798V50.7993C230.398 49.7993 231.298 49.1992 232.698 49.1992V49.3993Z" fill="#303D48"/>
<path d="M250.097 45.2998H251.597V59.2998H250.197V57.8998C249.597 58.9998 248.597 59.4998 247.197 59.4998C245.797 59.4998 245.097 59.0997 244.397 58.1997C243.697 57.3997 243.297 56.1997 243.297 54.5997V54.2998C243.297 52.6998 243.697 51.4997 244.397 50.6997C245.097 49.8997 245.997 49.3998 247.197 49.3998C248.397 49.3998 249.497 49.8998 250.097 50.8998V45.2998ZM247.497 58.0997C248.397 58.0997 249.097 57.7997 249.497 57.0997C249.897 56.3997 250.097 55.5997 250.097 54.6997V54.0997C250.097 53.0997 249.897 52.2997 249.497 51.5997C249.097 50.8997 248.397 50.5997 247.497 50.5997C246.597 50.5997 245.897 50.8997 245.497 51.5997C245.097 52.2997 244.897 53.0997 244.897 54.1997V54.4998C244.897 55.4998 245.097 56.3998 245.497 56.9998C245.897 57.6998 246.597 57.9998 247.497 57.9998V58.0997Z" fill="#303D48"/>
<path d="M256.497 47.4998C256.297 47.6998 256.097 47.7998 255.797 47.7998C255.497 47.7998 255.297 47.7998 255.097 47.4998C254.897 47.1998 254.797 47.0998 254.797 46.7998C254.797 46.4998 254.797 46.2997 255.097 46.0997C255.397 45.8997 255.497 45.7998 255.797 45.7998C256.097 45.7998 256.297 45.7997 256.497 46.0997C256.697 46.2997 256.797 46.4998 256.797 46.7998C256.797 47.0998 256.797 47.2998 256.497 47.4998ZM256.497 49.5997V59.2998H254.997V49.5997H256.497Z" fill="#303D48"/>
<path d="M266.599 56.9994C266.599 57.3994 266.599 57.6994 266.799 57.8994C266.899 57.9994 267.099 58.0994 267.399 58.0994V59.2994C267.299 59.2994 267.099 59.2994 266.799 59.2994C265.899 59.2994 265.299 58.8994 265.199 57.9994C264.599 58.8994 263.699 59.3994 262.399 59.3994C261.099 59.3994 260.699 59.1993 260.099 58.6993C259.499 58.1993 259.199 57.5993 259.199 56.6993C259.199 55.7993 259.699 54.7993 260.599 54.1993C261.499 53.5993 262.999 53.1994 265.099 52.8994V52.6993C265.099 51.2993 264.399 50.5994 262.999 50.5994C261.599 50.5994 261.099 51.0993 260.899 52.1993H259.499C259.499 51.3993 259.899 50.6993 260.499 50.1993C261.099 49.6993 261.999 49.3994 262.999 49.3994C263.999 49.3994 264.999 49.6993 265.599 50.1993C266.199 50.6993 266.599 51.4994 266.599 52.5994V56.9994ZM262.699 58.1993C263.399 58.1993 263.999 57.9994 264.499 57.5994C264.999 57.1994 265.199 56.6994 265.199 55.9994V53.9994C263.699 54.1994 262.599 54.5994 261.899 54.8994C261.199 55.2994 260.799 55.7994 260.799 56.4994C260.799 57.1994 260.999 57.3994 261.299 57.5994C261.599 57.7994 262.099 57.9994 262.799 57.9994L262.699 58.1993Z" fill="#303D48"/>
<path d="M280.698 49.5996H282.198C281.398 53.1996 280.498 56.2997 279.598 58.8997C279.598 59.1997 279.298 59.2997 279.098 59.2997H277.998C277.698 59.2997 277.598 59.1997 277.498 58.8997L275.598 51.8997L273.698 58.8997C273.698 59.1997 273.398 59.2997 273.198 59.2997H271.998C271.698 59.2997 271.598 59.1997 271.498 58.8997C270.498 56.1997 269.598 53.0996 268.898 49.5996H270.398C270.898 52.0996 271.598 54.8996 272.598 57.9996L274.798 49.5996H276.298L278.498 57.9996C279.498 54.8996 280.198 52.0996 280.698 49.5996Z" fill="#303D48"/>
<path d="M291.197 56.9994C291.197 57.3994 291.197 57.6994 291.397 57.8994C291.497 57.9994 291.697 58.0994 291.997 58.0994V59.2994C291.897 59.2994 291.697 59.2994 291.397 59.2994C290.497 59.2994 289.897 58.8994 289.797 57.9994C289.197 58.8994 288.297 59.3994 286.997 59.3994C285.697 59.3994 285.297 59.1993 284.697 58.6993C284.097 58.1993 283.797 57.5993 283.797 56.6993C283.797 55.7993 284.297 54.7993 285.197 54.1993C286.097 53.5993 287.597 53.1994 289.697 52.8994V52.6993C289.697 51.2993 288.997 50.5994 287.597 50.5994C286.197 50.5994 285.697 51.0993 285.497 52.1993H284.097C284.097 51.3993 284.497 50.6993 285.097 50.1993C285.697 49.6993 286.597 49.3994 287.597 49.3994C288.597 49.3994 289.597 49.6993 290.197 50.1993C290.797 50.6993 291.197 51.4994 291.197 52.5994V56.9994ZM287.297 58.1993C287.997 58.1993 288.597 57.9994 289.097 57.5994C289.597 57.1994 289.797 56.6994 289.797 55.9994V53.9994C288.297 54.1994 287.197 54.5994 286.497 54.8994C285.797 55.2994 285.397 55.7994 285.397 56.4994C285.397 57.1994 285.597 57.3994 285.897 57.5994C286.197 57.7994 286.697 57.9994 287.397 57.9994L287.297 58.1993Z" fill="#303D48"/>
<path d="M297.498 49.3994C298.498 49.3994 299.298 49.5994 299.898 50.0994C300.498 50.4994 300.798 51.0994 300.898 51.7994V51.9994H299.498C299.498 51.5994 299.198 51.2994 298.898 50.9994C298.498 50.6994 298.098 50.5994 297.498 50.5994C296.898 50.5994 296.498 50.6994 296.198 50.9994C295.898 51.1994 295.698 51.5994 295.698 51.9994C295.698 52.3994 295.798 52.6994 296.198 52.8994C296.498 53.0994 296.998 53.2994 297.698 53.4994L298.398 53.6993C299.398 53.9993 300.098 54.2994 300.598 54.7994C301.098 55.1994 301.298 55.7994 301.298 56.5994C301.298 57.3994 300.998 58.1993 300.398 58.6993C299.798 59.1993 298.898 59.4994 297.798 59.4994C296.698 59.4994 295.798 59.1993 295.198 58.6993C294.598 58.1993 294.198 57.4993 294.098 56.6993V56.3994H295.598C295.598 56.8994 295.798 57.2993 296.298 57.6993C296.698 57.9993 297.198 58.1993 297.898 58.1993C299.298 58.1993 299.998 57.6993 299.998 56.6993C299.998 55.6993 299.898 55.8993 299.598 55.6993C299.298 55.4993 298.898 55.2994 298.198 55.0994L297.298 54.7994C296.898 54.6994 296.498 54.5994 296.298 54.4994C296.098 54.4994 295.798 54.2994 295.398 54.0994C295.098 53.8994 294.798 53.5994 294.698 53.2994C294.598 52.9994 294.498 52.5993 294.498 52.1993C294.498 51.3993 294.798 50.7994 295.398 50.2994C295.998 49.7994 296.798 49.4994 297.798 49.4994L297.498 49.3994Z" fill="#303D48"/>
<path d="M305.2 47.4998C305 47.6998 304.8 47.7998 304.5 47.7998C304.2 47.7998 304 47.7998 303.8 47.4998C303.6 47.1998 303.5 47.0998 303.5 46.7998C303.5 46.4998 303.5 46.2997 303.8 46.0997C304.1 45.8997 304.2 45.7998 304.5 45.7998C304.8 45.7998 305 45.7997 305.2 46.0997C305.4 46.2997 305.5 46.4998 305.5 46.7998C305.5 47.0998 305.5 47.2998 305.2 47.4998ZM305.2 49.5997V59.2998H303.7V49.5997H305.2Z" fill="#303D48"/>
<path d="M316.698 59.3998C315.498 59.3998 314.498 58.9997 313.698 58.0997C312.898 57.1997 312.598 56.0998 312.598 54.4998V54.1997C312.598 52.5997 312.998 51.3997 313.698 50.5997C314.498 49.7997 315.498 49.2998 316.698 49.2998C317.898 49.2998 318.898 49.6997 319.698 50.5997C320.498 51.3997 320.798 52.5997 320.798 54.1997V54.4998C320.798 56.0998 320.398 57.2997 319.698 58.0997C318.898 58.8997 317.898 59.3998 316.698 59.3998ZM316.698 58.0997C317.598 58.0997 318.298 57.7997 318.698 57.0997C319.098 56.3997 319.298 55.5997 319.298 54.5997V54.2998C319.298 53.2998 319.098 52.3998 318.698 51.7998C318.298 51.0998 317.598 50.7998 316.698 50.7998C315.798 50.7998 315.098 51.0998 314.698 51.7998C314.298 52.4998 314.098 53.2998 314.098 54.2998V54.5997C314.098 55.5997 314.298 56.4997 314.698 57.0997C315.098 57.6997 315.798 58.0997 316.698 58.0997Z" fill="#303D48"/>
<path d="M324.898 45.2993V56.7993C324.898 57.2993 324.998 57.6993 325.198 57.8993C325.398 58.0993 325.798 58.1992 326.298 58.0992V59.1992C326.098 59.2992 325.798 59.3993 325.498 59.3993C324.098 59.3993 323.398 58.5993 323.398 56.8993V45.1992H324.898V45.2993Z" fill="#303D48"/>
<path d="M336.098 54.5997H329.398C329.398 55.5997 329.598 56.3997 330.098 57.0997C330.498 57.7997 331.198 58.0997 332.098 58.0997C332.998 58.0997 334.098 57.5998 334.398 56.4998H335.898C335.398 58.3998 334.098 59.3998 331.998 59.3998C329.898 59.3998 329.798 58.9997 328.998 58.0997C328.298 57.2997 327.898 56.0998 327.898 54.4998V54.1997C327.898 52.6997 328.298 51.4997 329.098 50.5997C329.898 49.6997 330.898 49.2998 332.098 49.2998C333.298 49.2998 334.298 49.6998 334.998 50.4998C335.698 51.2998 336.098 52.3997 336.098 53.6997V54.4998V54.5997ZM332.098 50.6997C330.598 50.6997 329.798 51.5998 329.598 53.3998H334.698C334.598 51.5998 333.698 50.6997 332.098 50.6997Z" fill="#303D48"/>
<path d="M343.097 49.3997C344.097 49.3997 344.897 49.6997 345.597 50.2997C346.197 50.8997 346.597 51.7997 346.597 52.7997V59.1996H345.097V52.9996C345.097 52.2996 344.897 51.6996 344.497 51.1996C344.097 50.6996 343.597 50.4996 342.797 50.4996C341.997 50.4996 341.497 50.6996 340.997 51.1996C340.497 51.6996 340.297 52.1997 340.297 52.8997V59.0996H338.797V45.0996H340.297V50.6996C340.897 49.6996 341.897 49.2997 343.097 49.2997V49.3997Z" fill="#303D48"/>
<path d="M359.198 59.5C357.698 59.5 356.398 59 355.398 57.9C354.398 56.8 353.898 55.2 353.898 52.9V52.1C353.898 49.8 354.398 48.1 355.398 47.1C356.398 46 357.598 45.5 359.198 45.5C360.798 45.5 361.998 46 362.998 47.1C363.998 48.2 364.498 49.8 364.498 52.1V52.9C364.498 55.2 363.998 56.9 362.998 57.9C361.998 59 360.798 59.5 359.198 59.5ZM359.198 58.1C361.598 58.1 362.798 56.3 362.798 52.8V52.1C362.798 48.6 361.598 46.8 359.198 46.8C356.798 46.8 355.598 48.6 355.598 52.1V52.8C355.598 56.3 356.798 58.1 359.198 58.1Z" fill="#303D48"/>
<path d="M370.299 59.3997C368.599 59.3997 367.799 58.4996 367.799 56.6996V50.6996H366.199V49.5996H367.799V47.0996H369.299V49.5996H371.399V50.6996H369.299V56.4996C369.299 57.0996 369.299 57.4996 369.599 57.6996C369.899 57.8996 370.199 58.0996 370.699 58.0996C371.199 58.0996 371.099 58.0996 371.399 58.0996V59.2997C371.099 59.3997 370.699 59.4996 370.299 59.4996V59.3997Z" fill="#303D48"/>
<path d="M377.198 59.3998C375.998 59.3998 374.998 58.9997 374.198 58.0997C373.398 57.1997 373.098 56.0998 373.098 54.4998V54.1997C373.098 52.5997 373.498 51.3997 374.198 50.5997C374.998 49.7997 375.998 49.2998 377.198 49.2998C378.398 49.2998 379.398 49.6997 380.198 50.5997C380.998 51.3997 381.298 52.5997 381.298 54.1997V54.4998C381.298 56.0998 380.898 57.2997 380.198 58.0997C379.398 58.8997 378.398 59.3998 377.198 59.3998ZM377.198 58.0997C378.098 58.0997 378.798 57.7997 379.198 57.0997C379.598 56.3997 379.798 55.5997 379.798 54.5997V54.2998C379.798 53.2998 379.598 52.3998 379.198 51.7998C378.798 51.0998 378.098 50.7998 377.198 50.7998C376.298 50.7998 375.598 51.0998 375.198 51.7998C374.798 52.4998 374.598 53.2998 374.598 54.2998V54.5997C374.598 55.5997 374.798 56.4997 375.198 57.0997C375.598 57.6997 376.298 58.0997 377.198 58.0997Z" fill="#303D48"/>
<path d="M388.398 49.5C388.698 49.5 388.998 49.5 389.198 49.5V51C388.898 51 388.698 51 388.398 51C387.498 51 386.698 51.3 386.298 51.9C385.798 52.5 385.598 53.3 385.598 54.4V59.3H384.098V49.6H385.498V51.7C385.698 51.1 385.998 50.6 386.498 50.2C386.998 49.8 387.598 49.5 388.398 49.5Z" fill="#303D48"/>
<path d="M392.7 47.4998C392.5 47.6998 392.3 47.7998 392 47.7998C391.7 47.7998 391.5 47.7998 391.3 47.4998C391.1 47.1998 391 47.0998 391 46.7998C391 46.4998 391 46.2997 391.3 46.0997C391.6 45.8997 391.7 45.7998 392 45.7998C392.3 45.7998 392.5 45.7997 392.7 46.0997C392.9 46.2997 393 46.4998 393 46.7998C393 47.0998 393 47.2998 392.7 47.4998ZM392.7 49.5997V59.2998H391.2V49.5997H392.7Z" fill="#303D48"/>
<path d="M398.998 59.3997C397.298 59.3997 396.498 58.4996 396.498 56.6996V50.6996H394.898V49.5996H396.498V47.0996H397.998V49.5996H400.098V50.6996H397.998V56.4996C397.998 57.0996 397.998 57.4996 398.298 57.6996C398.598 57.8996 398.898 58.0996 399.398 58.0996C399.898 58.0996 399.798 58.0996 400.098 58.0996V59.2997C399.798 59.3997 399.398 59.4996 398.998 59.4996V59.3997Z" fill="#303D48"/>
<path d="M409.197 56.9994C409.197 57.3994 409.197 57.6994 409.397 57.8994C409.497 57.9994 409.697 58.0994 409.997 58.0994V59.2994C409.897 59.2994 409.697 59.2994 409.397 59.2994C408.497 59.2994 407.897 58.8994 407.797 57.9994C407.197 58.8994 406.297 59.3994 404.997 59.3994C403.697 59.3994 403.297 59.1993 402.697 58.6993C402.097 58.1993 401.797 57.5993 401.797 56.6993C401.797 55.7993 402.297 54.7993 403.197 54.1993C404.097 53.5993 405.597 53.1994 407.697 52.8994V52.6993C407.697 51.2993 406.997 50.5994 405.597 50.5994C404.197 50.5994 403.697 51.0993 403.497 52.1993H402.097C402.097 51.3993 402.497 50.6993 403.097 50.1993C403.697 49.6993 404.597 49.3994 405.597 49.3994C406.597 49.3994 407.597 49.6993 408.197 50.1993C408.797 50.6993 409.197 51.4994 409.197 52.5994V56.9994ZM405.297 58.1993C405.997 58.1993 406.597 57.9994 407.097 57.5994C407.597 57.1994 407.797 56.6994 407.797 55.9994V53.9994C406.297 54.1994 405.197 54.5994 404.497 54.8994C403.797 55.2994 403.397 55.7994 403.397 56.4994C403.397 57.1994 403.597 57.3994 403.897 57.5994C404.197 57.7994 404.697 57.9994 405.397 57.9994L405.297 58.1993Z" fill="#303D48"/>
<path d="M415.4 49.3994C416.4 49.3994 417.2 49.5994 417.8 50.0994C418.4 50.4994 418.7 51.0994 418.8 51.7994V51.9994H417.4C417.4 51.5994 417.1 51.2994 416.8 50.9994C416.4 50.6994 416 50.5994 415.4 50.5994C414.8 50.5994 414.4 50.6994 414.1 50.9994C413.8 51.1994 413.6 51.5994 413.6 51.9994C413.6 52.3994 413.7 52.6994 414.1 52.8994C414.4 53.0994 414.9 53.2994 415.6 53.4994L416.3 53.6993C417.3 53.9993 418 54.2994 418.5 54.7994C419 55.1994 419.2 55.7994 419.2 56.5994C419.2 57.3994 418.9 58.1993 418.3 58.6993C417.7 59.1993 416.8 59.4994 415.7 59.4994C414.6 59.4994 413.7 59.1993 413.1 58.6993C412.5 58.1993 412.1 57.4993 412 56.6993V56.3994H413.5C413.5 56.8994 413.7 57.2993 414.2 57.6993C414.6 57.9993 415.1 58.1993 415.8 58.1993C417.2 58.1993 417.9 57.6993 417.9 56.6993C417.9 55.6993 417.8 55.8993 417.5 55.6993C417.2 55.4993 416.8 55.2994 416.1 55.0994L415.2 54.7994C414.8 54.6994 414.4 54.5994 414.2 54.4994C414 54.4994 413.7 54.2994 413.3 54.0994C413 53.8994 412.7 53.5994 412.6 53.2994C412.5 52.9994 412.4 52.5993 412.4 52.1993C412.4 51.3993 412.7 50.7994 413.3 50.2994C413.9 49.7994 414.7 49.4994 415.7 49.4994L415.4 49.3994Z" fill="#303D48"/>
<path d="M424.898 57.6992C425.498 57.8992 426.198 57.9993 426.898 57.9993C427.598 57.9993 428.298 57.7993 428.698 57.3993C429.098 56.9993 429.298 56.2993 429.298 55.2993V45.6992H430.898V55.3993C430.898 58.0993 429.598 59.4993 426.998 59.4993C424.398 59.4993 425.498 59.3992 424.898 59.1992V57.7993V57.6992Z" fill="#303D48"/>
<path d="M441.099 56.9994C441.099 57.3994 441.099 57.6994 441.299 57.8994C441.399 57.9994 441.599 58.0994 441.899 58.0994V59.2994C441.799 59.2994 441.599 59.2994 441.299 59.2994C440.399 59.2994 439.799 58.8994 439.699 57.9994C439.099 58.8994 438.199 59.3994 436.899 59.3994C435.599 59.3994 435.199 59.1993 434.599 58.6993C433.999 58.1993 433.699 57.5993 433.699 56.6993C433.699 55.7993 434.199 54.7993 435.099 54.1993C435.999 53.5993 437.499 53.1994 439.599 52.8994V52.6993C439.599 51.2993 438.899 50.5994 437.499 50.5994C436.099 50.5994 435.599 51.0993 435.399 52.1993H433.999C433.999 51.3993 434.399 50.6993 434.999 50.1993C435.599 49.6993 436.499 49.3994 437.499 49.3994C438.499 49.3994 439.499 49.6993 440.099 50.1993C440.699 50.6993 441.099 51.4994 441.099 52.5994V56.9994ZM437.099 58.1993C437.799 58.1993 438.399 57.9994 438.899 57.5994C439.399 57.1994 439.599 56.6994 439.599 55.9994V53.9994C438.099 54.1994 436.999 54.5994 436.299 54.8994C435.599 55.2994 435.199 55.7994 435.199 56.4994C435.199 57.1994 435.399 57.3994 435.699 57.5994C435.999 57.7994 436.499 57.9994 437.199 57.9994L437.099 58.1993Z" fill="#303D48"/>
<path d="M447.298 49.3994C448.298 49.3994 449.098 49.5994 449.698 50.0994C450.298 50.4994 450.598 51.0994 450.698 51.7994V51.9994H449.298C449.298 51.5994 448.998 51.2994 448.698 50.9994C448.298 50.6994 447.898 50.5994 447.298 50.5994C446.698 50.5994 446.298 50.6994 445.998 50.9994C445.698 51.1994 445.498 51.5994 445.498 51.9994C445.498 52.3994 445.598 52.6994 445.998 52.8994C446.298 53.0994 446.798 53.2994 447.498 53.4994L448.198 53.6993C449.198 53.9993 449.898 54.2994 450.398 54.7994C450.898 55.1994 451.098 55.7994 451.098 56.5994C451.098 57.3994 450.798 58.1993 450.198 58.6993C449.598 59.1993 448.698 59.4994 447.598 59.4994C446.498 59.4994 445.598 59.1993 444.998 58.6993C444.398 58.1993 443.998 57.4993 443.898 56.6993V56.3994H445.398C445.398 56.8994 445.598 57.2993 446.098 57.6993C446.498 57.9993 446.998 58.1993 447.698 58.1993C449.098 58.1993 449.798 57.6993 449.798 56.6993C449.798 55.6993 449.698 55.8993 449.398 55.6993C449.098 55.4993 448.698 55.2994 447.998 55.0994L447.098 54.7994C446.698 54.6994 446.298 54.5994 446.098 54.4994C445.898 54.4994 445.598 54.2994 445.198 54.0994C444.898 53.8994 444.598 53.5994 444.498 53.2994C444.398 52.9994 444.298 52.5993 444.298 52.1993C444.298 51.3993 444.598 50.7994 445.198 50.2994C445.798 49.7994 446.598 49.4994 447.598 49.4994L447.298 49.3994Z" fill="#303D48"/>
<path d="M460.298 56.9994C460.298 57.3994 460.298 57.6994 460.498 57.8994C460.598 57.9994 460.798 58.0994 461.098 58.0994V59.2994C460.998 59.2994 460.798 59.2994 460.498 59.2994C459.598 59.2994 458.998 58.8994 458.898 57.9994C458.298 58.8994 457.398 59.3994 456.098 59.3994C454.798 59.3994 454.398 59.1993 453.798 58.6993C453.198 58.1993 452.898 57.5993 452.898 56.6993C452.898 55.7993 453.398 54.7993 454.298 54.1993C455.198 53.5993 456.698 53.1994 458.798 52.8994V52.6993C458.798 51.2993 458.098 50.5994 456.698 50.5994C455.298 50.5994 454.798 51.0993 454.598 52.1993H453.198C453.198 51.3993 453.598 50.6993 454.198 50.1993C454.798 49.6993 455.698 49.3994 456.698 49.3994C457.698 49.3994 458.698 49.6993 459.298 50.1993C459.898 50.6993 460.298 51.4994 460.298 52.5994V56.9994ZM456.298 58.1993C456.998 58.1993 457.598 57.9994 458.098 57.5994C458.598 57.1994 458.798 56.6994 458.798 55.9994V53.9994C457.298 54.1994 456.198 54.5994 455.498 54.8994C454.798 55.2994 454.398 55.7994 454.398 56.4994C454.398 57.1994 454.598 57.3994 454.898 57.5994C455.198 57.7994 455.698 57.9994 456.398 57.9994L456.298 58.1993Z" fill="#303D48"/>
<path d="M478.598 59.2998H476.898C476.498 58.3998 475.898 57.2998 475.098 55.9998C474.298 54.5998 473.498 53.4997 472.898 52.5997C471.998 53.5997 471.098 54.4998 470.198 55.2998V59.3998H468.598V45.7998H470.198V53.4998C472.998 50.6998 475.098 48.0998 476.598 45.7998H478.298C477.298 47.5998 475.898 49.3998 473.998 51.3998C474.898 52.5998 475.798 53.9997 476.698 55.5997C477.598 57.1997 478.298 58.3998 478.698 59.2998H478.598Z" fill="#303D48"/>
<path d="M487.997 54.5997H481.297C481.297 55.5997 481.497 56.3997 481.997 57.0997C482.397 57.7997 483.097 58.0997 483.997 58.0997C484.897 58.0997 485.997 57.5998 486.297 56.4998H487.797C487.297 58.3998 485.997 59.3998 483.897 59.3998C481.797 59.3998 481.697 58.9997 480.897 58.0997C480.197 57.2997 479.797 56.0998 479.797 54.4998V54.1997C479.797 52.6997 480.197 51.4997 480.997 50.5997C481.797 49.6997 482.797 49.2998 483.997 49.2998C485.197 49.2998 486.197 49.6998 486.897 50.4998C487.597 51.2998 487.997 52.3997 487.997 53.6997V54.4998V54.5997ZM483.897 50.6997C482.397 50.6997 481.597 51.5998 481.397 53.3998H486.497C486.397 51.5998 485.497 50.6997 483.897 50.6997Z" fill="#303D48"/>
<path d="M496.699 49.5996H498.199V59.2997H496.799V58.0996C496.199 58.9996 495.199 59.4996 493.999 59.4996C492.799 59.4996 492.199 59.1996 491.599 58.5996C490.999 57.9996 490.699 57.0996 490.699 56.0996V49.6996H492.199V55.8997C492.199 56.5997 492.399 57.1996 492.699 57.6996C493.099 58.0996 493.599 58.3997 494.299 58.3997C494.999 58.3997 495.599 58.1996 496.099 57.6996C496.499 57.1996 496.799 56.6996 496.799 55.9996V49.7997L496.699 49.5996Z" fill="#303D48"/>
<path d="M508.298 56.9994C508.298 57.3994 508.298 57.6994 508.498 57.8994C508.598 57.9994 508.798 58.0994 509.098 58.0994V59.2994C508.998 59.2994 508.798 59.2994 508.498 59.2994C507.598 59.2994 506.998 58.8994 506.898 57.9994C506.298 58.8994 505.398 59.3994 504.098 59.3994C502.798 59.3994 502.398 59.1993 501.798 58.6993C501.198 58.1993 500.898 57.5993 500.898 56.6993C500.898 55.7993 501.398 54.7993 502.298 54.1993C503.198 53.5993 504.698 53.1994 506.798 52.8994V52.6993C506.798 51.2993 506.098 50.5994 504.698 50.5994C503.298 50.5994 502.798 51.0993 502.598 52.1993H501.198C501.198 51.3993 501.598 50.6993 502.198 50.1993C502.798 49.6993 503.698 49.3994 504.698 49.3994C505.698 49.3994 506.698 49.6993 507.298 50.1993C507.898 50.6993 508.298 51.4994 508.298 52.5994V56.9994ZM504.298 58.1993C504.998 58.1993 505.598 57.9994 506.098 57.5994C506.598 57.1994 506.798 56.6994 506.798 55.9994V53.9994C505.298 54.1994 504.198 54.5994 503.498 54.8994C502.798 55.2994 502.398 55.7994 502.398 56.4994C502.398 57.1994 502.598 57.3994 502.898 57.5994C503.198 57.7994 503.698 57.9994 504.398 57.9994L504.298 58.1993Z" fill="#303D48"/>
<path d="M515.999 49.3993C516.999 49.3993 517.799 49.6993 518.499 50.2993C519.099 50.8993 519.499 51.7993 519.499 52.7993V59.1992H517.999V52.9993C517.999 52.2993 517.799 51.6992 517.399 51.1992C516.999 50.6992 516.499 50.4993 515.699 50.4993C514.899 50.4993 514.399 50.6992 513.899 51.1992C513.399 51.6992 513.199 52.1993 513.199 52.8993V59.0992H511.699V49.3993H513.099V50.7993C513.699 49.7993 514.599 49.1992 515.999 49.1992V49.3993Z" fill="#303D48"/>
<path d="M528.7 49.5996H530.1V59.0996C530.1 60.2996 529.7 61.1997 529 61.7997C528.3 62.3997 527.4 62.6996 526.2 62.6996C525 62.6996 524.2 62.4996 523.5 62.0996C522.8 61.6996 522.4 61.0997 522.4 60.2997V60.0996H523.9C524.1 60.9996 524.9 61.4996 526.2 61.4996C527.5 61.4996 527.6 61.2997 528 60.8997C528.4 60.4997 528.6 59.8996 528.6 59.0996V57.5996C528 58.4996 527 58.9996 525.8 58.9996C524.6 58.9996 523.8 58.5997 523.1 57.7997C522.4 56.9997 522 55.8997 522 54.3997V54.1996C522 52.6996 522.4 51.5997 523.1 50.7997C523.8 49.9997 524.7 49.5996 525.8 49.5996C526.9 49.5996 528.1 50.0996 528.7 51.0996V49.7997V49.5996ZM526.1 57.5996C527 57.5996 527.7 57.2996 528.1 56.5996C528.5 55.9996 528.7 55.1996 528.7 54.1996C528.7 53.0996 528.5 52.2996 528.1 51.5996C527.7 50.9996 527.1 50.5996 526.1 50.5996C525.1 50.5996 524.5 50.8996 524.1 51.5996C523.7 52.1996 523.5 52.9996 523.5 53.9996V54.1996C523.5 55.1996 523.7 55.9996 524.1 56.5996C524.5 57.1996 525.2 57.5996 526.1 57.5996Z" fill="#303D48"/>
<path d="M540.197 56.9994C540.197 57.3994 540.197 57.6994 540.397 57.8994C540.497 57.9994 540.697 58.0994 540.997 58.0994V59.2994C540.897 59.2994 540.697 59.2994 540.397 59.2994C539.497 59.2994 538.897 58.8994 538.797 57.9994C538.197 58.8994 537.297 59.3994 535.997 59.3994C534.697 59.3994 534.297 59.1993 533.697 58.6993C533.097 58.1993 532.797 57.5993 532.797 56.6993C532.797 55.7993 533.297 54.7993 534.197 54.1993C535.097 53.5993 536.597 53.1994 538.697 52.8994V52.6993C538.697 51.2993 537.997 50.5994 536.597 50.5994C535.197 50.5994 534.697 51.0993 534.497 52.1993H533.097C533.097 51.3993 533.497 50.6993 534.097 50.1993C534.697 49.6993 535.597 49.3994 536.597 49.3994C537.597 49.3994 538.597 49.6993 539.197 50.1993C539.797 50.6993 540.197 51.4994 540.197 52.5994V56.9994ZM536.197 58.1993C536.897 58.1993 537.497 57.9994 537.997 57.5994C538.497 57.1994 538.697 56.6994 538.697 55.9994V53.9994C537.197 54.1994 536.097 54.5994 535.397 54.8994C534.697 55.2994 534.297 55.7994 534.297 56.4994C534.297 57.1994 534.497 57.3994 534.797 57.5994C535.097 57.7994 535.597 57.9994 536.297 57.9994L536.197 58.1993Z" fill="#303D48"/>
<path d="M547.898 49.3993C548.898 49.3993 549.698 49.6993 550.398 50.2993C550.998 50.8993 551.398 51.7993 551.398 52.7993V59.1992H549.898V52.9993C549.898 52.2993 549.698 51.6992 549.298 51.1992C548.898 50.6992 548.398 50.4993 547.598 50.4993C546.798 50.4993 546.298 50.6992 545.798 51.1992C545.298 51.6992 545.098 52.1993 545.098 52.8993V59.0992H543.598V49.3993H544.998V50.7993C545.598 49.7993 546.498 49.1992 547.898 49.1992V49.3993Z" fill="#303D48"/>
<path d="M13.9 19.8003C13.9 20.5003 14 21.0003 14.2 21.3003C14.4 21.6003 14.8 21.7002 15.3 21.7002V24.6002C14.9 24.7002 14.5 24.8003 13.9 24.8003C12.1 24.8003 11 24.1002 10.6 22.6002C9.6 24.2002 8 24.9003 5.7 24.9003C3.4 24.9003 2.5 24.5002 1.5 23.6002C0.5 22.7002 0 21.5002 0 20.0002C0 18.5002 0.800002 16.7002 2.4 15.6002C4 14.5002 6.6 13.8002 10.1 13.5002V13.2002C10.1 11.3002 9.1 10.3003 7.2 10.3003C5.3 10.3003 4.5 11.1002 4.2 12.6002H0.5C0.5 11.0002 1.2 9.7002 2.4 8.7002C3.6 7.7002 5.2 7.2002 7.2 7.2002C9.2 7.2002 10.9 7.7002 12.1 8.7002C13.3 9.7002 13.9 11.2002 13.9 13.2002V19.9003V19.8003ZM6.5 21.9003C7.5 21.9003 8.4 21.6002 9.1 21.1002C9.8 20.6002 10.1 19.8003 10.1 18.8003V16.1002C8 16.4002 6.4 16.8003 5.4 17.4003C4.3 18.0003 3.8 18.7002 3.8 19.7002C3.8 20.7002 4 20.9003 4.5 21.3003C5 21.7003 5.7 21.9003 6.6 21.9003H6.5Z" fill="#303D48"/>
<path d="M20.8 4.90002C20.1 4.90002 19.6 4.70005 19.2 4.30005C18.8 3.90005 18.5 3.39995 18.5 2.69995C18.5 1.99995 18.7 1.49998 19.2 1.09998C19.6 0.699976 20.2 0.5 20.8 0.5C21.4 0.5 22 0.699976 22.4 1.09998C22.8 1.49998 23.1 2.09995 23.1 2.69995C23.1 3.29995 22.9 3.90005 22.4 4.30005C21.9 4.70005 21.4 4.90002 20.8 4.90002ZM22.7 7.5V24.7H18.8V7.5H22.7Z" fill="#303D48"/>
<path d="M40.5992 19.8003C40.5992 20.5003 40.6992 21.0003 40.8992 21.3003C41.0992 21.6003 41.4992 21.7002 41.9992 21.7002V24.6002C41.5992 24.7002 41.1992 24.8003 40.5992 24.8003C38.7992 24.8003 37.6992 24.1002 37.2992 22.6002C36.2992 24.2002 34.6992 24.9003 32.3992 24.9003C30.0992 24.9003 29.1992 24.5002 28.1992 23.6002C27.1992 22.7002 26.6992 21.5002 26.6992 20.0002C26.6992 18.5002 27.4992 16.7002 29.0992 15.6002C30.6992 14.5002 33.2992 13.8002 36.7992 13.5002V13.2002C36.7992 11.3002 35.7992 10.3003 33.8992 10.3003C31.9992 10.3003 31.1992 11.1002 30.8992 12.6002H27.1992C27.1992 11.0002 27.8992 9.7002 29.0992 8.7002C30.2992 7.7002 31.8992 7.2002 33.8992 7.2002C35.8992 7.2002 37.5992 7.7002 38.7992 8.7002C39.9992 9.7002 40.5992 11.2002 40.5992 13.2002V19.9003V19.8003ZM33.1992 21.9003C34.1992 21.9003 35.0992 21.6002 35.7992 21.1002C36.4992 20.6002 36.7992 19.8003 36.7992 18.8003V16.1002C34.6992 16.4002 33.0992 16.8003 32.0992 17.4003C30.9992 18.0003 30.4992 18.7002 30.4992 19.7002C30.4992 20.7002 30.6992 20.9003 31.1992 21.3003C31.6992 21.7003 32.3992 21.9003 33.2992 21.9003H33.1992Z" fill="#303D48"/>
<path d="M44.5 12.5996H54.3V16.0996H44.5V12.5996Z" fill="#303D48"/>
<path d="M66.6016 3.5C65.2016 3.3 64.3016 3.50002 63.8016 3.90002C63.3016 4.30002 63.0016 5.09995 63.0016 6.19995V7.5H66.4016V10.6H63.0016V24.6H59.2016V10.6H56.6016V7.5H59.2016V5.30005C59.2016 1.80005 61.1016 0 64.9016 0C68.7016 0 66.1016 -4.88311e-05 66.6016 0.199951V3.5Z" fill="#303D48"/>
<path d="M71.9016 4.90002C71.2016 4.90002 70.7016 4.70005 70.3016 4.30005C69.9016 3.90005 69.6016 3.39995 69.6016 2.69995C69.6016 1.99995 69.8016 1.49998 70.3016 1.09998C70.7016 0.699976 71.3016 0.5 71.9016 0.5C72.5016 0.5 73.1016 0.699976 73.5016 1.09998C73.9016 1.49998 74.2016 2.09995 74.2016 2.69995C74.2016 3.29995 74.0016 3.90005 73.5016 4.30005C73.0016 4.70005 72.5016 4.90002 71.9016 4.90002ZM73.8016 7.5V24.7H69.9016V7.5H73.8016Z" fill="#303D48"/>
<path d="M87.3992 7.19958C89.1992 7.19958 90.5992 7.69968 91.6992 8.79968C92.7992 9.89968 93.2992 11.3996 93.2992 13.1996V24.5996H89.3992V14.0996C89.3992 12.9996 89.0992 12.0996 88.5992 11.4996C88.0992 10.8996 87.1992 10.4996 86.1992 10.4996C85.1992 10.4996 84.2992 10.7996 83.5992 11.4996C82.9992 12.1996 82.5992 12.9996 82.5992 14.0996V24.5996H78.6992V7.39966H82.2992V9.79968C82.6992 9.09968 83.2992 8.39966 84.0992 7.89966C84.8992 7.39966 85.9992 7.09961 87.1992 7.09961L87.3992 7.19958Z" fill="#303D48"/>
<path d="M110.9 19.8003C110.9 20.5003 111 21.0003 111.2 21.3003C111.4 21.6003 111.8 21.7002 112.3 21.7002V24.6002C111.9 24.7002 111.5 24.8003 110.9 24.8003C109.1 24.8003 108 24.1002 107.6 22.6002C106.6 24.2002 105 24.9003 102.7 24.9003C100.4 24.9003 99.5 24.5002 98.5 23.6002C97.5 22.7002 97 21.5002 97 20.0002C97 18.5002 97.8 16.7002 99.4 15.6002C101 14.5002 103.6 13.8002 107.1 13.5002V13.2002C107.1 11.3002 106.1 10.3003 104.2 10.3003C102.3 10.3003 101.5 11.1002 101.2 12.6002H97.5C97.5 11.0002 98.2 9.7002 99.4 8.7002C100.6 7.7002 102.2 7.2002 104.2 7.2002C106.2 7.2002 107.9 7.7002 109.1 8.7002C110.3 9.7002 110.9 11.2002 110.9 13.2002V19.9003V19.8003ZM103.6 21.9003C104.6 21.9003 105.5 21.6002 106.2 21.1002C106.9 20.6002 107.2 19.8003 107.2 18.8003V16.1002C105.1 16.4002 103.5 16.8003 102.5 17.4003C101.4 18.0003 100.9 18.7002 100.9 19.7002C100.9 20.7002 101.1 20.9003 101.6 21.3003C102.1 21.7003 102.8 21.9003 103.7 21.9003H103.6Z" fill="#303D48"/>
<path d="M124.598 7.19958C126.398 7.19958 127.798 7.69968 128.898 8.79968C129.998 9.89968 130.498 11.3996 130.498 13.1996V24.5996H126.598V14.0996C126.598 12.9996 126.298 12.0996 125.798 11.4996C125.298 10.8996 124.398 10.4996 123.398 10.4996C122.398 10.4996 121.498 10.7996 120.798 11.4996C120.198 12.1996 119.798 12.9996 119.798 14.0996V24.5996H115.898V7.39966H119.498V9.79968C119.898 9.09968 120.498 8.39966 121.298 7.89966C122.098 7.39966 123.198 7.09961 124.398 7.09961L124.598 7.19958Z" fill="#303D48"/>
<path d="M149.002 18.5002V19.0002C148.802 20.8002 148.102 22.3003 146.702 23.4003C145.302 24.5003 143.802 25.0002 141.802 25.0002C139.802 25.0002 137.602 24.3003 136.202 22.8003C134.802 21.3003 134.102 19.2002 134.102 16.5002V15.7002C134.102 13.0002 134.802 10.9003 136.202 9.40027C137.602 7.90027 139.402 7.2002 141.802 7.2002C144.202 7.2002 145.402 7.70029 146.702 8.80029C148.002 9.80029 148.702 11.2003 148.802 12.8003V13.2002H145.002C144.602 11.4002 143.502 10.5002 141.702 10.5002C139.902 10.5002 139.402 11.0002 138.802 12.0002C138.202 13.0002 137.902 14.2002 137.902 15.7002V16.5002C137.902 18.0002 138.202 19.2002 138.802 20.2002C139.402 21.2002 140.302 21.7002 141.702 21.7002C143.702 21.7002 144.802 20.7002 145.202 18.6002H149.002V18.5002Z" fill="#303D48"/>
<path d="M154.601 4.90002C153.901 4.90002 153.401 4.70005 153.001 4.30005C152.601 3.90005 152.301 3.39995 152.301 2.69995C152.301 1.99995 152.501 1.49998 153.001 1.09998C153.401 0.699976 154.001 0.5 154.601 0.5C155.201 0.5 155.801 0.699976 156.201 1.09998C156.601 1.49998 156.901 2.09995 156.901 2.69995C156.901 3.29995 156.701 3.90005 156.201 4.30005C155.701 4.70005 155.201 4.90002 154.601 4.90002ZM156.501 7.5V24.7H152.601V7.5H156.501Z" fill="#303D48"/>
<path d="M174.298 19.8003C174.298 20.5003 174.398 21.0003 174.598 21.3003C174.798 21.6003 175.198 21.7002 175.698 21.7002V24.6002C175.298 24.7002 174.898 24.8003 174.298 24.8003C172.498 24.8003 171.398 24.1002 170.998 22.6002C169.998 24.2002 168.398 24.9003 166.098 24.9003C163.798 24.9003 162.898 24.5002 161.898 23.6002C160.898 22.7002 160.398 21.5002 160.398 20.0002C160.398 18.5002 161.198 16.7002 162.798 15.6002C164.398 14.5002 166.998 13.8002 170.498 13.5002V13.2002C170.498 11.3002 169.498 10.3003 167.598 10.3003C165.698 10.3003 164.898 11.1002 164.598 12.6002H160.898C160.898 11.0002 161.598 9.7002 162.798 8.7002C163.998 7.7002 165.598 7.2002 167.598 7.2002C169.598 7.2002 171.298 7.7002 172.498 8.7002C173.698 9.7002 174.298 11.2002 174.298 13.2002V19.9003V19.8003ZM166.898 21.9003C167.898 21.9003 168.798 21.6002 169.498 21.1002C170.198 20.6002 170.498 19.8003 170.498 18.8003V16.1002C168.398 16.4002 166.798 16.8003 165.798 17.4003C164.698 18.0003 164.198 18.7002 164.198 19.7002C164.198 20.7002 164.398 20.9003 164.898 21.3003C165.398 21.7003 166.098 21.9003 166.998 21.9003H166.898Z" fill="#303D48"/>
<path d="M182.999 0.0996094V19.1996C182.999 20.1996 183.199 20.7996 183.499 21.0996C183.799 21.3996 184.399 21.5996 185.199 21.4996V24.4996C184.799 24.6996 184.199 24.7997 183.499 24.7997C181.999 24.7997 180.899 24.3996 180.199 23.6996C179.499 22.9996 179.199 21.7997 179.199 20.2997V0.0996094H183.099H182.999Z" fill="#303D48"/>
<path d="M191.601 24.2003C191.101 24.7003 190.501 24.9004 189.801 24.9004C189.101 24.9004 188.501 24.7003 188.001 24.2003C187.501 23.7003 187.301 23.1004 187.301 22.4004C187.301 21.7004 187.501 21.1003 188.001 20.6003C188.501 20.1003 189.101 19.9004 189.801 19.9004C190.501 19.9004 191.101 20.1003 191.601 20.6003C192.101 21.1003 192.401 21.7004 192.401 22.4004C192.401 23.1004 192.101 23.7003 191.601 24.2003Z" fill="#303D48"/>
<path d="M209.798 18.5002V19.0002C209.598 20.8002 208.898 22.3003 207.498 23.4003C206.098 24.5003 204.598 25.0002 202.598 25.0002C200.598 25.0002 198.398 24.3003 196.998 22.8003C195.598 21.3003 194.898 19.2002 194.898 16.5002V15.7002C194.898 13.0002 195.598 10.9003 196.998 9.40027C198.398 7.90027 200.198 7.2002 202.598 7.2002C204.998 7.2002 206.198 7.70029 207.498 8.80029C208.798 9.80029 209.498 11.2003 209.598 12.8003V13.2002H205.798C205.398 11.4002 204.298 10.5002 202.498 10.5002C200.698 10.5002 200.198 11.0002 199.598 12.0002C198.998 13.0002 198.698 14.2002 198.698 15.7002V16.5002C198.698 18.0002 198.998 19.2002 199.598 20.2002C200.198 21.2002 201.098 21.7002 202.498 21.7002C204.498 21.7002 205.598 20.7002 205.998 18.6002H209.798V18.5002Z" fill="#303D48"/>
<path d="M225.601 22.6996C224.201 24.1996 222.301 24.8997 220.001 24.8997C217.701 24.8997 215.801 24.1996 214.401 22.6996C213.001 21.1996 212.301 19.0997 212.301 16.3997V15.5996C212.301 12.8996 213.001 10.7997 214.401 9.29968C215.801 7.79968 217.701 7.09961 220.001 7.09961C222.301 7.09961 224.201 7.79968 225.601 9.29968C227.001 10.7997 227.701 12.8996 227.701 15.5996V16.3997C227.701 19.0997 227.001 21.1996 225.601 22.6996ZM217.101 20.0996C217.701 21.0996 218.701 21.5996 220.101 21.5996C221.501 21.5996 222.501 21.0996 223.101 20.0996C223.701 19.0996 224.001 17.8997 224.001 16.3997V15.5996C224.001 14.0996 223.701 12.8997 223.101 11.8997C222.501 10.8997 221.501 10.3997 220.101 10.3997C218.701 10.3997 217.701 10.8997 217.101 11.8997C216.501 12.8997 216.201 14.0996 216.201 15.5996V16.3997C216.201 17.8997 216.501 19.0996 217.101 20.0996Z" fill="#303D48"/>
<path d="M234.698 24.2003C234.198 24.7003 233.598 24.9004 232.898 24.9004C232.198 24.9004 231.598 24.7003 231.098 24.2003C230.598 23.7003 230.398 23.1004 230.398 22.4004C230.398 21.7004 230.598 21.1003 231.098 20.6003C231.598 20.1003 232.198 19.9004 232.898 19.9004C233.598 19.9004 234.198 20.1003 234.698 20.6003C235.198 21.1003 235.498 21.7004 235.498 22.4004C235.498 23.1004 235.198 23.7003 234.698 24.2003Z" fill="#303D48"/>
<path d="M240.999 4.90002C240.299 4.90002 239.799 4.70005 239.399 4.30005C238.999 3.90005 238.699 3.39995 238.699 2.69995C238.699 1.99995 238.899 1.49998 239.399 1.09998C239.799 0.699976 240.399 0.5 240.999 0.5C241.599 0.5 242.199 0.699976 242.599 1.09998C242.999 1.49998 243.299 2.09995 243.299 2.69995C243.299 3.29995 243.099 3.90005 242.599 4.30005C242.099 4.70005 241.599 4.90002 240.999 4.90002ZM242.999 7.5V24.7H239.199V7.5H242.999Z" fill="#303D48"/>
<path d="M258.401 0.0999756H262.201V24.6H258.501V22.3C257.401 24.1 255.701 24.9 253.501 24.9C251.301 24.9 249.801 24.2 248.601 22.7C247.401 21.2 246.801 19.1 246.801 16.4V15.6C246.801 12.9 247.401 10.8 248.601 9.30005C249.801 7.80005 251.501 7.09998 253.501 7.09998C255.501 7.09998 257.301 7.90002 258.401 9.40002V0V0.0999756ZM254.501 21.6C255.801 21.6 256.801 21.1 257.401 20.2C258.001 19.2 258.301 18.1 258.301 16.7V15.5C258.301 14.1 258.001 12.9 257.401 12C256.801 11.1 255.801 10.6 254.501 10.6C253.201 10.6 252.101 11.1 251.501 12.1C250.901 13.1 250.601 14.3 250.601 15.8V16.6C250.601 18.1 250.901 19.3 251.501 20.3C252.101 21.3 253.101 21.8 254.501 21.8V21.6Z" fill="#303D48"/>
</svg>
