<svg width="567" height="686" viewBox="0 0 567 686" fill="none" xmlns="http://www.w3.org/2000/svg">
<path d="M258.3 676.855H566.1" stroke="#3E4853" stroke-width="3" stroke-miterlimit="10"/>
<path d="M0 676.855H224.7" stroke="#3E4853" stroke-width="3" stroke-miterlimit="10"/>
<path d="M388.8 3.95556V202.556C388.8 202.556 406.2 212.756 424 202.556V3.95556C424 3.95556 408.7 -4.94444 388.8 3.95556Z" fill="#D31145"/>
<path d="M459.1 49.6556V160.656C459.1 160.656 473.1 168.856 487.5 160.656V49.6556C487.5 49.6556 475.2 42.4556 459.1 49.6556Z" fill="#D31145"/>
<path d="M424 25.9556V183.056C424 183.056 441.4 193.256 459.2 183.056V25.9556C459.1 25.9556 443.9 17.0556 424 25.9556Z" fill="#770025"/>
<path d="M506.6 89.4556H487.5V105.356H506.6V89.4556Z" fill="#5B636B"/>
<path d="M119.8 3.95556V202.556C119.8 202.556 102.4 212.756 84.6 202.556V3.95556C84.6 3.95556 99.9 -4.94444 119.8 3.95556Z" fill="#D31145"/>
<path d="M49.5 49.6556V160.656C49.5 160.656 35.5 168.856 21.1 160.656V49.6556C21.1 49.6556 33.4 42.4556 49.5 49.6556Z" fill="#D31145"/>
<path d="M84.6 25.9556V183.056C84.6 183.056 67.2 193.256 49.4 183.056V25.9556C49.5 25.9556 64.7 17.0556 84.6 25.9556Z" fill="#770025"/>
<path d="M1.97421 105.376H21.0742L21.0742 89.476H1.97421L1.97421 105.376Z" fill="#5B636B"/>
<path d="M388.8 89.9556H119.8V105.856H388.8V89.9556Z" fill="#5B636B"/>
<path d="M217.4 242.556C217.4 242.556 187.3 201.156 179.1 194.656L172.6 115.856C172.6 115.856 182.7 109.456 184.6 104.856C186.5 100.256 185.4 93.8559 182.7 91.7559C180.1 89.6559 179.3 92.556 179.3 92.556C179.3 92.556 176.7 80.5559 168.9 86.3559C168.9 86.3559 163.1 84.9559 161.3 87.6559C161.3 87.6559 155.9 84.9559 154.1 90.8559C152.2 96.7559 153.3 106.256 158.1 106.456C158.1 106.456 155.9 113.056 154.2 124.856C152.5 136.656 146.9 170.756 145.8 187.656C144.7 204.656 146.4 209.556 154.1 223.656C161.8 237.756 197.6 276.756 197.6 276.756L199.2 288.456L213.5 295.056L223.8 252.656L217.4 242.556Z" fill="#FDC298"/>
<path d="M287.7 241.856C287.7 241.856 327 200.456 331.3 194.756C331.3 194.756 331.9 158.456 333.7 139.256C335.6 120.056 335 115.556 335 115.556C335 115.556 323 109.956 322.6 103.556C322.2 97.1559 323 91.2558 327.1 91.2558C327.1 91.2558 331.2 87.1558 332.7 85.6558C334.2 84.1558 337 84.3558 338.9 85.6558C338.9 85.6558 344.2 83.9558 346.4 87.1558C346.4 87.1558 351.7 85.0558 353.7 90.1558C355.8 95.2558 354.8 104.056 350.7 107.056C350.7 107.056 354.8 121.956 358 141.356C361.2 160.756 366.5 199.456 363.5 207.156C360.5 214.756 335.8 257.056 304 281.456L287.7 241.856Z" fill="#FDC298"/>
<path d="M217.4 242.556L244.5 238.355L287.6 241.755C287.6 241.755 310.4 274.155 306.4 315.355C302.4 356.555 295.4 383.355 296.5 399.255C296.5 399.255 248.5 409.655 210.4 399.255C210.4 399.255 212.4 368.055 209 343.755C205.6 319.355 198.6 302.755 199.1 288.355C199.2 288.355 227.2 275.356 217.4 242.556Z" fill="#D31145"/>
<path d="M238 219.956C238 219.956 232.9 235.556 235.2 245.156C237.5 254.756 244.8 257.956 255 256.456C265.2 254.956 269.4 243.056 268.7 240.456C268 237.856 264.9 227.456 264.9 227.456L238 219.956Z" fill="#E2A983"/>
<path d="M224 191.056C224 191.056 221.8 201.556 232.3 208.856C232.3 208.856 235 223.356 245.3 228.156C255.6 232.956 264.5 235.056 269.9 228.156C275.3 221.256 274.4 205.456 272.4 194.556C270.4 183.656 267.7 178.456 267.7 178.456L237.8 157.456L223.8 181.756L224 191.056Z" fill="#FDC298"/>
<path d="M243.5 167.256C243.5 167.256 256.2 194.356 278.2 178.256C278.2 178.256 284.1 182.456 290.7 177.356C298.2 171.456 294.1 159.656 287.1 152.856C287.1 152.856 286 158.856 281.8 161.156C281.8 161.156 281.6 153.656 276.6 151.356C271.5 149.056 265 152.156 260.3 151.256C254.6 150.156 250.6 143.756 240.6 144.656C230.6 145.556 228.5 155.456 228.5 158.056C228.5 158.056 217.5 162.456 218.6 175.556C219.4 185.456 223.9 189.156 223.9 191.056C223.9 191.056 224.8 187.856 227.9 188.756C230.9 189.656 230.9 194.556 230.9 194.556C230.9 194.556 236.4 190.756 236 184.756C235.6 178.756 233 178.756 233.2 174.056C233.4 169.756 238.6 166.956 243.5 167.256Z" fill="#333D47"/>
<path d="M245.9 193.156C245.9 193.156 250.6 195.156 253.3 195.056C253.3 195.056 252.9 196.556 249.6 196.356C246.2 196.156 245.9 193.156 245.9 193.156Z" fill="#BF7856"/>
<path d="M264.8 193.956C264.8 193.956 269.7 195.356 272.4 194.856C272.4 194.856 272.2 196.356 268.9 196.656C265.6 196.856 264.8 193.956 264.8 193.956Z" fill="#BF7856"/>
<path d="M253.3 216.855C253.3 216.855 256.3 216.655 258.5 216.055C260.7 215.355 262.3 217.255 264.8 217.455C264.8 217.455 262.4 218.355 259.7 218.255C257 218.155 253.3 216.855 253.3 216.855Z" fill="#BF7856"/>
<path d="M259.9 189.056C259.9 189.056 262.7 203.956 263.2 205.756C263.7 207.556 262.1 208.156 260.9 208.256C259.8 208.356 259.9 189.056 259.9 189.056Z" fill="#BF7856"/>
<path d="M210.5 399.256C210.5 399.256 200.1 446.256 194.2 520.856C188.3 595.356 181.5 648.356 181.5 648.356L199.2 650.856C199.2 650.856 223.4 580.156 228.1 558.556C232.8 536.956 258.4 454.756 258.4 454.756C258.4 454.756 274.7 500.056 285.7 528.056C296.7 556.056 294.2 545.456 297.1 562.756C300.1 580.156 312.8 617.856 327.6 650.856L342 647.056C342 647.056 326.3 547.056 325.1 527.656C323.8 508.156 314.4 450.156 296.7 399.356C278.9 348.456 210.5 399.256 210.5 399.256Z" fill="#4C4794"/>
<path d="M199.2 650.855L181.5 648.355C181.5 648.355 173.5 658.256 162.7 665.056C152 671.856 139.8 681.055 154.2 684.255C168.6 687.455 186.7 681.155 190.1 676.955C190.1 676.955 202.2 679.455 201.7 670.455C201.2 661.455 199.2 650.855 199.2 650.855Z" fill="#333D47"/>
<path d="M327.6 650.856L342 647.056C342 647.056 355.3 659.656 362.9 664.956C370.5 670.356 378.4 674.556 378.7 679.356C379 684.156 362 684.756 353.1 680.756C344.2 676.756 325.9 679.856 325.3 676.756C324.7 673.756 327.6 650.856 327.6 650.856Z" fill="#333D47"/>
</svg>
